<svg xmlns="http://www.w3.org/2000/svg">
<defs>
<font id="BohemianTypewriter" horiz-adv-x="799" >
  <font-face 
    font-family="Bohemian Typewriter"
    font-weight="400"
    font-stretch="normal"
    units-per-em="2048"
    panose-1="2 0 0 0 0 0 0 0 0 0"
    ascent="1638"
    descent="-410"
    x-height="1022"
    cap-height="1336"
    bbox="-30 -415 2894 1852"
    underline-thickness="150"
    underline-position="-442"
    unicode-range="U+001D-263A"
  />
<missing-glyph horiz-adv-x="2181" 
d="M1283 35v-10h4q0 2 11 19h-6q-4 0 -9 -9zM988 63v-4h9v4h-9zM1321 72v-7h4q5 0 5 7h-9zM542 65h-8q-5 -1 -5 -6h50q5 0 5 6l-3 7q-21 -7 -39 -7zM1235 96v-4h9q6 6 10 6v3h-5q-10 -5 -14 -5zM627 129h-3v-11q3 0 9 -2q15 10 24 10q0 5 -6 5q-14 -2 -24 -2zM1455 139v-8
h10v5q-5 0 -10 3zM1418 153q0 -12 -5 -17l-5 3q-6 0 -10 -10v-6h2v8h3q8 0 8 -13h2q14 23 22 23v12h-17zM1505 160v-7h5v7h-5zM1354 160v-5h5q5 0 5 5h-10zM679 129v-3q41 5 46 10h8q0 -13 5 -13h8v6q-8 17 -8 21v10h-5q-49 -31 -54 -31zM1393 165v-2h5v2h-5zM1388 188
q94 -42 105 -52h5v10q-19 24 -19 29l-10 -7q-12 17 -27 25q-2 0 -2 -3q-10 3 -12 3l-12 -3q-12 3 -23 3q-5 -1 -5 -5zM1330 193v-3q4 -11 13 -17q6 0 13 2q5 -2 8 -2v2q0 4 -29 18h-5zM1332 212l3 -5q3 0 3 2l16 -2h67v5q-9 16 -45 24h-5zM1215 414v-2h8v2h-8zM1229 417h6
q4 0 9 10v3h-4q-4 0 -11 -13zM1251 450v-3h8q4 0 14 17v2h-3q-19 -11 -19 -16zM594 481q0 -15 -2 -15q2 -4 2 -10h5v25h-5zM1295 489q0 -5 -6 -13v-17h3q0 6 9 17v13h-6zM633 494v-8q4 0 10 11v2h-5q-5 -1 -5 -5zM575 511v-22h4q0 3 10 34h-3q-3 0 -11 -12zM898 523
q0 -6 36 -15q0 -5 8 -9h48q6 0 28 14v10q-14 0 -24 -2q-31 2 -31 5l-13 -3h-24q-4 0 -4 3q-1 -3 -24 -3zM517 535v-7h6v7h-6zM537 556v-5h5v5h-5zM570 559v-33q14 9 14 22q-1 7 -14 11zM507 562v-14h3q0 7 5 14v3q-5 -3 -8 -3zM517 583v-8q5 0 14 -13v-3h6q-14 20 -14 24h-6
zM1264 594v-11h3v11h-3zM512 605v-8h3v8h-3zM448 629h5v5q-5 -2 -5 -5zM638 651v-6q25 -23 33 -62h2l3 27q-11 21 -16 35l-19 6h-3zM1259 655q0 -3 8 -8v8h-8zM512 659v-7h3v7h-3zM629 685l7 -2l2 5v2h-2q-7 -1 -7 -5zM441 707v-12h7q0 13 17 17v13h-2q-14 0 -22 -18z

<glyph glyph-name=".notdef" horiz-adv-x="2181" 
d="M1283 35v-10h4q0 2 11 19h-6q-4 0 -9 -9zM988 63v-4h9v4h-9zM1321 72v-7h4q5 0 5 7h-9zM542 65h-8q-5 -1 -5 -6h50q5 0 5 6l-3 7q-21 -7 -39 -7zM1235 96v-4h9q6 6 10 6v3h-5q-10 -5 -14 -5zM627 129h-3v-11q3 0 9 -2q15 10 24 10q0 5 -6 5q-14 -2 -24 -2zM1455 139v-8
h10v5q-5 0 -10 3zM1418 153q0 -12 -5 -17l-5 3q-6 0 -10 -10v-6h2v8h3q8 0 8 -13h2q14 23 22 23v12h-17zM1505 160v-7h5v7h-5zM1354 160v-5h5q5 0 5 5h-10zM679 129v-3q41 5 46 10h8q0 -13 5 -13h8v6q-8 17 -8 21v10h-5q-49 -31 -54 -31zM1393 165v-2h5v2h-5zM1388 188
q94 -42 105 -52h5v10q-19 24 -19 29l-10 -7q-12 17 -27 25q-2 0 -2 -3q-10 3 -12 3l-12 -3q-12 3 -23 3q-5 -1 -5 -5zM1330 193v-3q4 -11 13 -17q6 0 13 2q5 -2 8 -2v2q0 4 -29 18h-5zM1332 212l3 -5q3 0 3 2l16 -2h67v5q-9 16 -45 24h-5zM1215 414v-2h8v2h-8zM1229 417h6
q4 0 9 10v3h-4q-4 0 -11 -13zM1251 450v-3h8q4 0 14 17v2h-3q-19 -11 -19 -16zM594 481q0 -15 -2 -15q2 -4 2 -10h5v25h-5zM1295 489q0 -5 -6 -13v-17h3q0 6 9 17v13h-6zM633 494v-8q4 0 10 11v2h-5q-5 -1 -5 -5zM575 511v-22h4q0 3 10 34h-3q-3 0 -11 -12zM898 523
q0 -6 36 -15q0 -5 8 -9h48q6 0 28 14v10q-14 0 -24 -2q-31 2 -31 5l-13 -3h-24q-4 0 -4 3q-1 -3 -24 -3zM517 535v-7h6v7h-6zM537 556v-5h5v5h-5zM570 559v-33q14 9 14 22q-1 7 -14 11zM507 562v-14h3q0 7 5 14v3q-5 -3 -8 -3zM517 583v-8q5 0 14 -13v-3h6q-14 20 -14 24h-6
zM1264 594v-11h3v11h-3zM512 605v-8h3v8h-3zM448 629h5v5q-5 -2 -5 -5zM638 651v-6q25 -23 33 -62h2l3 27q-11 21 -16 35l-19 6h-3zM1259 655q0 -3 8 -8v8h-8zM512 659v-7h3v7h-3zM629 685l7 -2l2 5v2h-2q-7 -1 -7 -5zM441 707v-12h7q0 13 17 17v13h-2q-14 0 -22 -18z
M526 735q5 -7 5 -10h9q-4 10 -9 10h-5zM638 740q0 -15 -14 -26q-12 0 -30 -12h-2q-6 0 -6 10l-13 -8q-13 0 -28 17h-3q0 -10 -5 -17v-9q0 -3 17 -10q1 5 5 5h6l8 -5h8q13 10 48 19l14 23v13h-5zM505 754v-7q2 0 15 -12h3v7q-12 0 -13 12h-5zM666 761v-7h2v7h-2zM666 811v-14
q15 -16 15 -50q-14 -36 -38 -52v-5h5q17 19 23 19q18 28 23 60q-14 42 -23 42h-5zM646 818v-10h2v10h-2zM821 862v-3h7v3h-7zM579 862q4 -11 7 -11v11h-7zM1137 867v-8q5 -13 17 -13h7v3q-14 0 -19 18h-5zM599 867q0 -3 9 -8h3v3q0 5 -6 5h-6zM554 867q2 -5 2 -11h5l-2 14z
M1081 859h8q0 5 20 14l3 5h-5q-11 -3 -26 -19zM573 880q0 -5 6 -5h2v5h-8zM1175 885v-2h5v2h-5zM1123 885q0 -5 -9 -5v-2h9q5 5 29 5v2h-29zM599 885v-2h6v2h-6zM551 889v-9h3v9h-3zM523 903v-23q8 -7 8 -13l6 3q-8 19 -8 24v9h-6zM492 894v-9q0 -4 13 -10h5v28h-3
q-9 -9 -15 -9zM663 917v-9h8v2q0 7 -5 7h-3zM728 937v-5h5v5h-5zM512 940v-8h3v8h-3zM512 951v-5h3v5h-3zM586 971q2 -6 6 -6v6h-6zM816 984v-5h14q0 5 -6 5h-8zM862 986l-5 -7h11q5 0 5 5q-6 0 -11 2zM492 986q0 -10 -10 -10v-2h14v12h-4zM589 989v-5h3v5h-3zM460 989v-5h5
v5h-5zM773 997v-6h8q0 6 -5 6h-3zM484 1003q2 -6 5 -6v6h-5zM906 1010v-5h2v5h-2zM416 1033v-33l4 -26h7v17l-5 9v8q0 2 3 2q-5 14 -5 23h-4zM945 1036v-5h5v5h-5zM594 1036v-5h3v5h-3zM1366 1041v-5h3v5h-3zM830 1041v-8l5 -2v2q-2 5 -2 8h-3zM573 1043h6v5q-6 -1 -6 -5z
M824 1057v-14h6l-2 14h-4zM753 1057v-2q4 -33 25 -33q9 -5 15 -5v2q-30 38 -40 38zM958 1060v-12h2q0 9 14 22l-5 2q-8 -12 -11 -12zM920 1088q0 -14 -24 -26v-7h10q10 9 20 30zM1060 1098v-3h5v3h-5zM1067 1100h9v5h-4q-5 -1 -5 -5zM643 1105v-7q3 -8 53 -36q0 -7 5 -7h5
q0 11 -25 45l-15 -2q-15 7 -23 7zM1308 1112v-7h8v7h-8zM627 1112v-9h2v9h-2zM435 1119v-19q0 -9 -3 -24l9 -14v-19h7q-7 34 -7 42l7 10q-7 24 -13 24zM608 1129l-3 -5v-12h3q5 0 5 5v7q0 5 -5 5zM766 1169v-14l7 -3l-4 17h-3zM581 1169q0 -4 -6 -12v-5q11 -23 17 -23v26
l-6 8q6 0 6 6h-11zM671 1174v-3h8v3h-8zM761 1181v-12h2v12h-2zM990 1184v-3q14 5 15 12h-6q-2 0 -9 -9zM761 1196v-10q5 3 8 3q0 7 -6 7h-2zM1034 1127q-5 2 -7 2l-17 -2v-13l3 -14h9q12 7 12 12v5l-2 5h5q0 -8 5 -8h8q46 24 46 52l24 33v2h-2q-24 -7 -24 -27
q0 -33 -60 -47zM1172 1199l5 -3v8q-5 -1 -5 -5zM689 1206q0 -2 -4 -7h9v7h-5zM512 1214v-5h11v5h-11zM969 1220v-6h5v6h-5zM751 1223l2 -14q5 0 5 5v9h-7zM990 1209h4q28 13 28 16h-9q-23 -10 -23 -16zM728 1228v-5h5q0 5 -5 5zM537 1228v-5h3v5h-3zM646 1231v-6h2v6h-2z
M1238 1233v-10q19 0 19 -14h7q0 6 17 16l-11 8h-32zM568 1233v-5h5v5h-5zM545 1243v-5h2v5h-2zM1062 1252v-5h5v5h-5zM441 1179v-8h4q6 6 32 8q2 -4 2 -10h10q8 0 12 -3q17 15 22 15v12h-3q-9 -7 -13 -7q-1 5 -15 13q13 13 15 34q8 0 8 5v14q-35 -42 -74 -73zM811 1263
q-7 -11 -20 -49v-43q0 -2 -3 -2q4 -19 18 -55v-14h15v5q-6 8 -12 45v5q0 5 2 11q0 3 -2 3q0 8 19 87h-4q-5 0 -13 7zM551 1263v-11h3v11h-3zM517 1263q0 -3 -2 -7h8v7h-6zM1175 1271v-8q5 0 5 5zM1055 1271v-5h2v5h-2zM1238 1301v-3h6v3h-6zM627 1301v-9h2v9h-2zM1229 1309
q0 -5 6 -5v5h-6zM963 1231v-6h3q19 11 63 24q0 19 36 62v4l-5 8l-20 -3q-9 3 -11 3q-33 -25 -66 -92zM833 1325l-3 -5v-9h15v4q-5 0 -12 10zM1079 1329v-11q5 0 5 5v6h-5zM1175 1332v-9h19q7 -5 29 -12h6v4q-11 0 -11 8h-17q-6 6 -26 9zM1034 1343v-6h16q0 4 -10 6h-6z
M1091 1349v-6h3v6h-3zM766 1352v-5h3v5h-3zM1067 1360v-5h9v5h-9zM730 1367q-10 -39 -10 -63v-48q8 -9 8 -18h5q5 0 5 5q-5 0 -5 6q0 17 -3 49q3 26 3 49q5 0 5 5v10q0 5 -5 5h-3zM1189 1376l-7 3q-33 -8 -33 -12q12 0 12 -5v-2q0 -3 -9 -8h-15q-9 0 -34 13h-12v-3
q28 -14 46 -15q1 -10 7 -10h8q0 11 18 12h16q49 -14 71 -40q12 -11 35 -57q3 0 3 -3l-6 -8q4 0 12 -23h5v15l-14 42l-63 87v3q4 10 4 11q-4 7 -4 9h-28q-9 -9 -12 -9zM766 1390v-5h3v5h-3zM850 1398v-5h4v5h-4zM685 1398v-5h6q0 5 -6 5zM570 1357v-5q11 -11 11 -18h5v5l-5 8
v8q0 4 8 7q13 -11 13 -28h3q2 14 55 49h11v-9h8v5q-8 0 -11 16l-32 3h-9q-29 -10 -57 -41zM1175 1400l-3 -5v-2h19v5q-2 0 -16 2zM903 1403q3 -5 3 -10h6v2q-4 5 -4 8h-5zM838 1417v-12h2v12h-2zM1103 1419v-2q15 -7 15 -12h19l10 -12v16h-10q-10 0 -34 10zM668 1422
q0 -4 11 -8q0 5 22 5v3h-33zM643 1417v-5q7 0 20 7v3h-3q-11 -5 -17 -5zM876 1424v-5h6v5h-6zM706 1419h8q8 5 14 5v3h-14q-4 0 -8 -8zM876 1437v-10q6 0 6 6zM738 1442q0 -5 13 -13q0 4 7 10q3 0 3 -2q22 2 22 8q-9 0 -14 2q-6 -5 -31 -5zM788 1445h8v5h-3q-5 -2 -5 -5z
M1034 1455v-16l6 -10v-24q1 0 12 -2v2l-6 19v9q0 5 11 12h3q5 -2 5 -6v-2l-5 -10v-5q9 -19 21 -24l3 5l-3 6q3 5 3 8q-15 34 -27 38h-23zM901 1452q0 -6 25 -19l2 -6l-11 -13v-2h3q7 9 70 27h7q16 -7 16 -20h11q0 8 8 18q-10 0 -14 13h-13q-31 8 -42 19h-3zM848 1455v-5h9
l36 21q3 0 8 -2l16 2q0 5 -5 5q-25 0 -62 -21h-2zM926 1481v-5h5q6 0 6 5v3h-3q-6 -3 -8 -3zM1672 1375q91 -38 91 -135v-6q-23 -102 -99 -228q-16 -35 -16 -55q0 -8 3 -13q7 -13 25 -13q7 0 15 2q27 20 56 57h11q17 -1 31 -39l-1 -21q0 -17 -37 -49q-29 -25 -85 -25
q-16 0 -34 2q-64 36 -64 94v31q107 174 109 270q0 41 -23 41q-12 0 -32 -13l-36 -59l-23 -9q-41 10 -41 41v2q2 105 150 125zM758 46l3 -5l5 3h40q5 0 27 -7q8 0 133 17v2q-24 0 -24 3l-27 -3h-61q-11 0 -30 3q-5 -3 -8 -3q-10 3 -20 3q-3 0 -8 -3q-80 9 -109 28l6 3l78 -10
l6 2q7 -2 9 -2q3 0 8 2l16 -2l7 2q11 -5 34 -5h16q6 0 12 3l5 -3q25 3 30 5q11 -2 57 -5q21 5 40 5h39q98 0 204 34q27 18 60 28h19q0 4 13 17l-30 21q-25 0 -97 82q-1 10 -12 21q-42 73 -42 96q0 7 -5 26v31h-5l-10 -18q0 -13 -53 -65q-10 -26 -34 -40q-29 -24 -62 -24h-30
q-56 7 -120 28q-70 33 -118 72v11q2 5 5 5q29 -29 89 -52q2 -3 48 -19q10 -7 69 -21q4 4 11 4q9 -7 16 -7h8q51 8 76 27q97 96 152 199l35 73q25 75 33 146v33q0 5 2 10q-2 3 -2 11q19 44 39 109v57l2 15q-2 5 -2 8q0 6 2 6l-2 28v20q-20 87 -44 130q-42 8 -42 12l-54 -14
q-13 -12 -38 -57q-8 0 -32 -29q-34 -26 -54 -28h-38l-9 5q-37 -73 -56 -81q-35 -24 -77 -29q-3 -3 -19 -3q-46 9 -69 22q-35 -18 -36 -26v-7q1 -6 5 -6h3q11 11 42 11q3 0 3 -3l23 5q109 -17 144 -50v-3q0 -6 -8 -6q-11 0 -86 33q-5 -3 -9 -3q-17 4 -17 8l-5 -3l-28 3
l-27 -5q-7 2 -10 2l-25 -5q0 3 -3 3q0 -8 -26 -22q0 -13 -20 -13q0 -6 -29 -12l-33 9l-9 -11v-3q37 -18 37 -34q16 0 49 -44l5 -26q0 -29 -18 -57q0 -8 -25 -26q0 -10 -48 -18v-6q4 0 9 -3q20 3 28 5q54 -10 54 -58v-14q0 -48 -52 -76q-11 -1 -11 -19q4 0 9 -7l-12 -16
q2 -14 28 -34q0 -6 5 -12v-21l33 -93q9 -42 24 -66q0 -18 15 -49q13 -43 15 -83q-2 -34 -10 -34q-12 12 -18 12q-7 -7 -12 -7q-112 13 -112 19q-6 0 -6 5l3 5q-14 5 -14 11q9 6 61 17l78 29v4q-11 44 -44 116q-13 45 -26 83v24q0 5 -36 15l-30 18h-8l1 -3l-48 18l-2 9
q-17 26 -17 40q-3 0 -53 42q-10 39 -26 56l-19 71v5q-5 16 -5 22q7 52 45 52v3q0 43 -40 69q-9 40 -23 51q-12 10 -12 35v5l20 47q-8 9 -13 43q9 124 30 174q0 2 -2 15l35 34q38 37 38 57q40 66 88 110q54 52 120 52q7 5 52 22h11q10 0 27 7q13 -7 18 -7h7q15 13 36 15
q19 17 71 25q30 -4 32 -8l48 -5q125 -31 231 -103l10 -21q71 -85 78 -126q0 -3 -2 -3l2 -13v-16q0 -11 -2 -30q0 -9 39 -32q24 -30 29 -64q0 -43 -22 -73v-13q4 -7 12 -49q-3 -38 -7 -38l4 -5v-2q0 -24 -40 -44q-21 -41 -53 -41l-6 -37l2 -20q-5 -26 -5 -31t5 -21
q-13 -22 -13 -29v-2q14 0 22 -54q3 0 3 -2v-12q-7 -29 -12 -35v-5q32 -33 36 -71q0 -56 -55 -90q-13 0 -35 -19q-10 -2 -11 -2q-14 2 -27 2q0 -7 -11 -7v-22l43 -79q70 -75 75 -75h5q45 37 63 38q0 4 8 7q26 -5 29 -5h8q0 -14 10 -14v6q-3 2 -4 5l-1 1l26 16q18 -12 18 -14
q10 3 19 3t17 -3q17 -6 17 -12l-1 -5q0 -4 -33 -5q0 -3 -3 -3q-5 3 -11 3l-10 -10q24 -4 24 -22q7 0 21 -30h5v7q0 8 -12 32l-7 10q7 3 9 3q5 -2 13 -12q10 -13 23 -43q2 -15 29 -21q5 2 7 2q0 18 -52 76v3l8 2q24 -7 53 -57l6 -19l-6 -7q0 -8 34 -10q37 -14 57 -26
q35 -19 50 -34q28 -15 55 -54q35 -32 76 -65q12 -14 12 -21q0 -9 -15 -9l-47 16q-11 5 -19 27q-10 0 -83 81q-92 74 -136 74l-22 13q0 -8 -14 -8v-20q0 -4 -9 -7q26 -54 26 -150q2 0 2 -10q-7 -19 -12 -19h-16q-2 0 -5 51v95q-6 36 -21 55h-3l-5 -17v-19q-11 -19 -31 -83
q-5 -1 -15 -39v-4l-32 -29q-8 -4 -14 -4q-7 0 -13 6v7q74 119 76 156v37l-44 -66l-13 6q-52 -122 -63 -131h-7q-5 0 -9 16q18 25 67 120q0 6 15 42h-5q-10 -4 -58 -65q-29 -31 -46 -57h-8q-5 0 -8 14q-45 -27 -58 -54q-11 0 -33 -18h-10q-4 0 -11 13v5q21 39 77 68
q46 37 61 45q14 7 17 7l60 49q0 8 9 8v5h-5q-12 -10 -21 -10q0 3 -3 3q0 -9 -78 -42q-34 -19 -77 -31q-57 -30 -107 -48q0 -9 -34 -11q-47 -15 -140 -34q-56 -14 -58 -14q-3 0 -3 2q-45 -10 -66 -11h-30q-87 0 -87 14v2q0 8 30 12q3 0 8 -3q105 5 131 13l5 -3l135 24
q52 9 96 33l5 -2q28 5 96 35h7v7h-9q-7 -7 -10 -7q-45 0 -180 -24l-5 3l-70 -19q-74 -5 -87 -5q-8 -5 -45 -12q-97 -5 -104 -5q-16 5 -16 12q9 5 16 5q67 2 74 2v3q-4 0 -18 7q-13 -2 -21 -2q-5 0 -5 2l-68 -7h-8q-52 0 -52 7l-20 -2h-2q-41 1 -41 14q0 2 2 5q3 5 3 7h-31
v-5l-116 -44l122 1q3 0 3 -2l6 2l74 5q22 -5 22 -11q0 -4 -6 -9l-13 3q0 -4 -86 -15q0 6 -6 6q-205 -6 -205 -20q0 -3 3 -4q14 -9 14 -15q0 -7 -13 -10q-41 3 -57 3h-7q-4 0 -23 12l27 25l222 76l10 2h-1l50 18q6 5 58 13q5 -3 9 -3q0 3 2 3l-13 21v3q0 5 5 5h6
q23 -23 23 -53q-3 -5 -3 -12q3 0 3 -2l6 2h3q6 0 10 -2l6 2q10 -5 21 -5h37q11 0 21 -2q12 2 22 2h18l5 -2zM835 554q12 -11 27 -11q16 0 75 8h18l39 -8q14 8 21 8h19l21 -10h2q5 0 10 2q12 -3 12 -8v-7q-37 -26 -37 -36q0 -28 -71 -31l-24 -2q-10 7 -35 10q-23 25 -72 49
l-10 13q0 4 5 23zM969 647q25 0 39 -18v-10q0 -6 -5 -6h-6q-7 0 -31 9l-6 -3q-20 3 -20 8v2q7 13 29 18zM816 917l14 -4l15 4q4 -12 9 -12q23 3 37 3v-8h-9v-6l14 4q5 -1 5 -6q-3 -7 -3 -9q0 -4 19 -21v-6q0 -4 -16 -13h-25q-4 0 -8 8l8 11v5h-14q0 -18 -34 -24h-9
q-14 0 -17 8v5l7 9v13h-7q-6 0 -6 -5q4 -6 4 -8l-9 -6q-13 5 -13 19q-24 0 -32 -11l2 -5v-3q0 -5 -10 -5q-22 10 -27 13v3q0 4 17 10q-3 5 -3 9q0 14 84 24q5 4 7 4zM1209 940h26q34 0 54 -23q0 -5 -11 -12q-15 14 -32 14h-2l-18 -2q-3 0 -3 2q-50 -6 -74 -14v-2h37
q3 0 25 -9l9 6q0 -1 6 -8l-3 -14q3 0 3 -3q14 5 23 5l2 -5v-5q0 -8 -13 -8l13 -19q0 -6 -42 -15q-2 0 -8 10l3 13v5h-5q0 -25 -42 -30q0 -3 -3 -3h-2q-23 13 -34 36q-15 0 -15 -5l4 -13l-8 -3h-18l-14 -3q0 -13 -5 -43q8 -81 19 -126q-2 -5 -2 -7l2 -14q0 -23 -49 -42
q-5 0 -5 5v9q24 14 38 34q-13 34 -25 130q0 84 85 132q39 27 84 27zM1663 802h14q46 -6 58 -62l-2 -26q-16 -53 -71 -54q-59 15 -60 74q11 60 61 68z" />
    <glyph glyph-name="uni0000" horiz-adv-x="851" 
 />
    <glyph glyph-name="uni0000" horiz-adv-x="851" 
 />
    <glyph glyph-name="nonmarkingreturn" horiz-adv-x="682" 
 />
    <glyph glyph-name="space" unicode=" " horiz-adv-x="851" 
 />
    <glyph glyph-name="space" unicode="&#xa0;" horiz-adv-x="851" 
 />
    <glyph glyph-name="exclam" unicode="!" horiz-adv-x="710" 
d="M525 61q-12 -29 -30 -60q-42 -37 -141 -56h-10q-34 2 -115 64l-11 16q-14 24 -26 72v8q0 14 16 80q21 58 67 83q31 23 63 23h3q72 0 143 -45q24 -25 34 -56q13 -36 20 -56q-9 -65 -13 -73zM369 377q-19 0 -41 23q-19 16 -39 61v12l-13 52v4l-21 60v7l1 64v17l-15 36l2 58
q-9 32 -16 63q2 16 2 33q0 65 -20 105l10 96l-22 67l6 37l4 20l-12 40v6q15 70 74 106l23 8l41 8q38 5 61 5q66 -26 97 -96q0 -16 20 -78v-11l-18 -44l11 -65q0 -20 -32 -92v-76l-11 -57l5 -76q-13 -35 -19 -70l-8 -55l4 -37v-70q-22 -93 -31 -125t-18 -36h-25z" />
    <glyph glyph-name="quotedbl" unicode="&#x22;" horiz-adv-x="914" 
d="M647 1317q42 0 101 -35l59 -34l1 -17l-13 -59q8 -42 19 -62v-4l-31 -61v-12l4 -64l-24 -56l4 -56q-30 -50 -30 -64l4 -36q0 -38 -50 -96l-32 -8q-44 0 -59 52q-24 32 -38 43l-7 21l20 24v4q0 10 -48 48l-8 16l24 56v4l-28 52l4 56l-24 68l16 52l-4 60q10 27 84 68
q28 35 56 40zM235 1309q41 0 96 -60q43 -30 52 -48v-4l-16 -56l20 -60q-7 -23 -32 -52v-20q24 -26 24 -44q-56 -40 -56 -48v-8l48 -40v-16q-52 -37 -52 -60q0 -26 -20 -68l4 -40q-15 -36 -52 -36h-8q-56 0 -104 80v4l12 44q-11 33 -40 72v20l12 40l-12 48v68l-21 63l-1 57
l-10 44q0 57 104 108z" />
    <glyph glyph-name="numbersign" unicode="#" horiz-adv-x="1467" 
d="M347 515l-1 12l-7 68l23 53q19 73 26 122l-13 68l18 57q22 38 23 60v2q0 23 -21 23.5t-31 -5.5q-20 14 -62 14q-32 0 -64 -10q-17 12 -53 71l-4 15q19 67 42 88q31 14 77 40h13q31 -7 57 -19l37 9l36 16q2 25 2 40v16q20 48 29 110q-1 8 -1 12q0 32 37 79q13 26 48 47
l10 7q9 4 17 4q48 0 69 -43q4 0 27 -63q-8 -19 -25 -74v-11q0 -21 6 -69l-12 -27l-15 -33v-1q0 -5 4 -27q21 -8 34 -8q20 0 52 27h15q26 -18 56 -18h21l53 35l38 -11q20 -17 41 -17q8 0 20 4l13 22q-3 35 -9 55q31 59 31 171q15 30 79 88l53 12q43 -15 54 -39q12 -31 12 -59
v-10l-2 -38q1 -4 1 -5q0 -20 -31 -86l-6 -63q4 -32 23 -32q4 0 16 4t21 9q29 -14 69 -14h11l32 7q14 -16 30 -32q16 -11 26 -48l3 -14q2 -9 2 -17q0 -35 -39 -78q0 -6 -55 -57q-12 6 -52 16q-17 -3 -56 -24h-12q-19 6 -32 6q-11 0 -20 -5q-18 -39 -18 -73q0 -9 1 -18l-3 -57
l-21 -55q-18 -72 -24 -122l17 -68l-18 -57q-8 -25 -8 -57v-5l2 -24l16 -6l34 -12q40 13 58 13h1l35 -6q23 -4 46 -31q17 -21 22 -85l-8 -17q-51 -59 -73 -71q-18 6 -36 6q-11 0 -22 -3q-16 -8 -33 -8q-7 0 -24 3t-31 6l-4 1q-17 0 -18 -26q-1 -12 -1 -22q0 -9 1 -15
q-20 -48 -27 -112q2 -9 2 -13q0 -30 -36 -77q-14 -26 -48 -49l-11 -6q-10 -4 -20 -4q-57 0 -80 41q-4 0 -30 60q9 21 22 72l1 9q0 24 -7 57l14 62l-14 18l-49 -2l-67 17l-75 -19q-4 -1 -9 -1q-20 0 -54 14q-77 -10 -77 -37q0 -2 1.5 -15.5t2.5 -20.5q-32 -61 -33 -171
q-16 -29 -73 -90l-12 -7q-88 17 -97 42q-11 28 -11 56q0 6 1 14l3 36q-1 4 -1 5q0 20 32 86l7 60q0 24 -22 24q-9 0 -21 -4q-39 23 -57 26q-41 -8 -54 -13q-40 47 -40 54q-23 33 -23 58q0 16 8 34l6 14q20 40 39 51l42 15l42 8q38 0 67 12q14 -8 37 -16q5 -1 10 -1
q19 0 27.5 25.5t8.5 64.5zM612 986q-8 -24 -14 -37q-13 -35 -17 -52l2 -71l-1 -41q-7 -28 -22 -60l-16 -58l-5 -93l-29 -122l-3 -40q20 -7 26 -7q15 0 56 13l15 -1l32 -22q13 -1 22 -1q23 0 55 6l32 15l37 -24q10 -6 24 -6q8 0 18 2l22 19q1 11 10 34q11 31 16 50l-4 71v40
q8 28 22 61l16 59l2 93l30 132l-14 11q-21 15 -34 17l-44 -19l-24 -8q-14 5 -32 21l-37 15l-57 -16l-71 19h-13z" />
    <glyph glyph-name="dollar" unicode="$" horiz-adv-x="1401" 
d="M784 548l-15 -4l-1 -96l2 -24l-15 -74l9 -109l-3 -86l14 -13l63 -9l70 30q40 42 42 77l24 47q0 14 -23 75l1 19l-10 46l-28 32l-39 26q-36 49 -91 63zM580 1150l-35 10q-24 0 -49 -47q-69 -12 -69 -50v-2l-3 -10q-27 -17 -38 -56l7 -46l26 -23l4 -12l-1 -34l53 -24l7 -4
l18 -39l62 -20q21 26 21 50v2q10 45 10 81q-1 28 -6 47q-2 25 -8 46l11 76zM757 1323l9 -8l54 -5l20 -6l45 -23l44 -18h11q38 0 57 19q30 20 42 20h6q95 -36 95 -116l-3 -65q6 -30 21 -57l-1 -13l-8 -49l12 -59q-15 -109 -52 -109h-2q-14 1 -89 78l-10 22l-12 71
q-43 67 -67 67l-30 13q-7 7 -30 48l-11 6l-40 13l-53 -3l-8 -15q0 -71 11 -122q-15 -64 -15 -108q1 -31 5 -62q-3 -39 -3 -59v-23t38 -26q12 0 107 -48l126 -23q33 -43 52 -75l51 -19l8 -9q10 -48 17 -70q12 -29 33 -54l-2 -44l18 -64l-27 -188q-44 -100 -106 -146l-65 -21
q-46 -23 -79 -37l-62 -16l-46 -3l-53 -10l-10 -13q-6 -38 -14 -71q-10 -40 -49 -80l-13 -6q-52 16 -70 47q-20 51 -20 109l-2 25l-10 15q-39 29 -77 34l-52 7q-65 41 -85 42h-5q-18 0 -36 -7q-8 0 -34 -31q-16 -22 -37 -33l-19 1q-53 24 -81 54l-14 33l19 63l-2 12l-24 40
v24l18 46l-1 14l-17 38l6 42l-10 67l3 19l14 47l9 20q18 33 26 33h1l11 -1q34 -33 69 -76l29 -46q16 -61 65 -86l8 -10q9 -29 30 -76q4 -8 43 -36l34 -4l13 -8l40 -21l51 1l9 11q0 34 -1 89q12 61 12 90v8q-8 54 -16 103l16 89l-16 86l-28 16l-13 3l-43 9l-9 3
q-26 26 -44 29l-25 5l-50 15q-8 15 -48 71q-32 37 -64 69l-8 75q-12 38 -12 85q0 10 1 20l1 14q17 125 86 171l39 52l9 6l72 15l48 29l72 8q9 7 13 17q-2 29 -6 45q0 24 16 97t68 106q15 8 28 9q27 0 53 -41l26 -105z" />
    <glyph glyph-name="percent" unicode="%" horiz-adv-x="1512" 
d="M1168 1518h8q90 -49 90 -102q-14 -70 -68 -132q-18 -46 -52 -84q-21 -20 -32 -68q-15 -6 -36 -96q-13 -1 -39.5 -36.5t-46.5 -63.5l-20 -56q-55 -65 -66 -100l-4 -4q-24 -21 -36 -60l-4 4h-4l-16 -20l-20 -48q-29 -44 -36 -44l-10 -20l-8 -37l-14 -31q-21 0 -52 -88
l-14 -66v6q-9 -15 -46 -52q-36 -48 -36 -68l-20 -40q-8 -22 -36 -44q-26 -28 -52 -92l-26 -52q-10 -7 -34 -64l-91 -77h-12q-33 7 -71 35q-2 16 -12 16q4 69 20 104l4 -4q24 57 44 80l44 52q0 12 40 56l12 24l-4 24q0 27 56 60q40 48 44 80l-4 32q20 24 56 56q44 43 44 80
l2 18q10 24 58 66q48 53 48 72l-2 40l10 16q88 98 88 128l12 32q1 23 40 44q36 60 36 92l26 40q18 52 40 100q26 35 26 48q30 55 44 88l4 4l9 45q14 17 43 51q36 56 76 56zM526 1414q49 -24 108 -24q14 -16 32 -16h8l68 -76q32 -76 52 -84l4 -42l-8 -42q7 -19 7 -38
q0 -47 -40 -99q-23 -38 -48 -97q-1 -35 -51 -50l-56 -72q-50 -16 -64 -52l-64 -36l-56 -20q-55 0 -92 -32h-12q-25 0 -76 48q-80 0 -80 72q-8 0 -8 20q-25 0 -40 60q-19 20 -28 52l12 60l-8 56q0 19 68 124l24 76q0 11 64 56q12 31 92 72q51 64 116 64q54 20 76 20z
M482 1237l-30 -5q-29 0 -60 -16q-40 -34 -62 -48v-2q0 -10 -20 -42l-42 -24v-2q-8 -22 -21 -60l1 -21q-8 -30 -8 -52l-8 -39q0 -72 118 -120h57l81 39q24 0 78 58q20 17 20 35v7l24 59q15 9 25 69l8 24v42l-9 30l-33 34l-31 21v3q-28 21 -46 21q-8 0 -19 -4l-29 -3z
M1260 738q-2 2 -2 3q2 0 94 -67q19 -17 52 -72l36 -36l2 -55l6 -65q-40 -60 -40 -72q0 -17 -48 -124q-33 -45 -96 -88q-14 -72 -68 -72q-16 0 -61 -45l-29 -1l-42 6l-53 -15l-36 2v1q0 6 -10 6t-29 -6q-24 18 -41 19l-14 15l-45 14q-40 59 -60 128l8 36q-9 28 -16 28
q8 39 8 72l8 36v12h8v4l-4 36q9 28 51 74q15 23 49 54l-4 4l17 33l67 51q33 33 72 64q13 0 80 36h12l41 -3q17 -3 30 -4.5t57 -8.5zM1115 587l-48 -22q-14 0 -29 -47q-8 -13 -35 -25q-11 -6 -14 -6v1l-4 -10q-12 -24 -48 -65v-4l-15 -39q-3 0 -25 -26l10 -74q-2 -9 -2 -16
q0 -40 41 -40q36 -37 65 -37h18q18 0 66 15l21 10l18 12q19 10 78 61l13 26q40 78 42 121l12 42q5 12 5 23q0 13 -5 26l5 17l-39 41q-34 36 -65 36l-62 -20h-3z" />
    <glyph glyph-name="ampersand" unicode="&#x26;" horiz-adv-x="1387" 
d="M590 1153q-6 -13 -54 -52q0 -18 -31 -55l5 -27l9 -45v-5q0 -32 34 -59l9 -22l12 -18l1 -17l37 11l19 16q50 31 105 63q9 9 16 53l6 46l-10 63q-13 10 -27 50q-45 4 -76 18l-13 4zM570 1278l38 11q12 9 53 12q65 -19 95 -19h10q10 0 22 -41q22 -24 62 -37q15 -76 52 -150
l5 -33q-3 -41 -10 -41l5 -4q0 -59 -25 -91q0 -18 -10 -18l-12 -6v-32l-99 -59q-11 0 -24 -27q-72 -31 -96 -84l15 -45l14 -33l23 -47q29 -24 34 -48l62 -42l19 11q13 14 16 35l22 19l-5 18q47 48 47 96q28 38 91 65l64 33l60 4l63 -78q35 -24 35 -57q0 -7 -2 -15
q7 -18 7 -29q0 -18 -18 -18l-51 -14l-72 14l-61 -18q-16 -109 -35 -120q-23 -20 -62 -93q0 -37 42 -63l62 -64l11 1h24q30 0 87 62l83 30l116 -54l-32 -92q0 -19 -46 -79q-24 -31 -24 -50q-30 -8 -57 -30l-42 -20l-48 -14h-5q-41 0 -85 39q-86 26 -123 79l-57 48l-42 -37
q-53 -44 -67 -44q-58 -13 -104 -46l-71 -9l-19 5l-75 -9q-33 10 -64 12l-20 29q-69 0 -101 45q-74 28 -106 88v23l5 18l-38 87l-10 39l-1 144q-2 3 -3 5v4l23 40l9 69v5q0 14 52 49l60 46l19 24q26 11 26 20v2l43 -4q23 41 70 45l43 37q-22 26 -22 54v4q0 14 -32 77l-20 85
l2 35v13q18 2 27 47l2 44q21 40 78 88q62 35 98 54zM260 413q10 -73 10 -94q0 -14 -13 -31v-5q24 -22 45 -136q92 -18 107 -37l50 19l49 -15q43 10 119 88q22 29 22 44v23q0 27 -66 106q0 14 -32 41l-43 122l-41 37l-22 -4h-31l-5 4l-43 -7q-11 -30 -64 -70q-22 -33 -22 -50
q-6 -24 -20 -35z" />
    <glyph glyph-name="quotesingle" unicode="'" horiz-adv-x="486" 
d="M234 1329q41 0 96 -60q33 -30 42 -48v-4l-6 -56l20 -60q-7 -23 -32 -52v-20q14 -26 14 -44q-46 -40 -46 -48v-8l28 -40v-16q-32 -37 -32 -60q0 -26 -20 -68l4 -40q-15 -36 -52 -36h-8q-56 0 -104 80v4l12 44q-11 33 -40 72v20l12 40l-12 48v68l-21 63l-1 57l-10 44
q0 57 104 108z" />
    <glyph glyph-name="parenleft" unicode="(" horiz-adv-x="720" 
d="M622 1595h12q63 -6 63 -66q0 -7 -1 -13l-60 -79l-8 -19q0 -6 -20 -45l-44 -19q-40 0 -68 -76q-64 -21 -64 -79l-57 -53v-59l-3 -24q-51 -30 -56 -56l28 -109q0 -13 -52 -42l-12 -34q19 -37 32 -124q2 0 2 -7q0 -13 -8 -50l29 -57l-13 -77l41 -52l5 -74l59 -51v-14
q0 -71 48 -105l36 -38v-38q0 -37 37 -61q13 -86 60 -109q22 -30 32 -83l11 -26v-3q0 -41 -93 -41q-55 38 -92 38l-4 19l8 37q0 10 -83 73l-24 83q-30 32 -62 66q-31 42 -47 148q-31 60 -40 101q-28 18 -28 46l4 15q-28 43 -40 87l4 67l-28 244l32 99q0 86 40 113q9 0 20 106
q100 86 100 94v27q15 76 52 105l24 42q31 15 48 52q8 14 80 57q60 64 100 64z" />
    <glyph glyph-name="parenright" unicode=")" horiz-adv-x="747" 
d="M102 1592h16q37 0 96 -52q37 -17 68 -78q16 -15 48 -26q16 -19 24 -53q25 -22 76 -96q13 0 24 -64q55 -47 84 -134l-8 -37q0 -46 56 -112l-20 -45q8 0 24 -41l-4 -11l12 -41l-16 -44q16 -32 44 -60v-15q-32 -30 -32 -41l8 -78l-12 -34l4 -26q-2 -16 -36 -26l-12 -15
l12 -44v-4l-27 -53l-33 -25q-17 0 -40 -120l-36 -37l4 -22q0 -14 -48 -19l-8 -11l4 -37q-6 0 -24 -34l8 -15q0 -7 -44 -41q0 -40 -48 -74l-16 -45q-15 -14 -56 -22q-26 -45 -48 -45h-65l-27 30q-12 22 -12 44q0 41 44 82q24 78 44 115q55 8 104 105q0 34 44 67
q80 107 80 127q22 127 40 127q24 32 24 56v3l-12 45v7l16 53v3l-8 60l16 45v52l-20 82l4 67v11q0 15 -48 67q-40 86 -40 123q-68 48 -68 101q0 52 -84 59q-31 25 -56 93q0 20 -48 45q-24 18 -24 37v5q0 66 52 66z" />
    <glyph glyph-name="asterisk" unicode="*" horiz-adv-x="964" 
d="M455 736l-3 28l-25 -5q-39 -45 -67 -64q-19 -16 -38 -27l-20 -8q-13 -5 -23 -36q-27 -33 -68 -40h-56l-34 9v17q0 32 -13 51l-5 15l7 19l1 19q10 68 115 91l34 9l39 5l85 31v9q0 21 -111 25l-42 19l-59 2l-33 14q-45 41 -50 85l-4 43q0 50 35 62l31 4l34 -3
q87 -26 108 -57q15 -31 50 -45q12 -11 28 -32l58 -59l13 26l-17 74l6 19q-18 15 -18 22q-28 34 -29 72v7q0 38 11 83q26 40 40.5 47t26.5 13.5t34 11.5l31 -26l23 -42q12 -39 12 -67q0 -9 -1 -12l-10 -7l6 -28l-22 -25q3 -21 19 -41l-27 -110q11 -7 17 -7q30 0 106 109
q15 6 41 25q28 37 66 49l52 3h2q35 0 38 -44q9 -26 9 -49q0 -22 -8 -45q0 -15 -18 -33l-15 -9q-21 -22 -24.5 -33t-70.5 -22l-33 -22l-85 -3q-19 -8 -19 -20q0 -10 15 -17l42 -11l64 -5q22 -3 47 -3q13 0 23 1q24 -14 48 -32l15 -7q21 -13 30 -31l8 -35l3 -11q0 -66 -49 -89
l-36 -12l-40 5l-86 37q-15 6 -44 43q-26 14 -33 39q-26 31 -62 66l2 -50l14 -45l-8 -32q19 -34 26 -57l3 -27l-7 -37l-19 -57l-28 -17v-16q-22 -9 -43 -9q-5 0 -12 1q-32 0 -49 39q-21 15 -24 87l15 48l12 20l5 31z" />
    <glyph glyph-name="plus" unicode="+" horiz-adv-x="992" 
d="M451 1164h22q118 0 139 -71l11 -33l-14 -50v-57q-9 -13 -18 -111q0 -63 82 -71l25 -4h21q15 0 79 25h14q47 -14 118 -21q68 -51 68 -82v-8q0 -26 -82 -89h-11l-61 7q-68 -3 -114 -14h-61l-46 14q-32 -15 -32 -36l10 -64l-7 -53l4 -47l-4 -61l7 -39q0 -50 -75 -72
q0 -7 -43 -21q-29 11 -39 29l-28 89v18q14 48 17 118l4 3l-25 111l-18 11h-3q-10 -9 -43 -11l-97 11q-35 -18 -118 -18h-7q-95 0 -132 97v3q0 37 82 111l22 4l53 -11l32 7h4l54 -11l25 7h25q43 -28 67 -28q42 0 58 46v4q-33 154 -33 196v15l4 3l-4 4v3l4 18l-4 11
q0 95 68 118z" />
    <glyph glyph-name="comma" unicode="," horiz-adv-x="601" 
d="M281 390h15l26 -19h6l38 13q38 -19 38 -44q21 -22 40 -22l13 -13l-3 -22q0 -14 41 -63v-13l-6 -37l9 -38l-9 -44v-54l-22 -50l9 -41q0 -6 -47 -60q-29 -58 -29 -91q-19 -21 -50 -25q-8 -4 -41 -40l-25 -10l-46 -14q-25 -5 -46 -5q-15 0 -28 3l-44 22l-9 19l72 116
q0 31 41 76l9 37v19q0 8 -53 41l-63 79q-19 29 -19 57v6q0 37 69 119q11 0 25 26l-3 18q0 19 22 19l4 -3l3 3l22 -3h6q15 5 35 38z" />
    <glyph glyph-name="hyphen" unicode="-" horiz-adv-x="1223" 
d="M869 810h4l48 -22l20 4h20l44 -6h12q31 14 44 14h4q26 -14 72 -72v-8q0 -128 -64 -128q-43 -7 -92 -26h-8l-76 24q-63 -8 -128 -28l-72 28h-52q-15 0 -68 -30h-4l-68 18l-100 6q-21 -18 -48 -18l-68 4l-32 -2q-51 16 -100 22l-48 28l-12 24l36 102l108 50h8
q61 -24 120 -24q17 0 84 26h16q56 -26 68 -26h24q39 0 96 30h4l64 -24q91 0 124 32z" />
    <glyph glyph-name="hyphen" unicode="&#xad;" horiz-adv-x="1223" 
d="M869 810h4l48 -22l20 4h20l44 -6h12q31 14 44 14h4q26 -14 72 -72v-8q0 -128 -64 -128q-43 -7 -92 -26h-8l-76 24q-63 -8 -128 -28l-72 28h-52q-15 0 -68 -30h-4l-68 18l-100 6q-21 -18 -48 -18l-68 4l-32 -2q-51 16 -100 22l-48 28l-12 24l36 102l108 50h8
q61 -24 120 -24q17 0 84 26h16q56 -26 68 -26h24q39 0 96 30h4l64 -24q91 0 124 32z" />
    <glyph glyph-name="period" unicode="." horiz-adv-x="601" 
d="M340 370q9 0 44 -20h5l18 3q28 0 55 -88q18 -48 44 -73v-2l-12 -41v-3l12 -44q0 -8 -47 -49q-29 -40 -29 -58q0 -27 -14 -32h-3q-8 0 -29 14l-15 3l-29 -3l-32 3l-53 -32q-7 0 -46 38l-12 3l-12 -3q-18 3 -37 55q-33 15 -33 44l3 9q-20 35 -20 49q0 12 47 99q16 67 52 67
l67 46q42 0 76 15z" />
    <glyph glyph-name="slash" unicode="/" horiz-adv-x="1033" 
d="M1002 1566h12q40 0 40 -108q10 -1 24 -52q0 -26 -76 -76q-12 -25 -20 -112l-80 -72l-36 -60q-10 -53 -28 -72l-28 -24l4 -20v-20q-9 -20 -48 -40q0 -32 -44 -92l-4 -20l4 -16q0 -15 -52 -56l-72 -92l12 -48l-60 -56q0 -24 -60 -76l8 -32v-12l-108 -100l-8 -16l20 -48
q0 -11 -64 -56q-36 -66 -44 -136q-62 -53 -108 -180q-31 -27 -116 -64h-16q-40 44 -40 84q0 52 44 116v8l-4 28q0 8 68 72l44 68l4 12l-4 4v24q74 71 104 184q79 61 104 148q0 11 72 140q20 75 68 108q39 79 60 148q50 31 80 136q0 19 56 80l44 96q11 33 44 84q0 51 52 96
q11 56 88 108q30 0 64 12z" />
    <glyph glyph-name="zero" unicode="0" horiz-adv-x="1265" 
d="M711 1415l73 -55q23 0 23 -8l4 4q46 0 104 -92q99 -79 99 -119l34 -96q44 -73 44 -88l-5 -30q0 -23 35 -72v-41q0 -37 17 -89l-9 -42l5 -76q-17 -55 -39 -273q-31 -40 -44 -135q-30 -63 -73 -118q-11 -31 -69 -76q-24 -44 -112 -83q-16 -26 -40 -26l-142 30l-18 3
l-64 -24h-9q-46 54 -56 54q0 9 -34 9q-22 20 -40 71q-17 10 -64 75q-70 33 -70 118q-15 0 -21 102q-11 0 -17 79l-44 56l9 50q-26 42 -26 68l13 63l-9 46l22 139q26 0 52 184q34 73 43 131q81 79 126 139q5 13 34 13q57 63 121 63q0 11 91 16zM615 1160q-26 3 -26 9
q-45 0 -45 -77q-71 -39 -85 -81l-8 -33l8 -36q0 -16 -64 -69l-3 -21l3 -36q-16 -29 -16 -61v-48l9 -82l-13 -44l17 -65v-16l-9 -37q0 -43 80 -106l5 -15l-5 -52q57 -75 105 -90q19 -61 47 -61q32 -3 85 -28q21 0 53 32l-4 4v5q1 14 60 39q0 57 37 82q17 0 42 36v29
q25 0 25 73l21 76l-5 21v8l13 69l-8 53q13 28 13 56q-18 39 -18 66l13 56l-41 73q0 117 -76 133q-16 19 -16 33l7 32v12q0 56 -143 94h-9z" />
    <glyph glyph-name="one" unicode="1" horiz-adv-x="752" 
d="M396 1350q29 15 53 15q23 0 41 -16q33 -33 35 -66q13 -17 27 -90l-16 -79l20 -68l-14 -51v-116l14 -100l-3 -33l-25 -166l18 -62l8 -39l-25 -109q10 -78 25 -123l13 -61l-25 -54v-8l21 -58l-17 -53v-37q0 -49 -31 -56l-91 -19h-25q-27 0 -71 140l4 45l-16 90l24 33v25
l-23 76l23 141l-27 60q26 48 36 167q0 10 -34 110v20l25 107l-18 69q8 47 8 64q0 11 -3 11l-21 4l-149 -69h-5q-91 2 -91 67q0 73 106 139l51 61l61 14l27 34l37 30l26 5z" />
    <glyph glyph-name="two" unicode="2" horiz-adv-x="1247" 
d="M646 1404q40 -24 124 -24q27 -24 100 -44q37 -40 100 -68q33 -29 44 -100l56 -92q24 -17 28 -136l4 -12l-20 -56l16 -52q0 -11 -40 -52q-52 -74 -52 -92q0 -36 -20 -48h-20l-12 12q-30 -11 -32 -20v-24q0 -52 -72 -52q-40 -61 -52 -64l-40 12h-12q-8 0 -20 -44
q-17 -16 -32 -16l-48 12q-20 -16 -32 -44q-28 -24 -64 -24l-4 4h-4q-24 -8 -24 -20l8 -36l-20 -16l-52 16l-24 -72q-20 -16 -20 -32h-4q0 -24 52 -44q32 5 32 20h12l8 -8l-4 -4q41 -24 52 -24l52 32l56 -12l36 48h16l44 -32l28 8q43 -8 52 -16h16l52 16l52 -12l32 12h20
q76 -80 96 -144q10 0 20 -40q0 -13 -60 -36q-20 -48 -48 -48l-32 16h-80l-16 4l-68 -36h-4l-52 28l-20 -4l-148 20l-72 -28h-4l-64 40l-16 4h-8l-16 -4l-16 4h-8l-52 -44l-96 36h-36q-36 0 -64 164q18 152 44 164q0 24 80 112q0 45 68 60q33 55 52 68q41 0 60 32l-4 20v20
l24 24l56 -8q54 48 72 48q37 0 92 48q30 0 76 56q52 16 52 28q7 27 36 72l4 16l-8 24v12l40 44v12q-3 11 -64 52l-4 12l4 36q-14 68 -68 68q-20 0 -76 32h-8v4l4 4v4h-68q-47 -44 -60 -44v-4l-20 4h-20l-40 -48l-16 -8h-12l-40 16l-12 -20l4 -36l-52 -64v-16l-4 -6l-8 -2
q-11 -16 -18 -39l-4 -21l-6 -16q-13 -40 -36 -40q-24 0 -56 88q-20 22 -28 84q0 131 52 164q80 69 80 128l28 20l44 -8l36 12h28l4 -4q10 0 68 44l64 -4q36 23 56 24z" />
    <glyph glyph-name="three" unicode="3" horiz-adv-x="1106" 
d="M532 1406h8q11 0 65 -35q67 0 126 -55q40 0 85 -55l45 -63q0 -19 45 -109q-3 -51 -8 -51l8 -67q-37 -49 -37 -70v-4l4 -16q0 -14 -45 -66q0 -13 -52 -67v-4q44 -37 44 -51l18 -21l10 -27q29 -22 70 -89q12 -15 12 -27l-8 -32q0 -12 45 -74q17 -129 28 -137v-32
q-61 -143 -61 -184q-112 -110 -118 -141q0 -12 -154 -43q-32 -26 -61 -31v4q-21 -1 -81 -39l-17 -4q-79 19 -105 19q-19 0 -98 -35q-63 35 -117 35q-22 18 -94 39q-69 49 -69 59v8q0 14 49 74q16 35 16 40q0 2 3 2q4 0 14 -3q17 -7 83 -7q0 -14 121 -28l17 -4l61 20l65 -20
l52 4v-4q63 40 78 40q34 0 69 62q40 8 109 86l-4 28v16l25 62v4l-17 59q13 20 13 39l-45 51v4l-32 100q-21 28 -57 45q-58 35 -94 35l-4 -4h-4l-49 6q-1 -1 -2 -1q-5 0 -12 38l-24 67v4q0 24 65 47q51 39 101 39l4 4l25 39l48 24q18 15 25 43q0 11 -16 11l4 20v4q0 8 -13 8
l-4 4v7q13 15 13 28v4l-41 47v4l12 43q-17 19 -77 39q0 12 -16 12q0 10 -37 19l-65 -39l-16 -4h-8l-45 47l-20 4q-20 -12 -53 -12h-29l-56 -51h-45q-18 0 -57 -35h-4q-11 0 -16 63q-37 35 -37 59q0 76 167 129q59 39 101 39h12l94 -8z" />
    <glyph glyph-name="four" unicode="4" horiz-adv-x="1158" 
d="M736 1398q51 0 64 -76q16 -33 16 -60l-8 -76l16 -48l-4 -28l12 -76l-16 -72l16 -56l-8 -64l16 -60l-16 -52l16 -64l-8 -44l12 -60l-8 -48q16 -80 36 -80l4 -4v-4l24 8l48 -4q18 0 44 28h24q20 -28 44 -28l44 4q24 -24 24 -32l-12 -56l8 -44q-8 -18 -16 -20h-44l-56 -36
l-28 4l-56 -12h-12l-12 8h-16l4 -4v-4q-12 0 -40 -76q32 -50 32 -64l-16 -52l12 -52l-12 -44l4 -44v-16q0 -54 -80 -60q-35 -28 -52 -28q-76 99 -76 136l8 40l-8 52l4 64l-4 80q28 31 28 48q-19 44 -96 44h-8l-80 -28q-39 32 -136 32l-52 -32h-12l-60 16l-20 -4h-8
q-62 0 -116 64v12l4 4v4l-4 4q12 52 52 140q7 0 28 56q84 51 84 100q12 0 24 72q56 50 56 84q74 86 84 160q52 51 52 84l-4 16l36 48q0 66 84 92l8 16v16q0 48 48 116q73 60 84 60zM573 895v-4l3 -22q0 -9 -35 -49q-56 -139 -69 -147q-60 -54 -77 -91l17 -48l-41 -34
q-16 -28 -18 -72h7q9 -22 25 -22q1 9 34 26l42 -34l42 11h25l27 -7h18l17 15l56 -4l21 34l-10 53l7 45v4q-25 36 -25 60l18 60l-7 53l3 15l-10 68l17 56v8q0 13 -31 52v12q0 12 14 30v15l-11 11q-37 0 -59 -94z" />
    <glyph glyph-name="five" unicode="5" horiz-adv-x="1136" 
d="M409 1406l64 -20h56l4 -4l64 16h8l60 -24l96 4l56 20h4q44 -16 108 -20q32 -16 40 -36v-12l-24 -92l-4 -20l4 -24q-7 -18 -24 -28l-60 36l-64 -4h-28l-4 4h-4l-52 -40h-20q-43 32 -56 32l-24 -4l-60 8l-36 -28h-8l-60 32h-56q-43 -42 -44 -64l8 -48l-4 -48q20 -51 20 -84
h-4v-4l24 -8l16 4l68 -24q77 0 128 36l112 -40l48 -4h4l20 4l24 -24l-8 -8q54 -14 136 -92q28 -21 48 -100q8 0 20 -76q16 -19 16 -40l-4 -56l12 -60q-65 -111 -76 -144l4 -4v-4q0 -47 -60 -88q-56 -44 -56 -100q0 -23 -60 -52q-32 -48 -92 -64q-58 -53 -100 -60
q-133 -88 -168 -100h-40q-57 -52 -84 -52h-16q-120 24 -120 52q-20 26 -20 40q8 27 28 82l16 9l60 15l156 60q30 0 84 48q66 16 76 40l104 96l40 68q46 16 64 60l52 60v4l-4 44q13 21 24 80v16q-17 0 -28 8l4 16v8l-56 60q0 52 -76 52q-38 40 -60 40l-40 -8q-27 12 -60 12
q-25 -24 -76 -34l-104 -24l-28 -52l-44 16l-40 -16h-28q-24 0 -44 104v12l8 92l-12 68l12 168l-12 52l8 60l-12 72q36 77 136 108h56z" />
    <glyph glyph-name="six" unicode="6" horiz-adv-x="1219" 
d="M949 1440h4q108 -41 108 -100q-24 -24 -108 -72q-17 -40 -24 -40h-8l-40 16l-36 -4l-48 4q-11 0 -68 -60h-52q-47 -43 -96 -68l-88 -72q-32 -68 -44 -136q-44 -32 -44 -44l8 -36q-15 -31 -36 -44l16 -24q48 1 96 40l28 8l4 -4q32 0 88 48h24l64 -28l20 4h12l24 -4l56 24
h4q20 -11 20 -24l6 -2h8v-4l38 -2h8q32 0 64 -64q0 -24 20 -32l44 4l12 -12v-24l-4 -4l4 -4v-8l-4 -4v-4q37 -35 56 -88q35 -35 40 -52l-8 -32l28 -52v-28q-20 -27 -20 -88l-28 -60l4 -40q-34 -122 -68 -136q-82 -62 -92 -120l-24 -16l-36 8h-12q-57 -48 -196 -48
q-30 -24 -52 -24q-36 40 -68 40q-37 0 -108 52q-29 10 -136 88q-42 78 -64 148q-22 0 -40 108q-10 0 -12 48v60l-4 24l16 68l-20 60v24l20 40l-12 68q0 10 28 44l-4 4v8l4 4l-4 4v24l20 64l-4 4v4q11 33 44 80q8 11 8 48q104 114 104 164q14 19 60 52q40 56 92 56l80 64
q23 0 108 56q34 0 120 40h8l44 -4zM369 476v-36l4 -16l-4 -16v-16l12 -40l4 -4l-8 -24q0 -29 56 -56v-12q-27 -28 -36 -28q0 -23 92 -92q52 -16 96 -52l80 -16l48 36h4q13 0 56 -28q33 0 40 44q20 24 64 24l12 16l-4 28q0 43 72 64q11 12 20 64v12q-12 152 -20 164
q-68 40 -68 76q-40 104 -92 104q-2 8 -44 12q-24 -16 -36 -16h-8q-8 0 -8 28l-12 4q-60 -28 -108 -28q-50 -52 -88 -52q-26 0 -48 -44q-68 -57 -68 -68z" />
    <glyph glyph-name="seven" unicode="7" horiz-adv-x="1107" 
d="M250 1421l86 -24q60 16 97 16l122 -4l65 8l12 -4l49 4l97 -23l146 15q122 -23 122 -78q12 0 16 -51q0 -43 -61 -110q-24 -14 -24 -39l4 -4v-4l-57 -79l-32 -55q0 -54 -49 -109q-24 -63 -24 -118q-34 -33 -37 -51l4 -43l-36 -75q-16 -26 -25 -125q-20 -29 -20 -44v-3
l12 -59q-28 -60 -28 -79l8 -35q-12 -31 -12 -59l8 -35l-25 -59l41 -63q-65 -84 -65 -121q-5 0 -20 -59l-21 -16h-8q-150 35 -150 82l-8 118l12 63q-12 25 -12 63l29 51l-5 47l21 55v51l36 137v39q0 15 29 59l8 24l-4 4v7q0 15 44 75q4 40 53 180v47q63 53 81 102
q29 23 29 51l-4 16q0 10 48 47q29 51 29 67q0 32 -69 39h-8l-82 -19l-146 19h-12q-39 -26 -61 -27q-47 21 -89 27h-28l-4 4q-56 -18 -77 -47v-4l16 -43v-4l-37 -78l25 -48q-72 -82 -86 -82h-16q-47 0 -73 137l4 67l-12 51l8 51l-4 47q0 42 81 98z" />
    <glyph glyph-name="eight" unicode="8" horiz-adv-x="1344" 
d="M771 1359q239 -90 260 -124q88 -47 88 -95q10 -9 36 -95q24 -32 24 -57l-16 -91l4 -4v-4q-57 -132 -100 -132q-25 -19 -60 -71v-16q25 -50 64 -50q59 -22 72 -62l44 -53v-46q36 -37 36 -136q5 0 8 -33l-32 -86q0 -75 -32 -87q-17 -25 -116 -99q-73 -54 -172 -83l-72 -37
l-116 4h-36l-48 -12h-16q-38 40 -112 54q-29 22 -96 37q-40 38 -116 91q-65 130 -80 144q-12 0 -20 37l4 41l-12 62q0 26 40 91q4 70 36 70q22 60 44 79q35 0 92 62l20 12h4v12q0 20 -40 46q0 17 -32 41l-36 21l-12 8l12 41l-56 62q7 46 16 54l-20 66v12l40 87q0 48 108 123
q25 0 96 66q36 0 100 38h60zM659 1177l-45 11q-102 -11 -123 -68q-64 0 -96 -116l8 -33l-24 -49v-9q67 -82 112 -82q49 -50 92 -50q26 0 56 -29q14 -12 44 -16q19 0 108 41h8q31 -20 44 -20h8l28 20l28 25l16 -4q24 31 24 78l56 58q8 53 8 87q0 35 -56 70q-27 58 -88 58
q-39 33 -112 33q-32 20 -60 20zM575 596h-40l-44 -38q-9 -9 -60 -16q-13 -8 -24 -58l-48 -29q-24 -28 -24 -90q11 -99 32 -99q13 -75 44 -75q0 -13 64 -58q23 0 100 -49l80 -17q0 11 40 21l44 -16q100 0 136 49l16 12h36l56 62q34 0 76 79v20l-16 46l4 41v17q0 49 -88 127
q0 15 -28 33h-36q-23 0 -64 50h-36l-60 21l-48 4q-31 0 -112 -37z" />
    <glyph glyph-name="nine" unicode="9" horiz-adv-x="1220" 
d="M583 1430q75 -28 144 -40q35 -23 116 -56q86 -57 164 -156q0 -46 44 -120l24 -256l-4 -16l4 -20l-4 -4l12 -52q-15 -48 -24 -148q-8 0 -8 -20l4 -44q0 -18 -40 -80q0 -63 -72 -184q0 -36 -92 -140q-56 -29 -104 -108q-20 -12 -68 -20l-68 -76h-12l-36 4q-34 -24 -72 -24
l-84 -20l-4 4l-92 -24h-4q-21 0 -36 104v8q0 68 88 68l60 48h20l24 -16q28 3 28 28q13 34 28 40h36l52 52h8l36 -4q29 0 40 60l76 40q64 55 64 80q0 17 16 32q24 26 24 40l20 84l-12 72l12 4v4l-28 4q-52 -10 -124 -76h-28q-15 12 -28 12h-8q-23 0 -40 -44l-16 -12l-68 48
q-65 0 -132 28l-84 60q-51 15 -104 80q-40 0 -40 84q-32 29 -32 84l-20 128v64q0 14 32 80l4 12l-4 16q0 28 68 92q0 15 136 136q10 11 120 24zM599 1246l-56 4q-48 -52 -68 -52q-32 0 -52 -48l-72 -60q-16 -36 -16 -64l4 -36q-28 -43 -28 -56q28 -51 28 -68l-4 -4
q0 -81 104 -132q12 -40 36 -52l32 8h12l56 -48l92 4q37 44 56 44l32 -8q19 9 36 60q73 44 80 60q29 29 52 116q0 31 -40 72v4l4 60l-68 88q-44 16 -44 60q0 19 -20 32v4l-52 -16l-60 40z" />
    <glyph glyph-name="colon" unicode=":" horiz-adv-x="656" 
d="M258 1095h12l52 -20l52 4q22 0 124 -96l20 -108q0 -36 -68 -120q-34 0 -168 -64h-8q-18 0 -72 60q-56 20 -56 48v4l4 36l-40 68q0 15 36 68q13 60 32 60q45 0 64 48zM282 439q180 -52 180 -72l60 -64l4 -20l-4 -68l8 -40q0 -42 -116 -104q0 -12 -60 -16l-4 4h-4l-16 -4
l-4 4q0 -10 -48 -16l-124 116q-24 44 -24 56q16 68 20 128l24 16l4 -4h4q25 0 48 56q27 28 52 28z" />
    <glyph glyph-name="semicolon" unicode=";" horiz-adv-x="700" 
d="M386 1031q9 0 44 -20h5l18 3q28 0 55 -88q18 -48 44 -73v-2l-12 -41v-3l12 -44q0 -8 -47 -49q-29 -40 -29 -58q0 -27 -14 -32h-3q-8 0 -29 14l-15 3l-29 -3l-32 3l-53 -32q-7 0 -46 38l-12 3l-12 -3q-18 3 -37 55q-33 15 -33 44l3 9q-20 35 -20 49q0 12 47 99
q16 67 52 67l67 46q42 0 76 15zM326 391h15l26 -19h6l38 13q38 -19 38 -44q21 -22 40 -22l13 -13l-3 -22q0 -14 41 -63v-13l-6 -37l9 -38l-9 -44v-54l-22 -50l9 -41q0 -6 -47 -60q-29 -58 -29 -91q-19 -21 -50 -25q-8 -4 -41 -40l-25 -10l-46 -14q-25 -5 -46 -5q-15 0 -28 3
l-44 22l-9 19l72 116q0 31 41 76l9 37v19q0 8 -53 41l-63 79q-19 29 -19 57v6q0 37 69 119q11 0 25 26l-3 18q0 19 22 19l4 -3l3 3l22 -3h6q15 5 35 38z" />
    <glyph glyph-name="semicolon" unicode="&#x37e;" horiz-adv-x="700" 
d="M386 1031q9 0 44 -20h5l18 3q28 0 55 -88q18 -48 44 -73v-2l-12 -41v-3l12 -44q0 -8 -47 -49q-29 -40 -29 -58q0 -27 -14 -32h-3q-8 0 -29 14l-15 3l-29 -3l-32 3l-53 -32q-7 0 -46 38l-12 3l-12 -3q-18 3 -37 55q-33 15 -33 44l3 9q-20 35 -20 49q0 12 47 99
q16 67 52 67l67 46q42 0 76 15zM326 391h15l26 -19h6l38 13q38 -19 38 -44q21 -22 40 -22l13 -13l-3 -22q0 -14 41 -63v-13l-6 -37l9 -38l-9 -44v-54l-22 -50l9 -41q0 -6 -47 -60q-29 -58 -29 -91q-19 -21 -50 -25q-8 -4 -41 -40l-25 -10l-46 -14q-25 -5 -46 -5q-15 0 -28 3
l-44 22l-9 19l72 116q0 31 41 76l9 37v19q0 8 -53 41l-63 79q-19 29 -19 57v6q0 37 69 119q11 0 25 26l-3 18q0 19 22 19l4 -3l3 3l22 -3h6q15 5 35 38z" />
    <glyph glyph-name="less" unicode="&#x3c;" horiz-adv-x="1325" 
d="M395 583l31 -19l62 -18l56 -38q30 -18 86 -31l72 -67l81 -24l101 -72l85 -18l84 -63q107 -32 113 -41q41 -39 62 -75q4 -5 4 -12q0 -37 -23 -64l-45 -37q-23 -13 -57 -13q-13 0 -26 2q-24 6 -88 35l-52 41l-106 42l-19 17l-82 54l-85 24l-77 54l-85 29l-54 45l-55 29
l-68 19l-42 39l-43 26l-80 23q-14 16 -30 40q-34 35 -82 72q-17 22 -26 32q-9 11 -9 20q0 7 3 13q17 22 81 71q40 30 82 77q61 14 92 39.5t49 52.5l94 43l22 17l72 63q90 26 125 61t80 39t101 60l69 19l47 59l102 40q49 29 80 29q7 0 25 -5t19 -7q34 -12 59 -50l5 -18
q4 -11 4 -27q0 -27 -12 -65q-13 -26 -54 -48q-44 -27 -81 -49l-101 -42q-41 -32 -80 -60q-39 -10 -68 -18q-53 -19 -82 -67q-34 -8 -107 -41q-32 -21 -61 -42q-82 -21 -126 -77q-73 -39 -73 -71v-4q0 -23 31 -43z" />
    <glyph glyph-name="equal" unicode="=" horiz-adv-x="1173" 
d="M950 989q87 -33 100 -51l24 -94v-3q0 -40 -88 -55l-36 -31h-8l-60 27h-8l-68 -8h-20l-56 -35q-10 0 -44 39l-20 4q-21 -10 -84 -20q-32 -19 -52 -19q-69 43 -112 43l-88 -35h-4q-44 39 -56 39h-8q-17 -16 -40 -16h-44q-34 -23 -48 -23q-15 0 -36 78q-12 11 -24 43
q0 40 112 90l40 7l144 -7q30 11 192 15l20 -4l52 12l72 -19q82 15 248 23zM630 735h8l8 -8l-12 -12h-4l-12 12zM234 727h8l8 -8l-16 -16l-8 8v8zM734 598h16q48 -32 72 -32h56q40 25 56 25h20q9 0 48 -39q84 -18 84 -68h-4l4 -4v-25q-9 -68 -40 -68h-4l-40 11h-4l-112 -25
q-24 -25 -44 -25h-4l-68 21l-68 8l-80 -25h-8q-49 17 -100 21q-55 -21 -72 -21h-8l-72 28l-60 4h-4q-51 -32 -68 -32q-124 31 -148 67v8q31 142 48 142h12q23 -21 44 -28q86 11 148 46h8q15 0 64 -35h4q75 0 108 28h16l60 -28h4q84 0 136 46z" />
    <glyph glyph-name="greater" unicode="&#x3e;" horiz-adv-x="1326" 
d="M933 583q31 20 31 43v4q0 32 -73 71q-44 56 -126 77q-29 21 -61 42q-73 33 -107 41q-29 48 -82 67q-29 8 -68 18q-39 28 -80 60l-101 42q-37 22 -81 49q-41 22 -54 48q-12 38 -12 65q0 16 4 27l5 18q25 38 59 50q1 2 19 7t25 5q31 0 80 -29l102 -40l47 -59l69 -19
q56 -56 101 -60t80 -39t125 -61l72 -63l22 -17l94 -43q18 -27 49 -52.5t92 -39.5q42 -47 82 -77q64 -49 81 -71q3 -6 3 -13q0 -9 -9 -20q-9 -10 -26 -32q-48 -37 -82 -72q-16 -24 -30 -40l-80 -23l-43 -26l-42 -39l-68 -19l-55 -29l-54 -45l-85 -29l-77 -54l-85 -24l-82 -54
l-19 -17l-106 -42l-52 -41q-64 -29 -88 -35q-13 -2 -26 -2q-34 0 -57 13l-45 37q-23 27 -23 64q0 7 4 12q21 36 62 75q6 9 113 41l84 63l85 18l101 72l81 24l72 67q56 13 86 31l56 38l62 18z" />
    <glyph glyph-name="question" unicode="?" horiz-adv-x="1104" 
d="M644 223q55 -39 71 -102l2 -63q-14 -55 -44 -76q-18 -20 -96 -35q-125 0 -170 86q-5 26 -22 52v11q11 71 72 129q12 13 43 23q37 3 63 3q21 0 38.5 -4t42.5 -24zM520 338q-35 23 -62 68l-14 17v9l8 48q-20 46 -20 63l24 60l-9 58l25 103l54 82l84 36l38 31l49 22
q62 28 105 77l9 49l-2 14q-14 51 -60 84q-58 40 -112 50q-22 4 -47 4q-34 0 -67 -7q-12 3 -29 3q-42 0 -85 -28q-58 -37 -77 -79l-2 -29q54 -40 54 -82q0 -61 -47 -109q-27 -28 -74 -35q-140 15 -166 90l-21 42q6 52 6 67q0 25 -6 25l-4 13q29 103 60 116q30 59 78 78l82 54
q77 6 110 37l13 2l63 -5l43 11l37 -7l32 7l9 1l16 -3l37 -12q118 -30 133 -43q22 -30 119 -68l68 -89q36 -88 36 -128q-20 -50 -24 -110q-52 -41 -90 -104l-41 -13l-45 -23q-58 -7 -93 -50q-39 -16 -48 -44v-36q-22 -25 -22 -71v-7l5 -29l-11 -31l-1 -16l5 -39l-5 -22
q-2 -60 -24 -86q-13 -20 -38 -22q-7 -1 -13 -1q-23 0 -43 7z" />
    <glyph glyph-name="at" unicode="@" horiz-adv-x="1934" 
d="M859 552l39 21l27 12l8 3l46 -11l16 4q23 11 35 17q120 8 122 54v11q0 34 -15 80q-16 45 -45 63l-61 34l-36 -8l-6 1l-53 28q-32 -14 -45 -24l-60 4l-34 -26l11 -63l-3 -51q-2 -32 -56 -84q-6 -11 -8 -21q0 -18 16 -27q8 -2 19 -2q17 -2 83 -15zM1079 451
q-26 -18 -46 -18h-8l-54 4q-32 -20 -55 -36l-5 -2l-36 1h-50q-20 -35 -94 -53l-2 -32l-26 -71l-2 -9v-7q0 -63 74 -68l39 -6l44 -18l46 19l108 4q69 31 119 36t52 42q1 21 1 37q0 24 -2 41v7q1 7 1 14q0 66 -51 83q-30 16 -53 32zM551 683l-4 77q7 27 72 154q40 13 76 38
l33 21l42 -3q35 8 75 43l31 -17l43 -3h7q37 0 53 15l31 -2q70 -4 114 -50q38 -21 73 -28q0 -3 76 -81l48 -104l-1 -12l-13 -69l32 -51l-10 -40q31 -100 36 -109q-8 -30 -11 -39l25 -82l-7 -44l-1 -36q1 -17 1 -27q0 -9 -1 -14v-7q0 -34 25 -66l43 -21l32 -14q37 0 63 40
l11 19l65 54l6 23l-4 39l-3 37l15 27q14 22 15 42v2q0 20 -25 81q5 18 16 61q2 14 3 26v16l-33 58l8 31l3 60q-41 51 -75 63q-15 76 -88 111q-20 63 -32.5 76t-57.5 26l-9 8q-76 50 -146 55h-11q-26 15 -51 24l-42 19l-73 -10l-33 11l-80 32l-36 -16l-22 -8l-60 3l-82 -24
l-38 -28l-50 -5l-33 -3q-47 -15 -88 -87q-83 -64 -88 -131v-15l-56 -75l-6 -57l-31 -34q-8 -16 -9 -35v-10q0 -27 7 -59l-27 -64l31 -101l8 -43l-15 -87l64 -82v-12q0 -72 59 -107l17 -66l57 -27l37 -62q45 -3 139 -57l71 -7l49 -37l60 11h59l86 20l26 1l65 -20l48 22l33 12
l41 3l30 10l23 13l59 3l50 5l14 1l13 -1q48 -3 50 -25q-25 -55 -69 -78q-28 -11 -81 -27l-44 -28l-53 1l-59 -19l-38 -15l-26 7l-45 1l-69 -17l-79 -9l-60 29l-81 -11q-32 12 -89 16q-17 1 -32 1l-38 25l-58 47l-23 11l-76 30q-54 42 -83 87q-18 17 -49 88l-100 93
q-20 76 -64 166l4 33l-30 55l-26 46l-2 14l24 75l8 116l32 96l16 106q48 25 53 79l51 58q51 87 76 127q37 29 111 54l39 47l79 35l40 36q29 5 71 5h12q32 -3 75 -9l99 27l48 -16l102 22l19 -1l66 -31l77 -28l101 6q81 -50 111 -63.5t77 -64.5l42 -8l48 -67q22 -36 75 -52
q24 -26 47 -93l18 -47l14 -35l7 -16l35 -38q-4 -24 -4 -32v-8q0 -49 30 -96l18 -51l-10 -33l8 -132q-18 -41 -31 -125q-33 -46 -55 -95l-2 -41q-14 -27 -89 -107q-40 -31 -81 -41l-90 10l-60 -2q-13 -4 -24 -4h-4q-12 2 -25 6q-61 31 -137 46l-43 -10l-36 5l-44 -30l-66 2
l-45 -25l-63 5q-50 -13 -68 -13q-33 16 -46 16l-49 -1l-45 8l-30 35l-40 5q-26 5 -52 27t-49 85q6 49 8 84l-12 38l22 49q-3 16 -22 49l1 4q17 19 35 43l20 28q8 46 112 117q9 9 9 19q0 29 -79.5 50t-81.5 70z" />
    <glyph glyph-name="A" unicode="A" horiz-adv-x="1260" 
d="M568 1346h12l48 -24q60 -20 84 -64q0 -21 32 -64v-16q-12 -14 -12 -40l48 -52l4 -12l-16 -60q28 -43 28 -56v-40q0 -30 64 -124v-44q0 -14 32 -76v-8l-8 -56q28 -47 36 -128l10 -72l60 -92l6 -92q45 -102 76 -102q111 -55 120 -68l20 -55q-18 -39 -41 -49l-16 -8l-70 -10
q-6 2 -49 14q-55 -20 -90 -26l-46 4l-36 -4l-68 20h-4q-42 -18 -56 -18q-70 31 -83 100v6q0 30 30 48q33 19 69 19l34 25q20 16 22 74l-6 29l10 33q-13 48 -24 70q-10 13 -20 20l-56 20q-14 -2 -51 -28h-12q-11 0 -49 16h-8q-84 -11 -108 -32l-24 -8l-31 3q-25 -47 -41 -113
q11 -92 87 -92q51 -32 89 -48q12 -4 12 -24q1 -13 1 -23q0 -58 -35 -58q-17 0 -42 13v-4q0 -22 -51 -22q-15 0 -35 2q-30 -22 -66 -28l-44 16l-28 -12l-16 -4l-71 -7q-7 0 -47 19h-12l-59 -26q-28 18 -43 66l-2 45l18 47q11 21 53 30q45 12 72 31l35 77l16 82l-4 36l44 64
v56q0 8 32 44q24 57 24 144q28 45 28 60v40q0 17 36 60v4l-12 44l-4 4v8q56 77 56 120l-4 24q3 27 48 64q12 15 12 28l-16 44q30 59 55 125l11 41q6 50 42 50zM552 874l8 -32l-20 -56v-4l16 -48v-4l-36 -32l-32 -108q0 -37 32 -60q16 8 44 8h8q36 -24 52 -24q104 0 104 52
l4 4v4l-12 40l4 28v24q-32 108 -52 137l8 39v4q-48 47 -48 56l16 44l-8 20h-20q-68 -65 -68 -92z" />
    <glyph glyph-name="B" unicode="B" horiz-adv-x="1463" 
d="M851 1346h8q44 -44 120 -44q97 -37 144 -88q76 -58 76 -144q11 0 28 -64l-4 -64l4 -56q-16 -41 -20 -124q-8 -1 -12 -28v-16q0 -31 60 -72q28 -26 28 -100q24 0 52 -180l-4 -4l4 -20v-32q0 -26 -36 -136q0 -64 -64 -96q-39 -43 -68 -100l-24 -4l-24 12q-17 0 -56 -24
l-88 -24h-4l-64 12l-44 -40h-12q-29 20 -44 20h-8l-40 -16l-44 24l-52 -24q-14 20 -40 32h-8l-48 -12l-64 4l-40 -4l-40 4l-68 -4l-48 12h-8q-30 -5 -32 -16q-44 8 -56 20h-40l-20 20v24l-16 76q0 42 52 48q25 8 60 48h4l48 -8q15 50 24 200v4l-12 64l8 52l-12 72l4 60
l-8 56q1 40 8 40l-8 84l8 40l-4 64l4 52l-12 52q3 68 8 68q0 61 -88 72q-92 54 -92 92q0 29 36 56q36 48 72 48h20l48 -12h20l76 -4q27 16 48 16l60 -12h4l32 8h48l56 12h12q72 -16 140 -16zM855 1130h-36q-40 -17 -40 -68v-28q20 0 20 -32l-28 -68l-28 -20q-40 9 -40 40
q16 32 16 52q0 18 -32 60v24l8 32l-20 8q0 -18 -40 -24h-4l-24 16h-4l-56 -20q-27 20 -40 20h-8l-16 -8l4 -48q-28 -43 -28 -56q0 -14 36 -60l4 -12l-20 -60l12 -48l-8 -40q5 -19 32 -32l32 28h16l28 -40l16 -4l48 20h12l24 -4q28 8 28 32v4l-8 44q0 28 36 28l24 -24v-4
l-4 -44q11 -31 24 -36h8q14 4 20 28l24 12q46 -32 60 -32h4q83 40 96 40l44 92l-16 52q0 20 28 56q0 30 -32 40q0 18 -56 52q-42 0 -72 40h-12zM839 542q-24 16 -44 16q-14 0 -24 -48q-10 0 -12 -16h-8q-13 0 -24 64l-16 12l-44 -16l-68 4q-16 -24 -40 -24h-4q-11 3 -40 36
q-20 0 -32 -32l20 -64q-24 -39 -24 -52l16 -52l-12 -52v-8l16 -56l-8 -60q14 -76 84 -76l44 -12h8l48 16l8 -4h8q36 23 36 48q24 28 32 28q28 0 28 -44l32 -28h8l32 36h4q14 0 40 -20l20 -4q2 16 12 16h24q23 -20 40 -20h4q8 0 48 52l20 4l28 -4q27 32 52 104l-12 36
q0 15 32 52v16q-44 41 -44 100q-57 84 -104 84l-44 -52l-16 -8q-11 0 -40 48l-20 12zM747 410h16l20 -20v-4q0 -22 -20 -32h-16q-20 12 -20 28q10 26 20 28z" />
    <glyph glyph-name="C" unicode="C" horiz-adv-x="1317" 
d="M653 1382l56 -20l52 8q100 -56 144 -56q22 24 144 40h8q64 -25 64 -68l-4 -96v-40l-24 -64l8 -48l-4 -52q24 -72 56 -128q-36 -116 -92 -116q-41 0 -116 96q-20 10 -20 32l8 40l-28 88l4 44q0 60 -92 68q-41 52 -88 52q-36 40 -64 44q-23 -7 -40 -24l16 -48l-4 -4h-12
q-20 20 -52 28q-58 0 -100 -52q-72 -45 -72 -96q0 -66 -44 -88l-20 -24v-4q20 -29 20 -44v-4q-40 -47 -40 -64l44 -44v-8q-1 -8 -40 -32l-4 -20l8 -52h-16v-4q6 -10 6 -15t-6 -5q0 -42 52 -96v-4l-16 -52l44 -56l-4 -32q24 -96 84 -96q21 -13 48 -68q16 -1 16 -8l4 4h24
q31 0 40 -36l24 -12l40 8l24 -8q39 8 56 24h24l32 -16q28 0 44 72q64 25 64 64q108 125 108 152q0 52 40 52l72 -56q40 -12 40 -40q0 -21 -16 -60l28 -52v-12q-58 -54 -76 -96q-20 -10 -20 -36l4 -44q-16 -18 -64 -28q-35 -72 -96 -72q-24 -39 -112 -60l-40 -28h-8
q-36 24 -48 24l-40 -8l-68 16l-36 -24q-18 0 -52 40h-4l-56 -4l-60 64h-36q-16 0 -44 72q-69 81 -84 88l-16 44l4 4v4l-64 168q0 28 -20 92l4 72q-20 37 -20 60l8 60l-8 36l20 72l-8 32v8l36 72q36 90 36 136q21 24 32 68l-4 4v4q2 22 60 64q4 28 44 60q29 0 92 72
q45 0 112 52h36l16 -4zM945 762l16 -12v-8l-12 -12h-16l-8 8v4zM1041 698h8l12 -12q-8 -18 -16 -20h-4l-12 12v8z" />
    <glyph glyph-name="D" unicode="D" horiz-adv-x="1403" 
d="M402 1331l64 -19l15 2l77 14l67 -20h15l66 11l51 -21l21 -6l52 12q25 0 104 -40q49 -4 76 -60q76 -23 87 -80q8 -33 41 -61q12 -62 53 -98q9 -69 31 -101l13 -33l-1 -70q4 -23 23 -73l-10 -95l6 -79q-11 -26 -31 -98l5 -55l-33 -49l-4 -70l-8 -27q-41 -35 -57 -70
l-18 -56l-10 -17l-55 -28q-19 -37 -113 -78l-67 -16q-74 -50 -96 -50q-81 36 -116 36l-72 -32l-108 32h-28l-76 -32h-18l-73 31q-60 -5 -101 -31h-12q-26 15 -48 88l-23 55v32q13 26 44 34q19 15 42 48l12 4q13 0 44 -7l35 14l38 -16q56 0 59 114l-13 98l13 71l-14 67
q11 34 11 62v8l-16 48l16 56l-11 59q9 32 15 61q0 34 -7 70v15l15 32l-7 51l23 60l-16 44v16l8 32v4q-18 32 -68 32q-30 -20 -56 -20q0 9 -48 24l-36 -4q-48 12 -48 40q30 40 48 100l24 20l54 -12l25 14l56 -1q54 14 69 14zM546 1132v-4q23 -49 23 -62l-18 -31v-8l8 -36
q-8 -20 -14 -49q3 -70 45 -70q4 -10 56 -36l20 -24q-5 -20 -12 -20h-8q-26 0 -64 32l-28 -8v-72q-12 -15 -12 -56v-96l8 -48l-8 -48q0 -72 28 -120q-13 0 -16 -44l88 -88v-4l-8 -8l-44 24h-32l-8 -16v-20l96 -44l60 -12q14 0 52 32h12q35 -24 52 -24q31 14 45 50q35 5 63 34
l11 38l45 42l8 16l6 53q22 29 41 64l-4 84l33 59v16l-12 56l12 56l-36 64l4 48q-10 81 -36 100l-28 20l-6 42l-20 60l-61 34q-37 31 -97 40h-12q-52 0 -100 -32h-12q-61 40 -92 40q-28 0 -28 -24zM618 736h4q15 0 20 -44l-12 -8h-20q-12 15 -12 36zM602 640h16
q40 -31 40 -60l-20 -20h-12q-25 17 -36 44v24zM618 492h12q12 -4 12 -24v-4q0 -12 -16 -12q-16 6 -24 20v4zM610 388q21 0 44 -32q0 -22 -20 -28q-20 0 -44 48q0 9 20 12z" />
    <glyph glyph-name="E" unicode="E" horiz-adv-x="1443" 
d="M865 1322l64 -24l32 8q21 0 48 -20l60 24q41 -24 96 -40l24 -32v-8l-8 -32q40 -99 40 -132l24 -140l-12 -68l8 -28q0 -9 -48 -68q-15 -32 -40 -32q-15 0 -28 28l8 44q-23 85 -84 132v4q28 31 28 48v12q-28 31 -28 48t32 56v4q0 22 -52 52q-17 3 -36 12l-4 -4h-4l-4 4h-4
q-42 0 -104 -48h-12q-14 0 -60 32q-92 0 -120 -28l-24 -12q-10 0 -56 32h-12q-45 0 -64 -20v-28q0 -29 12 -68l-4 -60q0 -56 32 -96v-20q-20 -29 -20 -44q5 -20 44 -44l4 -20l-12 -28h4l20 -12h12l56 32l36 -4q26 13 44 76v12q-16 26 -16 44q0 38 76 48l48 36q32 0 32 -60
q28 -53 28 -76l-8 -40l20 -72l-4 -44l4 -88v-32l4 -28h-4l4 -4v-4q-14 -184 -56 -184h-12q-54 0 -128 56v12l16 76l-24 68l4 12q-18 8 -20 16l-32 -4l-52 4l-48 -52q-24 -13 -36 -44l4 -40v-32l-4 -24q0 -34 40 -76v-4l-36 -36v-8l56 -40l4 -4v-4l-12 -40l4 -20h12l52 20
l40 -4q36 52 56 52h8q10 0 32 -48l12 -8l64 24l72 -32l52 -4q44 31 44 72q0 32 -8 32l12 64l-8 56q0 9 48 52l52 84l-4 20v12l12 12q18 0 40 -56q48 -23 72 -104l-12 -72l12 -52v-4l-24 -68l-4 -72l4 -24l-8 -52l8 -44q0 -19 -64 -60h-4l-60 12l-40 -8l-32 8l-64 -28
l-108 24l-112 -28h-12q-76 24 -100 24h-12l-76 -24l-52 32h-56l-68 -24h-4l-52 20l-36 -4l-44 8h-8l-36 -4q-11 0 -64 32q-52 0 -60 20v8q13 120 80 120h4l64 -4l64 40l64 -28l24 20l-4 68v48l12 64l-16 80l4 72l-4 44l16 64l-12 44l16 64l-4 44l12 64l-20 76q16 37 16 68
l-8 32q0 17 20 64q-3 16 -20 32l-8 28h4q17 10 24 28q0 14 -76 20q-53 -32 -64 -32l-60 36l-48 -4q-18 7 -32 28v20q63 108 148 108l64 -24l4 4h4l4 -4l100 32l140 -28q14 0 72 28h8q46 -36 112 -36l68 40zM761 330q28 -12 28 -40v-8q-9 -40 -40 -40l-24 32v12q0 27 36 44z
M861 234l-6 -26l-26 2l-4 20q6 18 16 18q8 0 20 -14z" />
    <glyph glyph-name="F" unicode="F" horiz-adv-x="1371" 
d="M980 1330h4q58 -24 156 -44q96 -85 96 -116v-4q0 -28 -8 -44q14 -40 24 -180l16 -52q-18 -120 -64 -120v4l-4 -4h-20q-40 0 -76 72q-48 41 -48 48v4l12 48l-20 52v8l20 60q-21 39 -60 68h-16l-56 4q-9 0 -48 -44l-56 36l-16 -4l-80 8q-14 0 -44 -32h-8q-17 7 -28 28
l-16 8q-100 -23 -100 -64q28 -32 28 -52q-10 0 -20 -32l12 -32q0 -21 -24 -48l-4 -28l16 -44q60 -7 60 -24v-4l-12 -40q8 0 8 -16l32 -16l48 8h4q16 -6 16 -24h4q39 12 52 48v20l-4 36l20 80l-8 24q9 24 28 24q136 -17 136 -60l-4 -64l20 -80v-4l-8 -48l8 -64q-8 -16 -8 -44
v-4l8 -44q-12 -48 -16 -136q-18 -33 -36 -100q-18 -16 -28 -16l-52 48q-56 8 -56 32l16 48l-28 72l8 32q-13 32 -36 32l-32 -20h-8l-36 36h-4q-64 -20 -64 -40q0 -8 32 -40v-12l-32 -52v-16q20 -29 20 -48v-8q-1 -9 -32 -32l-4 -24l28 -40v-20l-24 -44q7 -27 64 -68h8l32 4
l32 -4q24 0 56 40q12 0 12 8q64 -13 64 -52v-24l-4 -4l20 -40l4 -36q-28 -60 -68 -60q-5 -7 -120 -32l-56 12q-22 -8 -28 -24q-24 0 -40 20h-8l-60 -16l-64 28q-61 0 -128 -28l-68 24q-84 9 -84 56v4q28 84 28 108q0 12 24 28l60 -28h48q20 0 60 52q24 14 24 36l-20 40v12
l32 48v4l-12 44l4 76l-4 60l16 52l-16 48v8q0 13 20 44v16l-20 64v64l-8 32v16l12 48l-16 60l16 48l-16 60l12 52q-34 52 -72 68q-58 0 -108 -48l-16 -4q-36 15 -36 36l4 40l-20 84q21 40 56 40l60 -4l44 4l32 -4l48 12h8q59 -20 92 -20q41 0 108 28h4l108 -28q56 28 72 28
h20l64 -12zM829 1069h13l20 -20v-20l-33 -6l-20 20v6z" />
    <glyph glyph-name="G" unicode="G" horiz-adv-x="1381" 
d="M671 1354q65 0 132 -40h16l48 12h8l48 -40h12l124 44q47 0 56 -116l4 -28l-20 -60l8 -64l-8 -52q14 -23 24 -180q0 -29 -68 -44l-28 4l-56 -16h-4q-23 0 -36 28q1 20 8 20l-20 40l12 100q-31 88 -72 88q-28 24 -76 24q-26 27 -40 52l-24 20l-24 -8q-34 5 -64 28h-16
q-20 -15 -20 -48l-24 -16l-32 16q-40 0 -40 -68q-21 -21 -52 -32q-52 -48 -52 -136l-40 -52l4 -24l-8 -8l4 -12h-4q-26 -17 -40 -108l12 -76l-4 -52q0 -46 80 -104q8 0 8 -20q-20 -27 -20 -40v-8l36 -44l-4 -40q0 -47 60 -96l92 -52q24 0 72 -20q40 22 40 28l4 4
q19 -8 44 -36q19 0 148 72q25 0 76 88v4l-8 44v4l24 32v8q0 14 -28 44q-15 32 -36 48l-36 -8l-56 20h-16l-20 -4v4l4 4v4q-22 0 -40 72q0 44 80 60q33 32 52 32l116 -28l76 32q20 0 92 -36l44 -4l52 24q15 0 28 -24l-8 -24v-16l24 -44v-4q0 -24 -28 -44l-52 20
q-31 -10 -36 -24v-12l4 -24l-40 -52v-16q24 -33 24 -44q-2 -18 -24 -48l28 -68v-4l-24 -80l16 -24v-8q-28 -49 -36 -96q-24 -32 -48 -32q-18 0 -40 16h-12q-21 0 -36 -12h-8q-35 36 -52 36q-124 -92 -184 -92q-42 -28 -64 -28q-26 27 -52 40h-36q-113 16 -136 52
q-5 16 -112 76q-92 84 -92 104l-48 84q0 26 -28 92q0 29 -44 84v8l12 48q-14 55 -24 172l-4 24l16 60l-8 32v16l16 60l-4 36q0 23 72 160q0 44 88 136q53 100 60 100q0 7 20 8h36l36 36l24 16l52 -8q41 20 84 20v-4z" />
    <glyph glyph-name="H" unicode="H" horiz-adv-x="1433" 
d="M311 1316l80 -16h20q33 0 92 16q58 -10 136 -64q43 -10 48 -28l-6 -24l-14 -6l-3 -14l-5 -4h-24q0 -29 -104 -60q-80 -18 -80 -68q-5 0 -8 -24l12 -56l-16 -52l12 -52l-4 -68q8 0 12 -24q25 -44 68 -44l44 -36l28 4h4l36 -4l60 44h20q17 -27 128 -40l48 36q28 -3 28 -8
q32 0 32 64l8 20l-8 52l4 96l-8 24l20 64q0 65 -102 69l-18 11h-52l-36 68v12q0 45 96 84l40 28h20q61 -24 132 -24q40 16 68 16q124 -18 124 -28q22 0 40 -60q0 -49 -44 -104q0 -6 -32 -24h-8l-36 16q-18 0 -32 -28l8 -36v-8l-16 -48l16 -48v-8l-20 -56l20 -60
q-16 -30 -16 -56l16 -44v-12q0 -17 -16 -52l16 -64l-4 -72l8 -36l-16 -64l20 -60l-8 -52l12 -56l-12 -60q27 -67 48 -76h32q53 0 104 -100q0 -21 -56 -64q-16 -44 -48 -44l-68 16q-27 -20 -52 -20l-32 24l-68 -4l-36 8h-4q-13 0 -28 -12h-8q-10 0 -64 36h-36q-32 21 -32 68
v24l32 28l32 -4q16 0 108 52l8 28v32l-4 24l8 28l-16 60v12l12 40l-12 56v4l24 68q-23 69 -48 76h-47l-77 -36h-8q-47 31 -65 31q-14 -2 -57 -7l-66 -32h-8q-32 29 -32 40h-20q-88 -8 -88 -68v-4l4 -40v-40l20 -32v-12q-5 -11 -24 -24l-20 -100q12 -24 12 -76q16 0 16 -16
l60 -44q15 -16 32 -16l52 -36l20 -76q-3 -32 -32 -32l-64 8l-12 -4q-16 8 -44 8h-8l-60 -24h-12l-56 20l-36 -4l-52 4l-52 -15q-53 0 -64 63v13q0 91 55 91l45 7q26 9 44 65q8 0 8 28l-12 48v4l16 48l-16 60v12l12 44l-20 64l8 32v20l-8 32v12q0 18 24 52v16l-16 56v20
l12 48l-8 64l8 36v12l-16 56l12 56v4l-12 52l4 36q0 25 -32 36l-34 5q-20 0 -50 35q-48 26 -48 56q0 53 64 88h32q27 0 92 24zM540 291q18 -8 20 -16v-4q-8 -16 -24 -16l-12 16v4zM578 175l4 -4l5 -21l-13 -15h-12l-8 8v20l8 8zM707 28q0 -8 12 -8l4 -4v-20q-7 -14 -24 -20
q-18 0 -24 24q8 28 32 28z" />
    <glyph glyph-name="I" unicode="I" horiz-adv-x="1211" 
d="M251 1336q69 -32 100 -32v-4q43 0 104 28h4l68 -32h4q32 0 124 36h4q63 -20 144 -20l40 16l72 -24q77 0 108 -12l36 12q43 0 60 -148q0 -30 -120 -89q-18 -10 -48 -19q-10 0 -80 48l-16 4q-21 0 -48 -20l-84 -40q-28 -25 -28 -48l16 -60v-4l-12 -60l8 -52l-8 -52l20 -56
l-8 -44l4 -76l-8 -40l4 -100l-4 -52q6 -50 26 -82l-4 -19q-18 -20 -18 -55l-8 -40l4 -12h-4q0 -31 68 -68l67 6l33 -30l68 28h12l96 -32q56 0 60 -84v-28q0 -47 -64 -104h-8q-17 0 -52 24l-4 -4h-48q-12 0 -76 -36h-8q-27 3 -96 48h-12q-12 0 -84 -40h-8l-84 32l-4 -4h-4
l-36 4q-11 0 -60 -32h-8l-68 32h-68q-19 0 -60 -36h-12l-64 48q-64 0 -64 48l4 60v40l28 20l4 -4l4 4l36 16h12l51 37l37 -29q124 12 129 42q60 -18 83 -18h4l4 20l-12 32v16l16 52l-8 56l20 52v4q0 16 -24 48v12l16 56l-12 52v16l12 48q-16 41 -16 64l12 48l-16 60
q0 14 20 44v24q-12 15 -12 36v4l16 60l-12 44v24l8 44v12q-32 48 -84 48h-12q-10 0 -64 -36h-8l-52 28l-12 4l-20 -4h-24q-54 0 -120 84l-4 52q10 32 80 68q31 36 52 36z" />
    <glyph glyph-name="J" unicode="J" horiz-adv-x="1298" 
d="M1030 1332q51 -32 64 -32h64q76 -47 76 -84v-12q0 -83 -52 -100l-44 -24h-16l-60 40q-14 0 -52 -48l-32 20h-12l-16 -16v-4q0 -25 12 -56l-16 -60q0 -20 36 -68v-8q0 -19 -20 -32l-4 -16q0 -13 24 -48l-24 -52l12 -64v-24q-12 -17 -12 -40l8 -52l-4 -28l24 -92
q-16 -37 -16 -68q0 -12 36 -68v-12q-12 0 -40 -28h-4v-12l10 -29l-18 -55l-20 -24v-16q-12 -120 -44 -120h-4l-16 32h-20l-44 -64l-20 -16l-4 4h-4q0 -8 -32 -8q-83 -40 -124 -68l-156 16l-44 -16h-8q-20 0 -68 48q-77 0 -80 32q-33 34 -84 48q-37 83 -64 92l4 20
q0 11 -48 84q0 39 -24 108l16 60l-4 56q52 79 52 116h8q0 20 64 20l24 8l52 -16l48 4q26 0 60 -128v-8q0 -18 -28 -68q0 -33 -44 -52l-28 8q-16 -5 -24 -20v-60q0 -61 112 -120q0 -10 96 -36l44 48h8l60 -28h20q12 0 32 56h4l24 -4q23 0 40 60q60 34 60 68l4 52l-12 56v24
l8 32l-8 60l4 32q28 0 28 124l-16 56v4l8 64l-12 68l20 64l-8 52l8 36v28q-5 64 -60 64q-32 36 -56 36l-4 -4l-68 12q-30 -20 -44 -20l-8 8l4 48q-11 39 -20 48v28q0 23 116 44l56 -4l60 8h28l56 20q11 0 40 -24h8q132 11 132 32z" />
    <glyph glyph-name="K" unicode="K" horiz-adv-x="1470" 
d="M1252 1338q39 -37 108 -60l20 -48q0 -45 -36 -80l-4 4h-4l-60 -16h-20l-44 8q-26 0 -60 -40q-59 -28 -88 -76q-115 -55 -116 -84h-4l4 -4v-16q0 -36 -56 -36q-20 -17 -20 -64q-24 -32 -64 -32q-80 -68 -80 -88l24 -40q0 -28 -8 -44q116 -116 116 -140q0 -25 96 -116
q29 0 36 -68l16 -12l48 8l20 -24v-40q9 -40 72 -88q10 0 72 -44l16 -4l32 4q46 -8 60 -24q4 -6 52 -64v-28q0 -43 -76 -48q-46 -44 -64 -44l-56 36l-20 -4l-56 8l-64 -32h-12q-42 28 -56 28l-32 -4l-36 8h-20q-22 -16 -40 -16q-15 13 -28 120q7 27 28 36l36 -8q28 19 28 56
q0 34 -92 120q-12 15 -12 28v40q-10 21 -24 24q-19 0 -36 -20q-20 0 -20 56q-53 82 -116 112q-20 36 -36 36v4q-52 -12 -68 -44q-2 -12 -20 -28v-20l12 -44l-20 -64v-16l8 -40l-8 -60q12 -67 36 -92h4l36 8q14 0 68 -40q64 0 64 -52q-28 -93 -28 -120l-12 -8h-12l-36 20
l-44 -4h-16l-44 8h-4l-52 -20h-4l-52 16l-60 -8l-52 16l-32 -8l-20 12h-48q-48 4 -48 40q16 47 16 72l-4 20q15 12 28 12l28 -12l104 36l36 48l-4 60l8 48l-20 60l24 52l-28 64v12q24 26 24 48l-24 56q20 41 20 64l-12 48v4q0 23 16 52l-12 60v4l8 48q0 20 -24 72l16 48
l-16 60l20 52q-44 72 -88 72q-39 0 -120 80l-4 24q0 21 68 48q35 40 60 40q26 -26 56 -40l20 4l44 -4l60 28h8l56 -16l28 4h16l52 -8l52 20h12q20 -10 20 -32v-24l4 -64q0 -47 -92 -52q-24 -31 -44 -40h-4l-40 16q-16 -6 -16 -12l12 -48l-8 -48v-8q16 -26 16 -40v-8l-16 -52
v-12l8 -52l-20 -52q25 -68 64 -68q92 53 92 124q13 18 60 36q22 52 60 80l8 8q6 0 24 24h8q40 26 40 88q52 28 52 52q-22 23 -56 36l-12 24q12 42 48 92q12 0 16 8l72 20l44 -4l52 24l68 -28h52q21 0 84 40h8z" />
    <glyph glyph-name="L" unicode="L" horiz-adv-x="1409" 
d="M690 1348l60 -36l24 4h4q68 -12 68 -60v-8q-17 -125 -28 -144l-24 -12l-64 32l-68 8l-72 -76l12 -36l-28 -56l20 -32l4 -11l12 -17v-8q-21 0 -32 -28v-16q0 -12 32 -68l-20 -48l32 -56q-9 -31 -32 -56v-16q48 -51 48 -64q-46 -38 -48 -48l52 -52v-20l-32 -32v-14
q26 -15 40 -30v-8q-28 -23 -48 -56v-4l40 -52l4 -4v-4q-6 -44 -12 -44q0 -28 28 -28l38 9h20l22 -29l12 -12l48 16l48 -20h8q15 8 39 22l16 8h4q6 0 32 -26h17l32 8h8l48 -16h12q13 0 20 60l24 32v4q0 29 -28 48l-4 20q32 54 32 72q-8 29 -24 48q0 18 56 68q0 21 28 104
l24 24q27 0 92 -84q0 -72 24 -124v-4q-40 -86 -40 -164l20 -56v-20q-15 0 -32 -124q-10 -48 -20 -48q0 -18 -92 -40q-31 -31 -56 -32q-55 32 -68 32q-63 0 -128 -32q-45 28 -80 28h-48l-68 -28q-53 32 -64 32h-24l-16 -4l-32 8l-72 -48q-67 40 -84 40h-40l-72 -28
q-47 36 -80 36q-68 0 -68 84q18 120 56 120l56 -32l32 20h24l24 -16h12q60 45 60 72q-16 24 -16 44l32 60q-28 43 -28 56v4l12 48v16q-20 28 -20 52l20 52l-12 48l12 56v4l-24 68l20 60q-20 43 -20 60q20 40 20 64q-12 3 -12 32v16l16 52v12l-32 40v8l12 48q-81 64 -96 64
h-36q-19 0 -76 -32h-16q-32 0 -36 120q13 76 72 76q29 0 68 32h8q11 0 36 -24l12 -4q144 3 144 24h12l52 -24h4q124 10 124 28zM672 923h5q17 -5 17 -28l-17 -15h-11l-17 15v9z" />
    <glyph glyph-name="M" unicode="M" horiz-adv-x="1560" 
d="M275 1312h8l76 -32q92 0 116 24h20l52 -56q32 0 48 -32l-24 -44q56 -51 56 -60l-16 -40l20 -64v-16l-4 -44l44 -112q8 0 16 -20l-16 -20v-28q10 0 24 -20q33 0 48 -24v-8q0 -8 -48 -48l-4 -16q13 -12 48 -20l12 -16v-4q0 -16 -40 -60v-16l32 -52v-20q0 -20 -8 -20
l32 -112v-8q36 9 36 40l-20 52q0 22 48 60l4 16l-24 48q29 41 60 112v16l-16 56q24 41 24 120q40 38 40 52l-24 44l48 64q0 25 -48 48l-4 4v8q60 46 60 112h4l-4 20v24q0 49 96 56q10 8 40 12l52 -4l60 8l60 -20l44 8h12q100 -52 112 -116q-18 -38 -28 -40h-12l-32 8
l-53 -26l-35 -50v-32l-20 -72l8 -56l-4 -64l12 -52l-16 -56v-8l12 -40v-8l-12 -48v-16q20 -33 20 -56l-16 -60v-8l20 -140q0 -22 47 -56l-6 -18q-39 -14 -41 -22v-28q0 -28 32 -40h4l17 1q26 -10 28 -20v-4l-53 -25v-4q5 -20 44 -20q104 -100 104 -124q0 -18 -60 -36
q-32 -36 -64 -36h-16l-120 20l-64 -24h-24q-50 34 -88 36q-41 33 -56 68l-4 4h-4q-57 -10 -72 -32q-24 -48 -68 -48h-4l-16 4l-44 -20q-28 0 -28 48q-40 48 -40 72q-16 72 -32 148l-23 12l-17 8q0 13 40 36v4q0 19 -56 60v16l12 48v4l-20 52l4 64l-28 80l-12 12l-32 -8
l-16 20q0 25 56 52l4 20q-22 24 -52 24q-12 15 -12 28q48 45 48 60q-52 39 -52 60l12 36q-8 28 -28 28q-14 -14 -32 -80l20 -52l-32 -60l-4 -12q28 -41 28 -112l12 -44l-16 -80l12 -40l-4 -36l8 -76l-8 -64l12 -44l-4 -56v-4q0 -57 88 -76l76 -88q-1 -13 -68 -56
q0 -24 -40 -40q-54 28 -88 28l-48 4l-64 -28h-16q-39 32 -56 32l-36 -4q-43 0 -60 108v16q37 72 64 72l36 -8q26 21 32 64q8 0 8 28l-16 48q24 44 24 56l-20 56v12l16 48l-12 52l12 44v8l-20 68l20 56v4l-12 56l16 64q-24 23 -24 60l16 60q-20 33 -20 48l24 60v4
q-32 38 -32 56l8 28q-9 24 -16 24h-8q-25 0 -56 -12q-60 86 -60 100v28q0 43 88 52zM1071 916l-20 -16q-28 -67 -28 -84q12 0 12 -44q0 -10 -36 -52v-4q0 -13 12 -28v-16q-40 -40 -40 -72l-8 -68l4 -40l-32 -64q16 -51 16 -76l-12 -32v-16l8 -32v-8l-44 -48v-4q0 -13 28 -56
l-32 -64v-4q1 -8 52 -40l16 -24h8q0 10 44 56l32 -4q48 14 48 96q9 0 12 36v8q-28 39 -28 56l28 44v16l-16 44q0 17 32 48l4 12q0 11 -48 48v16q36 41 36 56l-24 48v4q0 16 24 44v12q0 19 -36 60v16l12 40v16q-16 26 -16 40l24 40q0 24 -32 40z" />
    <glyph glyph-name="N" unicode="N" horiz-adv-x="1378" 
d="M442 1318q58 -64 88 -64q28 -28 28 -44v-12l-4 -24q10 -46 76 -124v-4l-4 -36q0 -14 44 -64q1 -57 38 -57q3 0 7 1l6 -24q-11 -35 -11 -52l44 -56v-40q0 -42 72 -100q6 0 20 -28l-4 -44v-4q36 -72 60 -88q32 0 52 40l-32 32v20q28 29 28 56q-24 32 -24 52l20 48
q0 11 -32 48v12l44 40v12q0 32 -36 68v4q28 41 28 52v4q-44 45 -44 60q14 29 14 51q0 28 -24 42l-38 31l-4 -4h-4q-44 18 -68 48q-21 24 -72 24l-8 24q18 25 64 36q47 55 56 56h4l44 -12l71 -2q49 15 85 22l52 -16h44l76 -12h24q56 0 56 -116v-12q0 -33 -44 -44h-4l-44 4
q-59 -37 -92 -60v-24q12 -14 16 -44l-8 -40l8 -64l-12 -56l-4 -96l12 -76l-16 -152l20 -84l-12 -56v-32q16 -26 16 -40l-16 -52v-20q8 -9 8 -28h4l-8 -60l8 -60q-33 -128 -104 -128q-92 0 -92 32q0 25 -48 84q-5 17 -64 60l-4 16q20 21 20 36v16q-32 32 -32 48l4 32
q-8 24 -32 24l-35 8h-3q-13 0 -22 8v16q28 22 28 40l-28 52q0 110 -60 144q-20 14 -36 28v4l20 44v16q-29 12 -52 76q-10 11 -52 16l-4 4v8l40 52q-56 50 -56 64l4 28q0 20 -20 24q-35 0 -48 -56l16 -48v-4l-12 -68l16 -60q-20 -33 -20 -48l20 -52l-16 -56l16 -60l-20 -68
l16 -44l-4 -72l8 -48l-20 -56q26 -72 48 -80l48 4q18 -3 60 -52q52 -31 52 -60q-15 -28 -46 -41q-42 -28 -82 -33l-68 4l-22 -8l-26 8h-4l-76 -14l-70 15l-22 3q-45 0 -80 70v20q0 30 76 76q64 0 64 64l4 92l-12 52l8 52l-8 64l8 48l-8 48l12 72l-8 52l16 60l-16 48l4 68
l-4 52l12 48q-24 54 -24 68l16 56v8q0 53 -40 60l-24 -4h-8q-26 0 -100 88v20q12 20 56 44q33 52 56 52l56 -36h64q20 0 84 40h12z" />
    <glyph glyph-name="O" unicode="O" horiz-adv-x="1332" 
d="M753 1316h24q34 -40 76 -40q31 0 72 -52q84 -31 84 -68l76 -116q23 0 36 -108q47 -94 56 -132l-4 -24v-28q28 -28 28 -168l-24 -48l4 -12l-4 -4l16 -24v-28l-24 -44l4 -56v-4q-48 -54 -48 -108l-32 -64q-73 -81 -108 -172l-72 -40q-10 -28 -108 -52q-36 -40 -52 -40
l-48 32l-64 -4h-12q-12 0 -64 -32h-8q-48 52 -60 52l-36 -4q-11 0 -56 56l-20 4l-28 -4q-22 0 -44 72l-88 96q-14 17 -16 48h4q-12 51 -64 148l-4 20l4 24q-32 66 -32 84q20 30 20 52q-10 0 -24 48l28 64q0 12 -28 56l28 72l-8 44l52 84q17 39 28 108q52 62 60 100
q28 19 48 80q17 20 72 36q33 56 108 56q42 36 72 36q50 -14 64 -14l32 12l24 -4h16zM645 1127q-51 -13 -76 -28q-26 0 -42 8q-11 0 -49 -58q-79 -28 -79 -93l11 -30v-20l-56 -54l-4 -15l34 -31v-12q0 -11 -49 -27q-34 -49 -34 -96l11 -35v-11l-19 -50q30 -52 30 -74l-4 -11
q0 -86 53 -124q11 -13 16 -57q30 -40 30 -62l-4 -27l23 -12l34 4q13 0 22 -69q47 -58 106 -58q11 0 61 35q11 0 60 -31h8q23 0 41 27q85 0 140 96l4 12l-4 23q0 24 53 65q15 22 27 66v46q0 15 26 58q0 15 -15 39v11l19 50v4q0 15 -19 43v11l15 50v8q-30 39 -30 73
q-9 50 -19 50l4 20v11q-1 9 -46 50l-15 24l4 27v3q0 43 -110 112q-3 24 -118 42z" />
    <glyph glyph-name="P" unicode="P" horiz-adv-x="1344" 
d="M709 1328l52 -40l28 4l68 -4l24 12h20q39 -36 56 -36l56 8q97 -54 116 -116l24 -32q76 -83 76 -116l-8 -36v-12l44 -52v-12l-20 -76l8 -44q-36 -59 -36 -112l-72 -80l-112 -60q-42 0 -104 -52h-16q-11 0 -52 28l-24 8h-44q-21 0 -68 -52h-8q-52 36 -68 36h-36
q-35 0 -76 -64l8 -64l-12 -44l20 -52v-12l-12 -56q14 -72 68 -72q15 0 76 -36l48 4q66 -18 72 -36l-4 -20l20 -56q-8 -18 -16 -20h-28q-26 0 -48 -60l-20 -4l-52 36l-40 -4l-48 8l-48 -32h-12l-40 28h-12l-32 -8h-20q-44 16 -68 16h-4l-12 -8q-21 20 -40 20q-35 -20 -56 -20
h-20q-14 0 -72 52q-36 19 -36 44q23 28 52 36q41 60 68 60l76 -32q84 0 92 72l-4 20l16 68l-20 56l20 60q-20 43 -20 60l12 52q0 14 -20 44v16l28 60l-12 56l8 40v24l-16 40l20 64l-20 64l20 56l-16 56v4q24 35 24 52q-39 72 -128 72l-12 4l-60 -32h-4q-76 38 -76 48l-4 12
l16 40v32q29 56 100 56l52 32h24l44 -32l40 4l44 -8h12l44 36h24l44 -36l28 4h16l4 -4l4 4h4l28 -4q37 40 60 40zM665 1140l-48 -40h-40l-4 4l-12 -4v-16q0 -37 -24 -72l24 -60v-12l-20 -60v-4l16 -52v-8q-28 -32 -28 -52l28 -52q-8 -16 -8 -44l24 -16q0 11 40 16
q40 -32 56 -32l40 12h12l52 -12l32 24h12q7 0 16 -28l20 -4q13 0 48 28q62 12 84 32q96 73 96 136q0 27 24 72q-36 41 -36 116l-4 -4h-4l-12 12l-32 -20q-9 0 -16 36h4q0 33 -92 104h-24q-56 -44 -68 -44h-4q-14 0 -68 40z" />
    <glyph glyph-name="Q" unicode="Q" horiz-adv-x="1374" 
d="M707 1332q48 -36 88 -36q17 0 92 -56q50 0 72 -56q68 -19 68 -48l4 -4l-4 -28q0 -68 68 -108q6 0 20 -28q-2 -40 -8 -40q0 -15 44 -72v-16q-2 -23 -24 -52q3 -26 56 -92v-20l-20 -60l12 -48l-24 -52l4 -4v-4l-4 -92h-4l4 -4v-16l-24 -72v-48l-52 -52l-44 -72l4 -36
q0 -33 -64 -56q-52 -47 -52 -72v-4q18 -34 56 -56h60q13 2 48 52l60 32q21 32 64 32q52 0 52 -104l8 -48q0 -37 -76 -100q-48 -47 -52 -92l-12 -16l-4 -4h-20q-42 28 -56 28l-20 -4l-64 16l-32 -8v4l-20 -8q-6 14 -60 56l-20 24l-20 -4q-17 0 -64 108q-9 12 -68 16
q0 19 -116 24l-36 -4l-60 56h-4l-4 -4h-4l-4 4h-4l-36 -12q-22 2 -68 104l-80 56q-14 80 -36 80q0 35 -68 116v48l-24 60l4 64l-16 68l24 56l-20 80q0 73 40 156v16l-4 24l36 64l4 12l-4 36q47 51 68 96q30 19 52 68q39 15 68 84l24 16q54 -24 72 -24l96 40l24 4h36
q17 0 64 36h4zM578 1166l-4 4h-4q-73 -44 -83 -44q-18 0 -80 -93l12 -36q0 -23 -54 -28q-15 -12 -22 -60q-6 0 -15 -36l3 -57l-38 -48v-8l27 -56l-34 -64l23 -49l-27 -60q34 -48 34 -60l-15 -44v-12q49 -48 49 -113h15l16 -28q4 -32 22 -32q15 0 50 60q18 16 41 16l-3 4v8
l22 -12q11 0 53 45l107 24h7l49 -37h4l31 8h3q40 0 53 -88q16 -6 16 -12l22 8h16l18 -16h31l11 76q34 31 34 49v8l-22 32v16q48 32 60 88q15 14 15 32l-15 49l23 32v24q-19 23 -19 44l11 32v20q0 31 -26 40l-4 12l8 8v12q-11 21 -57 45l-4 20q11 21 11 40q-30 100 -83 100
l-15 20l4 41q-6 20 -23 20l-46 -20h-3q-18 0 -57 56h-8l-34 -4q-51 36 -68 36zM595 1150h8q16 -6 16 -28l-12 -8h-8l-12 12v16zM567 184v-4q5 -20 44 -36q37 -32 56 -32q66 0 88 56v16q0 46 -92 56l-56 -44q-40 0 -40 -12z" />
    <glyph glyph-name="R" unicode="R" horiz-adv-x="1450" 
d="M814 1324l60 -36l40 8q20 0 60 -52q8 -12 60 -16q59 -59 104 -80q29 -29 64 -148l28 -48l-12 -52v-60q-30 -82 -68 -132l4 -48q0 -19 -60 -40q-40 -51 -40 -72v-4q24 -53 24 -72q0 -33 20 -96q0 -132 28 -132q36 -34 36 -80l16 -8h52q44 -56 92 -56q21 0 40 -80
q-19 -92 -64 -92h-24l-28 4h-16l-4 -4h-4q-25 11 -108 16l-32 36q-12 0 -12 12q-15 -12 -36 -12h-8q-19 8 -44 88q-8 0 -8 12h-44l-8 8v8q32 4 32 36h-4q-44 15 -44 44v8q0 15 24 68v16q-16 21 -16 36v20l8 32v8l-28 60q0 48 -28 48q-39 0 -52 36q-5 32 -24 32l-64 -28
q-4 11 -48 36l-36 -4l-40 8q-33 0 -68 -64l-4 -16q15 -5 24 -40q-4 -14 -44 -56q11 -27 40 -64v-4q0 -11 -44 -52v-8q0 -8 44 -36l8 -12q-6 -32 -12 -32q22 -68 72 -68q21 0 68 -16q24 18 48 24q21 0 44 -136v-4q-18 -40 -68 -40l-24 -8q-42 -36 -60 -36l-60 28l-4 -4h-4
l-4 4h-4l-100 -24l-16 -8l-52 16l-4 -4h-24l-64 8q-19 0 -48 -20h-20q-64 40 -64 132q13 76 72 76l12 -4q25 10 64 44q68 0 68 88v12l-16 140l20 68l-36 52v8q15 88 32 132l-4 96v12l-16 48q0 21 24 100v4q-52 74 -52 116l20 36l4 4v12q-8 25 -44 40q-50 23 -168 44
q-32 13 -32 92q0 16 56 28q30 52 56 52q43 -28 56 -28q79 8 128 32h12q35 -36 52 -36l44 12l32 -8h16l48 28l64 -24l44 8l52 -20q37 48 48 48zM726 1104h-16q-46 36 -56 36l-64 -16l-12 4q-74 -39 -84 -68q0 -9 36 -52v-4l-28 -44v-12l32 -52l-32 -48v-16l40 -52v-24
l-12 -16q8 0 12 -32l20 -4q53 28 72 28q0 -7 44 -28l48 12h20l36 -12q16 24 40 24q20 -2 44 -24q103 26 128 68l8 16v36l40 52q0 11 12 20q0 12 -32 48v8q0 12 24 48q-8 29 -56 52l-4 20v32l-20 16l-48 -12h-12q-52 20 -128 36h-4z" />
    <glyph glyph-name="S" unicode="S" horiz-adv-x="1343" 
d="M681 1326l40 -20l44 16h12l76 -44l72 -16q29 19 36 40q26 20 40 20q100 -30 100 -96l28 -116l-4 -60q16 -50 16 -76q-21 -116 -60 -116q-16 0 -108 76l-8 16l8 44q-45 92 -76 92l-16 -4q-36 15 -36 56l-20 12l-20 -4h-32q-69 34 -84 34l-24 -4l-44 4q-39 -39 -52 -40
l-40 24q-27 0 -52 -60l-60 -20q-7 -7 -7 -17q0 -12 11 -28q-50 -21 -50 -52l-12 -68q27 -60 68 -60q13 0 22 -61q55 0 104 -40l76 -24q15 0 44 28h4l40 -28h4l44 8h4q22 0 84 -40q36 -3 196 -88q76 -50 76 -56q11 0 28 -52q24 -18 24 -52l-4 -16l44 -80q-24 -164 -56 -188
q-39 -140 -100 -140q-62 -60 -96 -60q-42 0 -72 -40l-108 -16h-12l-44 8l-56 -12q-97 40 -160 40h-32q-45 40 -60 40l-40 -12q-13 0 -28 12q-27 0 -32 -28q-12 -27 -32 -40h-16q-35 28 -88 52l-16 32l4 32l-16 76v4l12 68l-20 52l4 44l-16 72l36 68v8l-4 16q8 24 16 24h12
q37 -33 52 -36l16 4q40 -5 40 -36l-8 -40v-4q25 -100 84 -100q22 0 32 -68q9 -16 24 -16v-4l20 4h4q22 0 32 -20l-4 -12q29 -34 56 -44l40 36h8l40 -28h4l36 8l56 -4l52 32l52 -20h24q26 26 84 64q12 11 16 72l36 48q-4 16 -28 44v12l12 52q-23 33 -40 80l-4 4l-12 8l-44 -4
q-49 60 -112 60l-76 40q-71 0 -148 28h-8l-36 -8h-12q-57 52 -76 52h-8l-20 -4q-34 23 -68 68q-36 0 -88 120l4 20q-20 53 -20 80q20 176 48 176q34 14 88 88q21 26 172 72q15 15 48 28l56 -12z" />
    <glyph glyph-name="T" unicode="T" horiz-adv-x="1430" 
d="M952 1330q33 -28 60 -28h52l24 -4l40 8q23 0 72 -84v-28l-4 -16l16 -76q0 -158 24 -204v-8l-12 -64l12 -56q-27 -71 -80 -100q-49 0 -80 48q-64 43 -64 52v4q0 12 40 60v8q0 15 -28 48v8l20 64q-32 28 -32 48q0 18 16 36v20q-52 68 -76 68q-68 0 -100 -56q-68 -7 -68 -44
v-24l16 -64l-20 -72v-4l4 -52l-12 -64q20 -41 20 -116q10 0 16 -32v-4q0 -12 -28 -60v-8l16 -56l-8 -60l16 -40v-28q-12 -17 -12 -40l4 -68l-8 -32q9 -68 28 -68l8 -16h4l76 -12h4q13 0 28 12h24l36 -12l116 48h8l20 -24l-24 -64l16 -48q-43 -104 -68 -104q-54 0 -116 -32
q-62 20 -124 24l-56 -32h-4l-72 36q-85 0 -112 -24q-9 -12 -20 -12q-49 32 -72 32q-29 0 -132 -44q-76 30 -76 144q0 31 52 72q9 56 20 56h8q24 -32 44 -32q84 27 128 52l64 -20l16 16l-8 44l8 36v24l-16 52v8l16 56v4l-12 48q0 28 12 60l-16 56l16 64q-12 34 -16 124
q-7 0 -8 20v4l28 68q-20 39 -20 56l20 52l-20 60v4l12 60q-14 31 -44 56q0 12 -52 12h-12l-64 -48l-12 1q-10 9 -28 11l-20 -4h-12l4 -28v-4q-28 -27 -28 -67v-5q32 -25 32 -48q0 -15 -48 -56v-4l24 -48q-36 -56 -36 -72v-16l12 -32q-20 -12 -72 -68l-16 -4q-31 0 -80 120
l-12 52q20 65 20 100l-12 44l8 104l-4 56q8 21 12 100q14 40 112 88q17 28 60 28l72 -28h52q50 32 64 32q90 -40 132 -40h16q43 36 68 36q55 -28 72 -28h52q14 0 60 32h24zM1337 966l-27 32q-1 11 -2 25q-4 16 -4 27q0 18 11 20l18 -7q13 -20 25 -36q2 -8 2 -24v-11l-8 -26
h-15zM1293 1192q11 -9 20 -18q5 -8 9 -18q1 -3 1 -5q0 -7 -4 -16q-4 -8 -11 -17l-4 -6l-7 2l-8 22l-7 28l-3 14l8 9zM948 391h-5q-19 0 -29 52l15 10l26 1q17 -17 18 -43zM950 204l-15 7q-15 33 -15 57q0 8 2 16q1 5 4 9l28 13l12 -5q13 -24 13 -52v-10l-12 -27zM914 517
l-4 15v2q0 15 17 24l9 1q2 1 4 1q10 0 16 -16q0 -22 -12 -38l-5 -1z" />
    <glyph glyph-name="U" unicode="U" horiz-adv-x="1405" 
d="M314 1328l60 -32l40 8l48 -4q11 0 44 24h4q72 -69 72 -120q0 -47 -100 -60q-36 -27 -36 -76l4 -60l-8 -44l12 -64l-20 -52l16 -48q0 -17 -20 -56l32 -52l4 -12q-21 -33 -28 -64q12 -21 12 -48l-12 -56v-4l16 -68v-4l-8 -44l8 -64v-8l-4 -16q43 -87 104 -128
q19 -36 48 -36l24 4l60 -36q75 0 144 32h28q28 16 28 52q19 20 56 32q23 27 48 76v8l-8 32v4l12 48v8l-16 64l12 56v8l-12 60l8 40l-12 52v12l16 68l-4 4v16q0 24 16 68v4q0 24 -20 52v20l8 60l-20 52l4 44v20q0 20 -52 20q-6 11 -80 60l-44 72v8l20 16l56 -4l32 28h16
l24 -4q40 16 68 16l40 -8q87 0 148 16q43 0 84 -52q56 -49 56 -76v-4q-4 -15 -80 -64q0 -10 -32 -16h-12l-16 4q-26 0 -48 -84l16 -52l-20 -56l16 -44v-12l-16 -48v-8l16 -56v-4l-16 -60q24 -40 24 -52l-32 -64q24 -50 24 -68l-12 -40l12 -52v-4l-12 -60l12 -48
q-16 -36 -40 -64v-32l4 -16q0 -11 -48 -68l-48 -76q0 -35 -28 -52l-20 4q-36 0 -52 -64l-16 -8l-64 28q-69 0 -116 -48l-12 -4l-136 56h-4q-17 0 -48 -28h-12q-8 0 -24 48q-12 0 -12 12h-16l-48 -16h-4q-16 7 -16 28v4l8 12v16l-104 124l4 36l-28 76v56l-12 64l4 72v4l-8 32
l20 64l-24 68l12 44l-4 36l12 76q-12 29 -12 64l16 56l-16 60l12 52l-36 84l-4 -4l-16 4l-44 -4q-32 48 -80 48l-12 16v16q57 58 60 96q30 32 72 32l36 -4zM910 1112l16 -20v-8q-4 -12 -24 -12l-8 8v16z" />
    <glyph glyph-name="V" unicode="V" horiz-adv-x="1265" 
d="M371 1326q49 -28 156 -28q49 0 72 -96q0 -31 -72 -52l-84 -16h-12l-12 -12q12 -31 16 -80h-4q21 -82 48 -100q20 -6 20 -28q-24 -36 -24 -56v-4q0 -14 36 -64l4 -20l-4 -28q24 -40 24 -52v-8l-8 -36q20 -79 56 -116l12 -12l-12 -48v-4q40 -48 40 -84l16 -20q23 0 52 44
l-4 4v4l4 4l-4 4v32q42 35 60 140v8l-4 20q0 9 52 64v8q-20 29 -20 44q0 11 52 64q32 68 32 88l-4 28l36 72l-28 44v16q16 17 16 32q0 32 -112 76q-21 0 -28 36q0 78 84 92l56 8l108 -16l4 4h4l16 -4l76 16l100 -28q48 -41 48 -80q0 -27 -96 -56q0 -8 -12 -8
q-16 -15 -52 -24q0 -12 -8 -12l12 -40q-44 -9 -44 -76l-28 -52l12 -44l-48 -80l-4 -12q8 -18 8 -52q0 -15 -44 -96l4 -4v-8l-4 -12l4 -20v-8l-28 -72l4 -52q0 -10 -32 -44l-12 -20l8 -32l-8 -8v-4l4 -4v-4q-23 0 -44 -144q0 -30 -40 -80q-10 -43 -36 -96l4 -16
q0 -64 -160 -96q-39 0 -60 84q-28 31 -28 84l-28 44l8 52q-44 42 -44 132q-19 25 -32 136q-12 0 -24 60l8 56q-48 55 -48 72l8 44q-24 58 -24 80v12l4 4l-32 76q0 20 -32 60v12l12 28v20l-40 52v12l12 40q-33 72 -100 72q-99 51 -104 72l-4 12q0 40 72 76q0 10 40 20
q49 -16 148 -16l4 -4q0 9 60 24z" />
    <glyph glyph-name="W" unicode="W" horiz-adv-x="1415" 
d="M374 1324l48 -40h8v-4l20 4h12q28 -11 28 -44q-12 -32 -41 -86q-93 -14 -93 -30q0 -5 8 -10q15 -10 15 -29q0 -23 -21 -57v-8q0 -24 28 -60l-12 -32v-4q0 -13 36 -64l4 -24l-8 -24v-8l20 -64q0 -23 -12 -40v-24q36 -64 48 -107l23 -57q10 -8 18 -8q19 0 32 43l3 77l40 60
l-28 56l28 60q-9 0 -20 48l52 56v8h4l-22 49l22 67q-18 35 -19 49v1q0 12 15 16q16 4 16 54q0 20 35 42l-23 74l28 24h16q140 -46 140 -76v-16l-12 -40l34 -42l-18 -54l20 -12q-4 -48 -4 -72q0 -32 21 -62l-21 -34v-16l56 -56v-16l-16 -48l8 -52l-12 -48v-8q48 -53 48 -64
q-20 -39 -20 -56v-8l44 -64l12 -4q0 8 12 8l4 4v8q0 12 -28 60v4q0 14 44 64l-24 44v8q58 58 72 156l-4 4v4l32 80l-16 48q44 52 44 64q-36 27 -36 48v4q40 39 40 56q-4 11 -54 28q-31 19 -57 49q12 69 49 107l16 8h4q16 0 86 -36l32 8q33 -12 56 -12l52 12h8q16 0 49 -33
q-1 -51 -1 -71v-8q0 -20 -84 -51l-36 -81l4 -20v-8q0 -15 -48 -68l20 -56l-36 -56l12 -44q-28 -68 -40 -132v-8l4 -48l-20 -56v-12l8 -44v-16l-16 -52q12 -26 12 -56l-32 -68l8 -40l-24 -64l20 -52v-8l-68 -120v-12l4 -24q-16 -44 -44 -44q-116 28 -152 92q0 7 -56 60v8
l32 44v4l-44 52l36 52v28q-40 24 -40 44l12 48v4l-16 52v12q32 36 32 52q0 15 -36 48v8q10 17 48 40l4 16q-54 44 -56 56v4q0 15 16 40v16q-20 33 -20 56v8l4 4q-4 18 -20 24l-36 -36v-24l24 -32v-8q0 -16 -32 -44l-4 -20q24 -28 24 -56q0 -18 -24 -44v-20q24 -18 24 -36
q-44 -44 -44 -56v-4q0 -13 28 -56v-12q-52 -41 -52 -100v-16l12 -52l-24 -52l16 -68q-36 -46 -36 -108l-24 -20l-43 -18q-39 15 -77 30q-92 91 -92 104l-8 24l8 48l-20 56v12l8 44v4l-28 68l8 48l-24 68l12 48l-40 104l20 60q-40 54 -40 68q24 25 24 44v16q-12 0 -12 16
q-20 9 -20 36l8 56l-28 56l4 76l-20 36v40q-11 41 -17 44.5t-31 27.5q-84 27 -84 56q8 108 76 116h12q21 -16 36 -16l50 20l66 -16q25 24 44 24z" />
    <glyph glyph-name="X" unicode="X" horiz-adv-x="1403" 
d="M1032 1348l44 -36h12l48 12h8q92 -17 116 -52q32 -38 32 -56q0 -35 -92 -72q-3 -15 -92 -40l-60 -80l12 -36v-16q-18 -20 -48 -36q-22 -19 -56 -72v-48q-9 -24 -52 -56l-42 -75l-2 -13l-10 -45q-2 -8 -2 -16q0 -13 6 -25q0 -12 30 -42l44 -132q72 -35 72 -72
q0 -28 19 -47l25 -5l6 -10l3 -40q4 -23 47 -42q0 -13 80 -52q24 -28 52 -28l4 4h4q51 0 76 -84v-4q0 -28 -48 -64q0 -36 -16 -36h-4q-50 28 -64 28h-68l-52 -44h-8q-14 0 -56 36l-20 8l-32 -8l-44 8h-4l-40 -24h-8l-20 16l4 20q-17 28 -24 80v8q0 44 76 56l8 2q12 2 16 18
l-2 19q-25 89 -62 89q-36 0 -36 72q-13 84 -92 84q-64 -47 -64 -76v-8q12 -15 12 -28q-38 -15 -81 -70l-23 -53q0 -9 24 -45q0 -25 64 -52l4 -4v-16q-53 -104 -84 -104q0 -5 -24 -8l-48 8l-52 -24h-8q-14 0 -40 16l-48 -4h-32l-72 -32q-57 28 -100 36q-23 23 -28 56
q15 54 24 60l49 15q12 8 24 20l51 25q41 43 96 76q44 20 44 92q0 20 76 92l20 52l-4 32q0 22 56 48l56 88l4 16q-25 136 -90 156q-12 30 -26 68q0 37 -60 108l-31 24l-21 64q-44 64 -104 84l-24 8h-12l-32 -4q-100 13 -100 48l-8 28l4 36v20q10 17 100 72l60 -8l48 12l48 -8
l44 28h16l44 -28h56q18 0 72 -48q44 -30 44 -76q-12 -17 -76 -60q-24 -20 -24 -56q29 -25 48 -76q28 -13 40 -32v-8q-16 -21 -16 -36q0 -7 60 -56q14 -32 40 -32q34 0 92 96q0 55 36 72q32 14 56 84q0 53 -84 84q-20 23 -20 40q42 60 100 92q14 7 92 12q19 32 44 32z" />
    <glyph glyph-name="Y" unicode="Y" horiz-adv-x="1303" 
d="M1064 1332q126 0 148 -40q68 -22 68 -72q-7 -76 -48 -76h-20l-4 4l-4 -4h-4l-44 8q-55 -24 -104 -28q-14 -14 -28 -84q-28 -34 -28 -72q-52 -39 -52 -104q-24 -14 -40 -92q-22 -29 -48 -92q-44 -26 -88 -108l-4 -16l8 -40l-20 -68v-4l20 -56l-16 -44q24 -40 24 -68
q-36 -49 -36 -68q52 -47 52 -72l16 -12l68 8l48 -16h36q56 -10 56 -20l4 4h4q84 -68 84 -100q-20 -40 -56 -40q-75 -56 -92 -56h-4l-44 32l-76 -8v4l-84 -20q-48 24 -80 24h-32q-16 0 -68 -24q-45 28 -64 28q-116 -13 -116 -32l-24 -8l-60 68q-28 0 -28 44q13 96 76 96h12
l48 -4q0 8 56 28l44 -20q27 0 36 40l-4 36q12 3 12 32l-4 48q24 42 24 64v16l-12 60l12 48v16l-20 52v20q12 15 12 28l-40 64q0 73 -80 148l-4 12l4 44q-35 65 -116 136q0 43 -48 108q0 17 -176 32q-44 44 -44 68q31 144 68 144q35 -24 56 -24l68 16l44 -4l40 12l48 -20
l52 12l56 -24l40 28h8v-4q21 0 48 -108q-16 -60 -88 -60q-33 -33 -40 -68q51 -83 72 -104q28 0 36 -44l-4 -4v-4q0 -20 36 -76q0 -22 80 -40q24 20 24 56q32 44 32 60l-8 40q0 15 56 20q16 76 40 76q28 18 28 40q0 32 -112 80l-16 24v8q11 38 92 100l20 4h16l68 -16l4 4
l12 -4q34 0 116 28z" />
    <glyph glyph-name="Z" unicode="Z" horiz-adv-x="1334" 
d="M455 1336h8l72 -36l76 -8q13 0 56 36h4q48 -13 48 -28h20l4 -4l4 4h52q22 0 64 24h4l60 -28l128 16q24 0 48 -72q10 -4 32 -40v-20q-38 -110 -52 -128q-68 -29 -68 -72q-36 -31 -36 -56l4 -24l-16 -24q-27 0 -112 -104v-4l8 -12v-12q-23 -1 -44 -20q-20 -18 -20 -72
q-57 -34 -92 -104v-52q-13 -26 -64 -40l-76 -80v-4l12 -40q-19 -10 -39.5 -13t-36.5 -79q-88 -78 -88 -100v-8q0 -35 64 -44q39 2 136 72q33 0 64 -52l12 -8l80 28q12 0 56 -28l24 -8h36q22 0 84 40q51 0 68 76v4l-12 48l24 68q-16 32 -16 52v4l24 68l-4 48q7 20 24 20
q42 -40 88 -40q28 -20 28 -40l-20 -56l28 -64q-1 -17 -28 -60l4 -56l-16 -56v-40l4 -16q-24 -72 -28 -132q-41 -40 -64 -40l-52 20l-44 -8l-76 16l-20 -8l-16 8l-100 -20h-36l-68 -16q-22 20 -44 20q-67 0 -136 -44q-19 0 -56 44h-8l-36 -4q-16 8 -44 8h-16l-48 -8l-52 12
l-48 -12h-4q-20 10 -20 32l8 44v4l-12 68q0 15 60 75l36 72l16 45l12 12h28q36 15 36 56q100 89 100 128v8h4l-5 30q29 12 73 58q63 57 72 108l20 8l4 -4q28 24 28 52l88 80l28 48l-8 52q13 17 67 51l33 56v4q0 20 4 49v8q21 23 21 43v3q4 8 4 13q0 10 -13 10q-10 0 -26 -5
l-58 -28l-76 36q0 -8 -48 -12l-16 4q-71 -44 -88 -44q-19 0 -48 40l-12 4q-72 0 -96 -36q-32 -15 -32 -40l16 -56q-32 -46 -32 -60v-8l8 -32q0 -13 -32 -64q0 -42 -72 -56q-67 0 -108 96l28 64l-20 60v4l32 60l8 60l-8 56v8q46 52 76 112l32 16l48 -12h68q15 0 56 28z
M547 1032q12 0 24 -24q0 -21 -24 -32h-16l-20 20q0 26 36 36zM530 927h8q22 0 28 -16v-4q0 -22 -20 -28q-21 0 -32 20v12zM555 790v-8q-4 -12 -24 -12l-8 8v16q8 16 15 16q9 0 17 -20z" />
    <glyph glyph-name="bracketleft" unicode="[" 
d="M535 1595h12q63 -6 63 -66q0 -7 -1 -13l-60 -79l-8 -19q0 -6 -20 -45l-44 -19q-40 0 -68 -76q-64 -21 -64 -79l-57 -53v-59l-3 -24q-51 -30 -56 -56l28 -109q0 -13 -52 -42l-12 -34q19 -37 32 -124q2 0 2 -7q0 -13 -8 -50l29 -57l-13 -77l41 -52l5 -74l59 -51v-14
q0 -71 48 -105l36 -38v-38q0 -37 37 -61q13 -86 60 -109q22 -30 32 -83l11 -26v-3q0 -41 -93 -41q-55 38 -92 38l-4 19l8 37q0 10 -83 73l-24 83q-30 32 -62 66q-31 42 -47 148q-31 60 -40 101q-28 18 -28 46l4 15q-28 43 -40 87l4 67l-28 244l32 99q0 86 40 113q9 0 20 106
q100 86 100 94v27q15 76 52 105l24 42q31 15 48 52q8 14 80 57q60 64 100 64z" />
    <glyph glyph-name="backslash" unicode="\" horiz-adv-x="1263" 
d="M140 1554q77 -52 88 -108q52 -45 52 -96q33 -51 44 -84l44 -96q56 -61 56 -80q30 -105 80 -136q21 -69 60 -148q48 -33 68 -108q72 -129 72 -140q25 -87 104 -148q30 -113 104 -184v-24l-4 -4l4 -12l44 -68q68 -64 68 -72l-4 -28v-8q44 -64 44 -116q0 -40 -40 -84h-16
q-85 37 -116 64q-46 127 -108 180q-8 70 -44 136q-64 45 -64 56l20 48l-8 16l-108 100v12l8 32q-60 52 -60 76l-60 56l12 48l-72 92q-52 41 -52 56l4 16l-4 20q-44 60 -44 92q-39 20 -48 40v20l4 20l-28 24q-18 19 -28 72l-36 60l-80 72q-8 87 -20 112q-76 50 -76 76
q14 51 24 52q0 108 40 108h12q34 -12 64 -12z" />
    <glyph glyph-name="bracketright" unicode="]" 
d="M100 1592h16q37 0 96 -52q37 -17 68 -78q16 -15 48 -26q16 -19 24 -53q25 -22 76 -96q13 0 24 -64q55 -47 84 -134l-8 -37q0 -46 56 -112l-20 -45q8 0 24 -41l-4 -11l12 -41l-16 -44q16 -32 44 -60v-15q-32 -30 -32 -41l8 -78l-12 -34l4 -26q-2 -16 -36 -26l-12 -15
l12 -44v-4l-27 -53l-33 -25q-17 0 -40 -120l-36 -37l4 -22q0 -14 -48 -19l-8 -11l4 -37q-6 0 -24 -34l8 -15q0 -7 -44 -41q0 -40 -48 -74l-16 -45q-15 -14 -56 -22q-26 -45 -48 -45h-65l-27 30q-12 22 -12 44q0 41 44 82q24 78 44 115q55 8 104 105q0 34 44 67
q80 107 80 127q22 127 40 127q24 32 24 56v3l-12 45v7l16 53v3l-8 60l16 45v52l-20 82l4 67v11q0 15 -48 67q-40 86 -40 123q-68 48 -68 101q0 52 -84 59q-31 25 -56 93q0 20 -48 45q-24 18 -24 37v5q0 66 52 66z" />
    <glyph glyph-name="asciicircum" unicode="^" horiz-adv-x="804" 
d="M521 1420q-26 59 -78 86q-24 25 -50 25q-41 0 -88 -63q-60 0 -111 -49q-22 -15 -46 -25q-43 -34 -83 -42q-25 16 -25 44q0 14 6 30l5 40l16 26v4l24 61l40 34q24 18 90 105q23 11 87 70q32 23 107 39l9 -2l19 -5l42 -30l21 -28l29 -38q6 -14 72 -88q17 -16 32 -60
q41 -61 66 -118q5 -21 5 -38q0 -50 -49 -50l-57 33z" />
    <glyph glyph-name="underscore" unicode="_" horiz-adv-x="1235" 
d="M777 130h4l48 -22l20 4h20l44 -6h12q31 14 44 14h4q26 -14 72 -72v-8q0 -128 -64 -128q-43 -7 -92 -26h-8l-76 24q-63 -8 -128 -28l-72 28h-52q-15 0 -68 -30h-4l-68 18l-100 6q-21 -18 -48 -18l-68 4l-32 -2q-51 16 -100 22l-48 28l-12 24l36 102l108 50h8
q61 -24 120 -24q17 0 84 26h16q56 -26 68 -26h24q39 0 96 30h4l64 -24q91 0 124 32z" />
    <glyph glyph-name="grave" unicode="`" horiz-adv-x="505" 
d="M283 1721q15 -68 35 -68q45 -84 52 -84l31 -68q33 -51 33 -70q59 -71 59 -95l9 -4l7 -33l3 -20q-9 -44 -27 -44q-18 5 -29 5l-32 5q-19 -1 -36 -1q-49 0 -78 11q-26 50 -51 50h-1q-4 -1 -8 -1q-25 0 -47 49q-44 0 -60 28q-19 31 -47 59q-40 37 -40 69q-56 18 -56 35l4 16
v89l3 36q79 100 120 100h7q97 -24 149 -64z" />
    <glyph glyph-name="a" unicode="a" horiz-adv-x="1294" 
d="M791 1004q43 -52 104 -52q52 -53 96 -80q12 -18 32 -88l48 -116v-4q-28 -60 -28 -112l4 -4v-4l-4 -4v-4q0 -18 24 -76l-20 -72l12 -48v-12l-16 -48q24 -85 36 -100l76 -56q43 -47 44 -76q-1 -25 -68 -60q-20 -28 -44 -28l-72 48q-49 0 -92 68l-4 4h-4q-32 0 -124 -76
q-24 -1 -24 -8l-28 4q-47 -2 -48 -12l-36 4q-100 0 -164 -20h-16l-48 28l-56 -4h-4q-51 37 -96 44q-32 12 -84 140q-40 44 -40 72v4l4 32l-4 28q0 59 56 116l37 76l16 8h8q18 0 67 16q30 6 60 28q16 0 84 32l92 -40h16q16 0 68 40l20 8l56 -16q8 0 44 40h16q13 0 28 -12
q36 21 36 48l-4 16l12 48q0 40 -120 88q-19 29 -48 44h-64l-48 -40h-4q-17 0 -56 44h-4q-100 -15 -100 -72l-4 -40l4 -16q0 -13 -40 -100l-60 -28l-48 -4q-71 19 -108 76l-8 24l4 44l-4 48q0 35 76 88q21 41 80 68q52 48 120 48q33 28 56 28l62 -10l45 3l74 2h74
q16 -9 53 -15zM679 408l-100 32h-20l-88 -40h-4l-44 12h-12q-49 -56 -84 -68l-28 -80q0 -37 60 -72l132 -44h4l80 32h16l56 -20h4q75 36 148 60q37 24 56 60v12l-16 56l40 48v8q-5 11 -76 52h-16q-18 0 -88 -44z" />
    <glyph glyph-name="b" unicode="b" horiz-adv-x="1220" 
d="M125 1388l56 -4l32 4q47 -16 112 -20q64 -34 64 -120v-24l16 -56q-8 -84 -16 -84q0 -68 52 -88h4q45 0 92 44h24l52 -28l112 16q19 0 60 -36l24 -8q26 12 56 12h16q32 -19 32 -72q100 -65 100 -84q7 -55 32 -80q15 -14 28 -76q26 -28 28 -60l-8 -48l16 -64v-4l-12 -56
l4 -44q-30 -100 -76 -204q0 -34 -64 -88l-64 -80l-28 -8l-32 4q-19 0 -64 -44h-4l-120 8l-60 -24q-83 32 -144 44q0 11 -36 36h-12q-56 0 -100 -44l-24 -4q-17 0 -32 28q2 40 8 40q-32 58 -32 76v16l8 56l-8 56l12 60v12l-20 140l8 60v16l-8 44l4 88l-4 32l20 64l-16 56
l8 48l-24 144l4 20q0 120 -84 120q-75 27 -100 80v24q0 28 84 100zM393 646q16 -38 16 -64l-8 -36l8 -64l-4 -36l20 -76l-12 -52q0 -31 56 -64q91 -53 152 -56q48 27 124 36q27 40 80 52q24 17 24 56l40 48v12q-12 14 -12 48q51 39 52 52l-32 56q20 31 20 44q0 19 -44 60v8
q0 18 16 32q0 15 -48 72q-21 56 -72 56q0 12 -20 12q-20 15 -20 24h-68l-60 16q-89 -13 -176 -80q-12 -19 -16 -96q-5 0 -16 -60z" />
    <glyph glyph-name="c" unicode="c" horiz-adv-x="1133" 
d="M632 1016h8q34 -40 68 -40l16 4q96 -44 172 -104q36 0 72 -92q32 -23 32 -60q-24 -45 -24 -64q9 0 20 -44v-4q-20 -64 -64 -64q-27 0 -68 -36l-32 -8q-38 0 -72 56q-15 16 -32 16q-33 26 -36 36v4l24 60q-32 35 -32 56q16 24 16 44v12q-24 18 -24 28l-4 -4h-4l-12 8
l-4 -4h-4l-48 12h-12q-36 -28 -96 -40q-47 -51 -96 -72q-32 -40 -32 -60v-60l-20 -60l12 -44v-4l-16 -56q16 -27 16 -48l-8 -36q51 -96 96 -96q36 -29 36 -64l20 -4l40 16h4q16 0 60 -44q86 0 116 48q51 0 104 60q22 7 88 60h48q44 -16 44 -96q9 0 12 -36q0 -96 -56 -96
q-79 -36 -112 -100q-17 0 -52 20q-89 -17 -116 -60l-24 -20h-12q-15 0 -60 36h-28q-34 0 -52 8l-60 -24q-13 0 -64 44h-4l-36 -4q-20 4 -40 84q-124 102 -124 164l-64 140q12 26 12 56v4l-16 60l16 48l-4 60q72 113 72 180q68 52 136 128l116 52q73 24 148 28q0 11 40 16z
" />
    <glyph glyph-name="d" unicode="d" horiz-adv-x="1283" 
d="M741 1376l76 -24l36 4h12l16 -4l60 16h4q24 0 60 -124l-4 -72l12 -32l-8 -48l4 -44v-12q0 -30 -24 -96q16 -41 16 -72v-12q16 0 16 -36l-24 -40l20 -68l-12 -56l16 -64v-16l-16 -56v-16l4 -20h-4l16 -96l8 -8v-16q-8 -24 -24 -24v-4l4 -20l-12 -52v-16q5 -64 28 -64l8 -8
l4 4h4q64 0 140 -92v-12q-25 -63 -76 -88l-40 -12l-44 4h-28q-26 -16 -40 -16h-4q-19 7 -40 64l-32 16h-4q-10 0 -60 4h-4l-60 -44q-38 0 -84 -24q-33 4 -64 20q-24 -4 -44 -40q-44 24 -56 24l-44 -8q-13 0 -64 44q-72 14 -92 40q-8 28 -60 28q-32 23 -32 44v4l4 24
q-30 105 -56 120q-12 3 -20 28l8 44l-28 68h4l-4 4v4l8 40l-16 60q15 39 32 56v8l-8 44v8q60 61 60 88q0 114 52 140l84 56l112 56q47 0 88 40l20 4h12q33 -23 100 -36l96 -56l28 -4l76 64v12l-44 48v4q0 16 36 52v12q-51 56 -110 63l-61 -29l-81 30q-63 0 -84 28
q0 136 32 136l4 4h4l36 -12q85 12 152 32zM301 580v-4l44 -40q-44 -42 -44 -56v-8l24 -20q22 0 36 -20v-16q-8 -14 -40 -36v-12q0 -8 48 -44l8 -12l-4 -28v-12q0 -29 28 -36q0 -49 172 -96l68 32h8l28 -8q28 21 28 40q21 28 80 44q0 18 40 64v20q-16 17 -16 32q0 16 32 56
v16q-32 42 -32 56v4l36 40v16l-36 36v8q44 46 44 56v4l-60 44l-4 20v4l16 28q0 21 -24 36l-4 -4h-24l-44 16q-8 24 -16 24q-17 0 -48 -28h-12l-52 48q-62 -8 -120 -60q-72 -35 -96 -80q0 -80 -20 -80q-30 -19 -44 -44z" />
    <glyph glyph-name="e" unicode="e" horiz-adv-x="1166" 
d="M567 1024q24 0 72 -16h28q50 0 148 -56q44 -43 100 -72q80 -94 80 -116q0 -16 32 -68v-68l16 -48v-16q-37 -140 -72 -140q-32 20 -56 20q-15 0 -24 -52q-15 -12 -28 -12q-25 40 -36 40h-8q-4 -12 -24 -12h-16l-52 12l-44 -32q-43 28 -56 28q-20 -12 -40 -12l-92 28h-4
l-68 -3q-21 -12 -60 -53l-4 -20q12 -20 32 -40v-4l-12 -16v-16q69 -84 124 -84q47 -28 76 -28h24l80 28h20q15 -12 28 -12h12q24 20 24 48q13 16 48 16q28 13 28 52q17 20 32 20q88 -17 136 -52q20 -21 20 -36v-4q-36 -75 -36 -96q0 -16 -24 -20l-24 4q-21 0 -28 -64
l-24 -24h-48q-16 -5 -48 -56l-12 -8h-4l-52 24q-11 -8 -84 -12q-25 -24 -56 -24q-44 36 -112 36q-117 29 -128 52q-120 96 -120 104q0 56 -68 140q-19 13 -28 40l4 28q0 22 -24 96q12 31 12 56v4l-12 48v4l16 60l-8 36l32 88q0 38 56 76q33 62 96 92q26 18 44 56
q0 15 188 48q0 7 28 8zM383 720v-4q0 -18 -17 -18q-5 0 -12 2v-18q-7 -11 -20 -35l-3 -23q9 -32 76 -32h12q47 44 72 44q38 -40 68 -40l12 4l48 -12q18 3 40 36l16 12h4l60 -32h40l36 -4q28 12 28 36v28q-15 88 -72 88l-60 52h-4l-24 -4q-13 0 -68 52q-67 0 -116 -48
q-61 0 -92 -60q-14 -3 -24 -24z" />
    <glyph glyph-name="f" unicode="f" horiz-adv-x="1318" 
d="M851 1397l60 -20h60q40 -1 40 -8l4 4q200 -42 200 -100q34 -80 72 -128v-12l-24 -52l4 -44q0 -51 -136 -92h-4l-64 20l-20 -4q-76 56 -76 84l-52 48v8q0 8 44 28l4 4v16q-45 44 -76 44h-4l-44 -48h-4l-44 32q-23 -5 -68 -40l-4 -26l-12 -4l-4 -6q-36 -28 -36 -92
q-7 0 -8 -28q10 -20 32 -20q23 32 48 32h4q34 -24 52 -24l36 8l32 -8l60 16h8q10 0 20 -52q20 -27 20 -64v-4q0 -42 -80 -56q-46 -40 -72 -40h-8q-58 40 -80 40q-42 -7 -92 -68l12 -56q-12 -21 -12 -48l20 -60l-16 -52v-20l16 -52l-8 -36v-8l16 -52v-8l-20 -56
q19 -88 36 -88h4l36 8q40 -52 48 -52h8l52 12l36 -4l36 36h12q88 -122 88 -168q-12 -22 -72 -40l-20 -16h-24l-68 -12l-128 24q-67 -32 -92 -32q-39 16 -116 32q-11 0 -60 -36h-8l-76 20h-40l-92 -32q-48 19 -48 96l-4 28q0 88 92 88q42 40 68 40l72 -36q84 12 84 76l-12 48
l8 72l-8 44l8 60q-12 45 -12 116l4 16l-4 20q0 16 24 72q-18 76 -76 76q-38 32 -92 32q-22 -2 -76 -48l-24 -4h-12q-47 39 -92 64q-20 22 -20 36q28 112 60 112l4 4h4l4 -4q66 18 168 32l64 -24q28 0 36 40l-8 24v8q48 38 48 52l-8 24v4q34 39 44 88q149 151 188 152
q32 24 108 24q33 20 52 20z" />
    <glyph glyph-name="g" unicode="g" horiz-adv-x="1374" 
d="M707 1032q15 0 60 -36l96 -28h8q29 12 88 16q44 28 60 28h16l88 4q108 -97 108 -136l16 -36q-40 -82 -40 -120q-15 -20 -60 -20q-18 -16 -36 -16h-16q-26 36 -36 36q-20 0 -76 -48l20 -56v-4q-20 -47 -20 -64l12 -56q-13 -47 -144 -120q-56 -35 -104 -48q-52 -48 -76 -48
q-26 16 -60 16q0 11 -68 28h-4l-36 -16h-20q-48 44 -64 44q-46 -16 -52 -32v-12q28 -39 28 -52h-4l-4 -4q6 -52 44 -52l24 20q0 20 36 28q57 -36 72 -36h36q13 0 72 36h12l40 -4q12 0 44 32h4l12 -12l-8 -8v-20l16 -16h28q48 32 60 32h8q12 -5 48 -56h60q39 -36 92 -36
q116 -91 116 -144l12 -80l-24 -92q0 -22 -44 -80q0 -34 -152 -96h-24l-24 4q-13 0 -56 -44h-12l-44 8l-132 -32l-92 16h-4q-28 0 -48 -4l-64 -16q-123 40 -148 40q-21 0 -40 -16h-20q-9 0 -28 56l-24 20h-12l-20 -12h-8l-12 12l8 8v4q0 22 -68 72l-32 92v4l28 128
q9 47 88 116l-4 4v12q16 0 16 8v28q0 15 -32 80v4l36 128l36 68l24 28v12l-20 60l16 44v4l-24 68q20 40 20 124q64 57 64 120q15 47 100 56l60 40l64 -4q81 8 144 24zM599 812l-48 4q-2 -8 -20 -16q0 -25 -56 -60q-40 -69 -40 -84q20 -72 44 -72q28 -9 28 -28l-4 -40
q48 -88 116 -88h8q13 0 60 28h8q21 0 36 -12h16q12 0 24 56q14 17 68 52l24 52l-16 56l4 68q-5 28 -28 28l-12 -12l4 -4v-4q-16 -48 -44 -48h-4q-14 8 -20 24q0 13 20 40q0 32 -28 48h-4q-14 0 -40 -20h-12l-12 12v32l-8 8zM287 -64v-24q19 -19 44 -68l20 -4h4l16 4
q10 0 68 -44l12 -4l32 8l48 -16q23 2 36 12q25 -9 52 -36h12q32 20 60 20l88 -20l24 -4h12l52 36l20 12l20 -4h8q22 0 64 44q64 0 72 76v8q0 44 -52 76q-40 0 -96 52q-40 0 -100 36l-32 4h-24q-44 -32 -60 -32h-16q-42 40 -60 40q-33 0 -108 -44q-72 0 -92 -32
q0 -17 -68 -24q-24 -23 -24 -36z" />
    <glyph glyph-name="h" unicode="h" horiz-adv-x="1415" 
d="M263 1357q81 -16 111 -27l35 14l58 -34l21 -37l11 -66l-16 -143l12 -36l-4 -52q0 -29 24 -36q14 0 36 36l16 8l52 -16q30 0 92 52l28 4h16l16 -4l72 12h20q49 -24 76 -24q71 0 188 -168q12 -22 16 -84l16 -52v-68l-12 -124l16 -64v-12l-8 -36l4 -4v-4l-4 -4v-4l4 -4v-4
l-8 -92l8 -28l-4 -4v-4q3 -22 92 -100q68 -16 68 -64v-4l6 -41l-22 -51h-72l-40 -4l-40 4l-56 -18h-12l-76 18l-80 8l-32 -8h-4q-52 0 -52 98q0 30 40 56h36q38 28 68 98v4l-24 60l16 24q0 26 -24 76v12q32 40 32 56l-20 52q27 36 32 60q-44 43 -44 60l8 52v4q-18 72 -64 72
q-40 8 -48 16q-22 -3 -94 -7l-106 -21q-42 -52 -80 -64l-76 -76v-4l8 -60l-16 -40v-4q0 -12 24 -48q0 -15 -24 -40l-4 -20l20 -36v-16q-16 -40 -16 -64q16 -38 20 -104l20 -16q15 0 108 -40q6 0 16 -44q-14 -80 -60 -80h-28q-56 -26 -68 -26h-4l-68 14l-57 4q-14 -4 -71 -26
h-12q-19 0 -84 30q-64 0 -64 52v32q7 51 41 51l47 17q72 32 72 52v8h4l4 -4h4v4l-4 24l8 12l-4 4v4l20 92l-20 92h4l-4 4l8 76v52q-8 8 -16 60q7 40 16 40l-4 4l4 12l-8 52q8 16 8 44l-16 124l4 20q-8 9 -16 52l4 48q-8 96 -24 96q-12 44 -52 44l-35 30l-42 11l-27 65l-4 12
q11 68 80 68q23 -6 43 -6q23 0 41 9z" />
    <glyph glyph-name="i" unicode="i" horiz-adv-x="1103" 
d="M615 984q52 -68 52 -84l-4 -64q12 -19 12 -52l-8 -36v-12l16 -64q-20 -44 -20 -64l16 -40v-12l-20 -68l8 -44q-2 -23 -12 -36v-8l16 -56v-8q0 -15 -16 -40v-20q0 -15 40 -52v-28l-4 -4v-4q13 -24 32 -24l76 24h4q53 -24 116 -24q37 2 48 12h20q15 -3 36 -68q10 0 12 -48
q0 -53 -84 -68q-21 -20 -56 -32l-44 24l-20 8q-81 0 -140 -24l-60 28h-68l-76 -28q-48 32 -64 32h-28q-48 0 -108 24l-104 -28q-48 25 -48 68q12 33 16 88q18 24 40 24l60 -12q14 21 32 28q21 -3 36 -24l20 -4l64 16l32 -12h4q19 0 28 12l-4 44q40 34 40 56v4q-36 41 -36 60
l20 44v8l-16 48l20 60l-20 64l12 32q-24 58 -24 76l12 40v16q-43 80 -56 80l-44 -4h-12q-13 20 -116 24l-60 -40q-47 0 -56 96v8q0 108 92 108q37 20 57 24l71 -28h56q28 -4 58 -14q15 5 34 12l33 10l50 -6zM531 1124l-32 36l-4 -4h-20q-23 0 -56 36q-56 53 -56 64
q16 55 20 140q21 5 64 76l24 12l76 -24q59 0 104 -64q52 -29 52 -64q0 -43 -20 -72l8 -48q0 -21 -60 -24q-12 -8 -32 -60q-54 -4 -68 -4z" />
    <glyph glyph-name="j" unicode="j" horiz-adv-x="1118" 
d="M683 1476h84q80 0 124 -112v-8q0 -37 -72 -124l-4 -16l4 -12q0 -33 -52 -48l-52 40q-74 0 -92 52q-1 10 -40 36l-8 20q20 22 20 88q74 84 88 84zM671 1040q98 -28 120 -28q20 -8 96 -80l8 -20l-8 -64l16 -60v-4l-16 -64l16 -56v-4l-8 -32v-16l20 -52l-20 -48l16 -56v-16
l-8 -44v-20l12 -40v-16l-12 -40v-8l12 -56l-20 -56l16 -64l-16 -64l8 -52l-32 -132q-7 0 -24 -52l-68 -68l4 -20v-16l-16 -16l-44 4q-9 0 -32 -44l-20 -12l-56 16h-4l-56 -16h-12l-4 4l-64 -28l-64 28q-66 0 -104 44q-24 20 -68 32q-40 60 -68 60l-16 20l4 60l-44 60v20
l8 32v16l-16 60q38 127 60 132q64 8 92 40l8 8h8l44 -48q60 -7 60 -24l-4 -48q24 -48 24 -64q-10 -28 -48 -60q-56 -46 -56 -60q0 -34 92 -68q38 -52 64 -52h32q21 0 72 56q72 0 72 36q0 7 52 44l4 4v4q-2 12 -20 28q-20 14 -20 40l24 16h20q16 19 16 60q10 0 12 32l-4 64
l16 52l-16 64l16 60l-8 40q4 144 16 176l-20 60l8 56l-12 48l8 64v4q-32 48 -84 48q-50 -32 -64 -32h-4q-45 36 -60 36l-48 -4l-64 28q-44 0 -136 -32h-4q-112 50 -112 88q0 33 68 44q0 10 48 24h4l68 -12h56l72 36h4l84 -16q52 0 96 28z" />
    <glyph glyph-name="k" unicode="k" horiz-adv-x="1366" 
d="M524 394h-4q-35 -31 -40 -48l8 -44l-20 -52v-8q16 -40 16 -64l-4 -16q6 -20 28 -20l40 28h20q48 -54 112 -68v-4q32 6 52 24q14 24 34 25q17 0 17 11v4q-3 8 -3 16q0 19 -44 44q0 84 -28 84l-12 8l-36 36q0 19 -68 76h-8q-30 0 -60 -32zM208 1358l68 -20l116 4
q56 0 56 -68q28 -36 28 -72l-12 -44l16 -76l-16 -52l16 -48l-20 -48l24 -56v-8q0 -10 -32 -56v-8q24 -43 24 -68l-24 -44l16 -44v-16l-12 -36l20 -32h20l32 48q72 31 112 92l44 40q22 9 24 24l-8 44l8 44l-8 72q0 38 60 48h12l4 -4l64 18h4l48 -18h28l37 24l43 -20l56 14
l52 -10l60 4q34 0 72 -72q13 -4 28 -40v-8q-84 -92 -108 -92h-4l-96 36h-28q-12 0 -68 -36q-27 0 -80 -44l-24 -32l8 -44v-8q-3 -7 -52 -24q-11 -11 -16 -60q-28 -11 -28 -32l29 -102l71 -42q9 -93 96 -116q11 -5 28 -68l24 -16l39 -7l25 -37l4 -4h8q12 0 42 -20q29 7 48 7
q18 0 24 -8l26 -51v-4l-24 -48q-35 -19 -91 -27q-15 -3 -28 -3q-37 0 -61 18l-4 4h-4l-64 -24l-64 16l-24 -4l-48 12h-8q-30 -24 -48 -24h-20q-28 0 -56 56l-20 4q-12 0 -100 -60l-32 -4l-100 32h-20q-47 -32 -76 -32q-26 24 -52 24t-53 -24h-16q0 -3 -6 -3q-16 0 -69 19
l-24 24v4l-14 33l3 34q6 7 36 24q50 38 64 38l4 4h4l40 -4q51 27 51 55l-8 44l8 64q-12 21 -12 48q16 40 16 60l-20 48v4l16 48l-12 56q6 48 12 48l-20 76v16q28 34 28 48v8l-28 48l16 44v16l-16 48v12l16 48l-20 56q0 23 12 40v4q-9 80 -72 80q-56 0 -116 64q-32 13 -32 40
v4q0 24 44 43.5t84 36.5z" />
    <glyph glyph-name="l" unicode="l" horiz-adv-x="1150" 
d="M297 1396q56 -16 152 -28l68 16l120 -32l80 -96v-8l-28 -60v-8l20 -64l-16 -52l16 -44q-28 -52 -28 -68q24 -41 24 -64l-16 -32l16 -68v-8l-12 -44l4 -72l-4 -68q9 0 20 -40q-16 -28 -24 -68l4 -4v-4l-12 -68l4 -44l-4 -24l8 -8l-8 -12v-4q12 0 12 -8v-8q-20 -45 -20 -92
v-4q0 -46 96 -60l56 32l48 -16l44 4h8l56 -12l40 12h16q28 -19 28 -52l-4 -60l12 -32v-20q-18 -32 -64 -32l-12 4q-61 -36 -76 -36q-56 28 -76 28h-40l-20 12q-12 0 -64 -36l-68 36h-52q-18 0 -80 -36q-52 40 -96 40l-36 4q-20 -4 -56 -32h-12q-34 29 -104 29q-16 0 -33 -1
l-74 -14l-12 16q-13 33 -13 98v20q5 20 88 52q20 28 68 28h4q33 -32 104 -32l20 -4l56 36q14 0 48 -24q24 0 24 56l12 20v24l-16 52l20 68l-16 52l8 44q-8 61 -16 68v20l20 60q-12 21 -12 40v8l12 48v4l-24 60q0 25 20 44l-4 4l4 20l-16 32v16l20 56l-28 64l4 36
q-21 92 -68 92l-64 4q-22 -9 -43 -26q-19 7 -26 16t-27 10h-4l-48 -12h-8l-68 36q-72 11 -72 56q61 126 136 144h4l44 -4z" />
    <glyph glyph-name="m" unicode="m" horiz-adv-x="1521" 
d="M614 1032q45 0 164 -36h4l32 4l60 -8q41 20 68 20h24q28 20 52 20q62 -24 116 -32q35 -6 116 -116l32 -116l-12 -40v-8l20 -76l-8 -56l8 -44l-20 -64q16 -32 16 -56l-8 -44l4 -76l-12 -32q0 -60 108 -100q40 -47 40 -88q-45 -88 -72 -88h-20l-60 24q-25 0 -112 -28h-8
l-96 28l-4 -4h-4l-40 8q-54 -28 -80 -28l-116 16l-60 -20q-27 12 -148 16q-39 -24 -64 -24q-84 24 -124 24h-4l-80 -28q-16 0 -100 32q-76 6 -76 72v16q37 104 60 104l48 -4q20 16 20 72q12 9 12 28l-20 52l12 44l-4 4l4 20q-16 26 -16 60q0 28 12 56l-8 68l8 40l-8 80h4
q0 65 -44 84q-68 15 -68 24l-20 28v84q24 80 80 80l52 -16l56 4l28 -4l60 4q46 -32 60 -32q46 28 136 52zM458 700l16 -52l-12 -48l16 -60v-20l-8 -44v-4l8 -44l-20 -68l16 -68l-8 -36v-20q20 -56 68 -56l44 -40h16q16 7 64 36q28 3 28 24l-8 64l12 48q-8 35 -24 52v16
l20 44v4l-20 60q28 52 28 64q-8 0 -16 40v20l8 12v20l-20 56l16 48q-28 62 -88 84q-15 -1 -68 -64q-68 -26 -68 -68zM866 704l8 -56l-4 -60l8 -36v-8l-16 -48v-24l24 -80v-68l-4 -44l4 -52v-28q0 -7 28 -24l4 4h12q19 0 56 -36h8l45 44q8 22 52 41q-1 41 -1 83l-12 44v16
l16 64q-10 0 -24 48l20 68l-20 36v28l20 48q-9 92 -39 126l-26 18l-27 8l-68 -36q-34 0 -64 -76z" />
    <glyph glyph-name="n" unicode="n" horiz-adv-x="1445" 
d="M772 1032q92 -20 168 -20l16 4q60 -27 60 -68q112 -110 112 -152l32 -160l-16 -136l12 -60v-4l-12 -68v-4l20 -68l-4 -24v-4q0 -22 112 -68q72 0 72 -84l4 -20v-16q0 -48 -64 -92h-48l-4 4l-64 -12l-24 4l-64 -4l-60 28q-75 0 -140 -24q-16 0 -72 60q-40 20 -48 36v16
q0 40 48 56l52 36h32l24 -4l32 28q20 32 20 48l-20 56v8l16 56v24l-4 24q12 26 12 56l-8 44v12l12 48q-20 53 -20 72q3 24 8 24q-4 29 -56 120l-20 4l-12 -4q-43 52 -64 56l-60 -12h-32l-52 -44l-48 -20q-36 -60 -80 -60q-16 -6 -40 -72q-8 0 -16 -32l8 -36l-24 -56v-8
l28 -40l-24 -56q36 -52 36 -68t-40 -48v-12q0 -10 28 -48q0 -56 40 -56q39 24 52 24q39 0 68 -140q-34 -49 -60 -68h-40l-72 -24l-80 32h-8q-21 0 -124 -32l-88 32q-31 0 -48 36q0 104 56 104l4 -4h4q68 28 68 64q0 29 28 48l12 16l-12 52l16 60l-4 16l4 4v4q-24 33 -24 48
q0 28 20 40q-4 18 -24 44l-8 20l16 44l-16 68l28 56q-7 28 -76 64q0 22 -72 32q-28 18 -28 80q3 64 36 64l24 -8h20q28 20 52 20h52q40 24 52 24h8q14 0 68 -48q31 0 72 -48h12q139 92 176 92q29 24 72 24z" />
    <glyph glyph-name="o" unicode="o" horiz-adv-x="1192" 
d="M568 1072q54 -30 152 -44l24 -4v-4l12 4q16 0 68 -44q51 0 176 -160l76 -176l-8 -48l12 -112q0 -50 -72 -264q-50 -43 -76 -96q-10 -11 -12 -40h-4l4 -4v-4q-21 -44 -48 -44l-32 4q-8 0 -60 -44h-12l-56 20q-20 -17 -136 -48q-15 0 -92 36q-55 5 -172 88q-9 17 -72 52
q-48 94 -56 96q-56 103 -56 128l4 28l-8 48l8 72l-4 76l8 36v28l-4 24q0 11 52 100q33 51 40 92q116 120 168 120q43 32 120 48q28 36 56 36zM384 728v-4l8 -40l-60 -48l-20 -92v-40q27 -128 52 -128l24 -24l-8 -40q0 -42 72 -88q30 0 112 -48l32 -4q11 0 56 44l20 4l40 -4
l56 52q40 0 72 96l-4 40l24 96l-8 28l4 60q-29 42 -52 136q-103 100 -120 100l-4 -4h-4q-29 2 -80 48h-24q-30 -22 -132 -68q-56 -52 -56 -72z" />
    <glyph glyph-name="p" unicode="p" horiz-adv-x="1274" 
d="M657 1035h20l52 -16l20 4q21 0 84 -28l88 -28l36 4q18 -15 60 -88q84 -88 84 -108q27 -92 72 -168v-8l-20 -56l16 -44v-8l-12 -56l12 -60v-4q-64 -133 -64 -156q0 -42 -56 -60q-72 -55 -72 -124l-28 -20l-44 24h-12q-50 -48 -60 -48h-4q-32 0 -32 8l-36 -12l-44 8
q-57 -36 -68 -36l-52 48h-4l-56 -4l-32 12q-16 0 -16 -24l-40 -52v-24q20 -30 20 -52l-16 -44q0 -27 72 -60l28 -2l70 -20q19 -7 20 -53l1 -54q-22 -14 -45 -14q-21 0 -43 12q-53 -25 -103 -25h-8l-48 28l-44 -4h-4q-22 0 -44 12l-52 -24l-48 32l-28 -4h-4q-44 8 -44 44v44
q0 48 76 48l68 24q23 13 32 48l-4 4v8l4 4q-12 32 -12 60l16 64l-8 60l12 56l-16 56l4 56q0 46 -52 100v8q36 36 36 56q-28 36 -28 52l40 64l8 40q-7 67 -44 112q-8 0 -8 16q48 61 48 72v16q-16 12 -16 24l-4 -4h-4q-9 0 -56 48h-4l-60 -8q-32 25 -32 48h4l-16 80
q0 54 136 72h28q17 -12 32 -12l36 4q42 0 72 -44l24 -12q49 0 112 52q76 12 104 36zM461 727l-4 4h-4l-4 -4l4 -4v-4l-4 -12l36 -32v-20q-28 -32 -28 -56l16 -40v-4q0 -12 -28 -48v-8l40 -52v-12q0 -15 -36 -60v-4q0 -14 32 -60q0 -59 64 -120q28 0 88 -48q28 0 84 -20
q20 0 52 32h32q36 0 36 60q15 12 28 12l32 -4q23 0 36 64q36 25 36 52l-20 28v20l44 52v4l-44 52v16l28 36v12q-32 38 -32 56l12 44v16q-41 80 -100 80q-67 48 -84 48l-4 4l-12 -4q-11 0 -68 40l-16 4q-15 0 -84 -40q-26 0 -104 -68q-11 0 -24 -12z" />
    <glyph glyph-name="q" unicode="q" horiz-adv-x="1262" 
d="M530 1042q40 -24 104 -24l60 12q24 0 84 -48q48 0 80 -28h16q10 2 28 40l4 4h12q43 -44 88 -44q16 -17 16 -32l-4 -24l20 -80v-12q0 -40 -8 -40l8 -80l-8 -36v-16l8 -32v-8l-20 -84l16 -48l-4 -84l8 -24l-16 -52v-28l8 -12v-20l-12 -56l20 -64l-16 -60v-4l16 -60l-16 -44
l16 -60l-20 -56q33 -84 56 -84l36 4h12l24 -4l38 -17l-2 -3q48 -33 48 -60v-12l-24 -24l-52 12l-68 -8l-4 4h-4q-65 -24 -88 -24q-23 12 -52 12l-24 -8h-4l-4 4l-4 -4h-4l-24 16q-42 -24 -56 -24l-68 16q-17 0 -44 -20q-34 0 -60 96q20 56 80 56q53 36 76 36q40 -32 56 -32
l12 20v36l4 76l-16 44l4 44l-8 16h-8l-52 -24l-64 4l-24 -44l-4 -4h-16q-10 4 -28 40l-20 4q-4 -12 -24 -12h-36l-72 -24h-4l-48 48h-8l-32 -8h-16q-27 0 -56 56q-64 14 -64 24q-10 1 -24 72q-39 57 -72 84q-23 0 -36 108l-4 16v20l8 44v8l-16 76l8 32l-4 4l4 20l-8 48
l20 72l-4 48q0 9 48 48q52 77 76 140q22 24 88 52q12 27 160 84h8zM598 798l-56 24h-4q-20 0 -40 -48q-56 0 -56 -16v-32q0 -40 -52 -60q-47 -45 -48 -76l4 -64q-6 0 -24 -40l16 -56l-8 -48q32 -100 80 -100q28 -24 28 -76q7 -12 24 -12v-8q12 0 20 -20l52 -20h12l48 16h12
l56 -40h4q100 27 140 80q0 13 20 32q24 0 32 92l20 32v4q0 17 -24 64l16 52v4l-20 64v8l12 52q-19 104 -52 120l4 4v4l-52 56q-35 44 -68 44h-12z" />
    <glyph glyph-name="r" unicode="r" horiz-adv-x="1342" 
d="M988 1058q49 -28 116 -44l76 -88l46 -52l18 -76l12 -96q0 -21 -52 -104l-3 -11l-42 -17q-40 -24 -95 -36h-4l-56 4h-4q-31 13 -75 37l1 8q38 35 38 53q0 8 -17 73l1 16q25 24 25 49q0 16 -10 33q-18 37 -99 43h-4l-28 -24l-32 -28l-64 20q-18 0 -36 -72q-92 -89 -92 -124
v-12l4 -24q-12 -33 -12 -56l20 -60l-16 -48l12 -64l-12 -64q11 -56 66 -133q35 11 70 11l16 -4l20 4q21 0 66 -23l59 -33v-50l4 -24q0 -21 -39 -54q-43 -4 -86 -18l-103 24h-8q-4 1 -9 1q-31 0 -84 -21h-20l-32 24h-16l-48 -16l-44 4l-53 -10l-15 -2q-17 13 -60 20l-36 -4
l-36 12l-44 -16q-15 0 -40 114q0 28 88 64q33 14 65 14h16q31 -18 67 -18q52 65 52 90q0 108 8 108q0 81 -35 106l-3 14l22 60q-12 21 -12 48l28 68l-29 18l-2 15l7 39l12 33q0 39 -128 63l-64 8l-36 -12h-16q-45 48 -56 96v32q16 42 48 64l112 32q45 -12 135 -33l33 17
l24 3l92 -51q28 -15 64 -20q20 8 60 56z" />
    <glyph glyph-name="s" unicode="s" horiz-adv-x="1148" 
d="M914 490q72 -35 72 -80q36 -59 36 -104l4 -80q0 -23 -40 -108q0 -49 -64 -68q-45 -52 -72 -52h-32q-55 -44 -72 -44l-56 32q-45 0 -136 -36h-4l-60 32l-92 8l-32 -2l-16 14l-8 20h-4q-48 -44 -64 -44q-76 7 -76 60q0 18 -32 68q0 30 -36 96v12l12 40v16q-7 22 -11 35
l2 23q46 56 77 78q11 10 40 12q48 0 48 -64q33 -104 80 -104q38 -56 100 -56q27 -39 104 -56q19 3 64 56l20 4l48 -20h16q11 0 20 48l16 12l32 -4l16 24v36q0 102 -112 120l-49 -2l-75 -6l-45 26l-62 11l-86 55q-54 5 -107 48q-76 22 -76 76l-20 36v4l4 4l-8 24v12
q0 29 20 96l-4 40q0 40 160 144q84 24 168 28q0 11 52 20q43 -19 116 -36q0 -10 80 -20l80 36l16 4q40 0 60 -108q5 0 20 -64q20 -18 32 -52l-4 -44v-8l12 -60q0 -40 -80 -64l-51 28l-41 36l-28 32l-8 16l-72 52q-24 27 -100 56q0 14 -80 16q-51 -45 -76 -52l-20 4
q-22 0 -44 -56q-12 0 -12 -28v-12q43 -68 96 -68q13 -13 128 -28h4l27 -15l15 3l22 3q51 -35 132 -35l12 -12h16q66 -24 88 -64z" />
    <glyph glyph-name="t" unicode="t" horiz-adv-x="1128" 
d="M484 1394q39 0 80 -120l-8 -24v-60l-12 -60v-8l32 -52l-4 -4v-4q0 -28 28 -44h20l56 20l56 -20h48l64 -8l40 8q44 -22 44 -60l-4 -24v-16l4 -16q0 -50 -80 -64q-40 -36 -60 -36t-64 32l-20 4l-24 -4l-28 4l-56 -28q-48 -12 -48 -44v-8l28 -40v-8l-28 -96l4 -36v-12
l-4 -36l12 -72l-12 -56l8 -64v-24q21 -28 48 -36l-12 -48l52 -40q7 -13 52 -24q70 0 88 64l-4 36l32 20l12 -4q24 19 48 80q52 28 100 28q54 -41 72 -104l4 -12q-24 -48 -40 -116q-44 -29 -80 -92q-50 -26 -116 -76h-20l-16 4l-64 -40l-64 36l-20 -4q-23 0 -104 56
q-24 0 -80 76q-44 29 -44 36v48q0 17 -36 84v4l8 40l-8 64l16 44l-28 68l8 48l-12 60l16 56v16l-12 48l8 36q-10 26 -64 68q-44 0 -104 -48l-20 -4q-30 2 -124 64q-16 17 -16 40v32q0 57 92 76q15 12 48 20l36 -4h8l48 12h8l76 -24l8 32l-12 36l12 56l-16 64l16 68l-4 24v4
q0 56 100 100z" />
    <glyph glyph-name="u" unicode="u" horiz-adv-x="1345" 
d="M149 1032l48 -4l24 4q30 -6 60 -36q47 0 118 -80q32 -24 32 -100l-16 -52l4 -36l-8 -40l12 -76v-32l-8 -32l12 -48l-12 -60l20 -52v-4l-12 -48q0 -50 70 -100q23 -68 52 -68l28 8l60 -32q88 13 112 48q8 16 52 28q60 57 60 76l-4 44q0 11 32 60v4l-32 44v4q0 16 24 52
q-4 23 -32 52q0 19 40 68l4 16q-32 31 -32 52q24 29 24 44q-68 88 -104 88q-116 10 -116 76v16q58 84 100 84l64 -16q63 0 132 28h4q90 -43 90 -100l28 -108l-8 -60l8 -64l-20 -56l12 -52l-16 -64l24 -56l-8 -68l8 -44l-20 -64q8 -12 12 -20l2 -13l-6 -15v-28q48 -36 66 -36
l44 12q47 0 64 -116q0 -60 -144 -92h-12q-167 46 -172 72l-40 16q-13 0 -84 -56q-16 0 -100 -40h-12l-64 28l-20 -4l-92 4q-14 0 -60 32l-28 8l-4 -4h-4q-39 0 -84 112q-71 61 -104 192l4 48l-12 56l16 52v20l-12 40v12l12 48l-12 52l20 72q-15 76 -76 76q-40 6 -40 36l8 48
l-16 68q3 40 36 76h4z" />
    <glyph glyph-name="v" unicode="v" horiz-adv-x="1216" 
d="M167 1034l49 7q94 -28 144 -28l72 20q17 0 79 -26q56 -17 56 -44q-45 -108 -96 -108l-26 -82l8 -24l-16 -48q36 -67 36 -88h-4q9 -56 24 -56q0 -56 39 -84q6 -17 6 -33q0 -14 -5 -27q3 -19 46 -64l37 -4q43 59 43 80v37q48 26 48 63q24 29 24 56l-8 48l62 63q4 60 18 81
l-20 22q-8 0 -9 43q-42 0 -75 37l-4 4h-32q-36 8 -36 20v16q64 104 136 104l76 16l52 -12l48 4q120 -8 160 -24v-4l4 4h28l20 -20v-16l-4 -20l-21 -54l-51 -30l-88 -68q-11 -59 -56 -120l12 -40q0 -16 -52 -84q-16 -45 -24 -104q-60 -64 -64 -124l4 -32l-32 -80v-40
q0 -19 -56 -68q-39 -51 -48 -108q-11 -16 -28 -16l-68 8l-16 -4q-51 0 -132 120v12l16 32l-36 64q0 34 -36 144q-44 33 -44 52q0 29 -40 92v4l4 48q-36 48 -36 160q-5 21 -60 76q0 44 -62 79q-49 40 -88 40q-25 18 -25 48q0 9 3 19q9 44 66 44q33 24 48 24h4z" />
    <glyph glyph-name="w" unicode="w" horiz-adv-x="1438" 
d="M251 1022q47 -19 136 -32q69 -6 99 -46v-4q0 -40 -60 -56q-44 -41 -44 -68q28 -48 28 -76l-4 -12q19 -92 68 -132v-12q-21 -32 -32 -32v-12q0 -16 36 -52v-12l-8 -36v-4l20 -20h8q20 0 36 72l-4 44l28 48v8l-28 60v8q36 37 36 52q0 10 -36 40v16q0 8 52 40q0 12 8 12
q-2 14 -40 56q0 17 56 32q10 80 80 80h8l4 -4l60 20q37 -42 80 -72q0 -18 -12 -36v-24q28 -40 28 -52v-8q-24 -25 -24 -40l36 -60v-44q0 -13 36 -64v-8l-8 -48l32 -52v-12l-4 -20l20 -16h12q20 11 36 40q-23 27 -28 52q0 8 44 44q11 0 24 132l-4 4v4l24 64q0 64 -32 92h-4
l-44 -8h-4q-16 7 -16 28l20 72q0 20 92 40l72 -4q21 12 40 12l60 -12l32 8h16q48 -30 85 -67l-4 -42q-85 -32 -121 -61l-5 -60l-47 -130q-36 -45 -36 -60l12 -44q-52 -49 -52 -156q0 -23 -36 -80l8 -44l-40 -88q16 -30 16 -48q-24 -20 -56 -112q-11 -12 -92 -28
q-18 -10 -38 -10q-18 7 -32 28l-10 18l4 4l-36 120l8 36l-8 52v4l4 24q0 21 -56 40v16q21 28 36 28v12q-32 42 -32 60l8 56l-32 88l4 12v4h-4l-4 -16h-8v8h-8l-16 -32l-4 -16l8 -36v-8l-56 -60l-4 -16q20 -31 20 -44l-28 -68q28 -48 28 -60v-4q-60 -58 -60 -172
q-20 -32 -72 -44q-46 -40 -60 -40h-12q-26 5 -68 112l4 12q0 19 -44 88l-4 4v4l4 44v4l-40 44v8l16 56q-24 49 -24 116q-7 1 -44 92q-12 5 -24 100q-32 33 -32 56l8 36v8q0 62 -80 72l-76 80v8l53 78q24 16 40 16l48 -12z" />
    <glyph glyph-name="x" unicode="x" horiz-adv-x="1367" 
d="M802 850q-52 50 -52 72v8q0 38 152 96h4l56 -20l48 4l32 -4l56 28l136 -56q20 -19 20 -40q0 -35 -28 -92q-6 -16 -28 -16h-8q-14 12 -32 12l-64 -12l-4 4h-4q-17 -8 -88 -76q-13 0 -24 -32q-32 0 -36 -84l-72 -40q-34 -42 -48 -72q20 -104 48 -104l20 -9l16 -5l1 -11
l3 -19v-8q0 -17 40 -52q0 -30 88 -60l4 -4v-8l-16 -44v-12q0 -10 32 -16l56 28q9 0 52 -40l12 -4l32 8q18 -7 28 -24q0 -17 -28 -68v-4q0 -23 16 -44v-4l-20 -24h-8l-52 32h-52q-73 -48 -84 -48h-8l-72 36l-36 4q-31 0 -80 -32h-8q-22 0 -32 20v4l8 60l-16 56q0 24 64 36
l4 4v20q-27 33 -56 52q0 92 -80 120h-8q-68 -50 -68 -92l4 -25l-16 -12q-14 -8 -24 -27l-12 -24q0 -10 52 -40q16 -18 16 -28l-12 -56l4 -20q-15 -56 -32 -56h-4l-56 28h-4q-92 0 -112 -44l-28 -4q-32 23 -152 36l-40 -24h-12q-32 0 -52 140q0 34 52 44q37 0 88 40
q80 0 80 24q4 17 84 84q25 45 36 100q11 11 52 24q15 0 24 52q11 8 20 44q-31 60 -80 60q-11 37 -48 84l-42 30q6 29 6 42q-17 17 -72 36q0 17 -80 40h-20l-44 -36h-4q-6 0 -36 56q-40 34 -40 56v12q40 112 64 112l40 -12l172 8l44 -16l60 16h20l44 -8l24 12q20 -12 32 -36
q10 0 32 -64v-8l-52 -84l-14 -48q8 -47 58 -72q13 -32 48 -32h4q50 0 88 52q37 18 52 40l27 55l-5 11z" />
    <glyph glyph-name="y" unicode="y" horiz-adv-x="1373" 
d="M1069 1054l64 -24l4 4h4q136 -5 136 -44q10 0 16 -32v-28q0 -46 -36 -64l-60 -48h-40l-4 4q-32 0 -32 -56q-32 -38 -32 -92q-51 -51 -92 -136l4 -36q0 -10 -36 -64l4 -36l-52 -84q-20 -44 -20 -60v-8l4 -24q-2 -22 -44 -72l12 -48q-69 -59 -80 -136l-4 -4v-4l8 -32
q0 -16 -44 -76v-8l4 -28q-51 -41 -72 -92l-108 -84l-20 -4l-4 4q-15 0 -92 -36h-16q-70 28 -172 48v4l4 4q-35 0 -116 100q-27 0 -44 108q-16 25 -16 48q0 47 48 120q56 22 64 32q22 48 48 48q19 0 64 -52q64 -3 64 -64q20 -25 20 -52v-40l-24 -80l8 -8v-36l20 -12
q93 0 112 48q32 31 32 52l-12 24v12q6 16 56 32q48 91 48 108q-20 33 -20 48l12 40l-24 64q0 13 -40 64l-8 16q12 18 12 36q-48 45 -48 80v8l4 16q-26 88 -76 112q-12 0 -16 68q-24 27 -40 80q-50 18 -56 28v24q12 15 12 36v4q-52 64 -116 64l-16 4h-4q-23 0 -44 -44h-16
q-19 0 -32 84q-12 0 -20 72q0 53 104 72q24 20 40 20l144 -24l64 28l64 -28l60 4q78 -21 80 -36l16 -96q0 -15 -60 -40q0 -28 -48 -64v-8h-4q0 -20 40 -52l8 -16l-4 -20v-32q16 -92 60 -92l8 -12v-16l-24 -36q0 -13 48 -48q21 -48 32 -48q9 15 52 40q32 22 32 68l-4 36
q1 18 40 68v16l-16 44v4l36 48v8q0 14 -16 32v20q0 16 36 16l4 4v12q0 15 -68 36q-19 13 -36 52q-50 21 -56 36v8q0 17 76 40q22 24 56 40l56 -12q93 0 140 28z" />
    <glyph glyph-name="z" unicode="z" horiz-adv-x="1203" 
d="M311 1032h12q67 -28 100 -28h16q39 0 80 20h8l72 -20q50 0 128 28l80 -32q32 0 72 -12l56 28h8q40 -23 60 -84q0 -59 -44 -136q0 -51 -64 -68q-10 -41 -121 -114q-8 -10 -30 -63q-50 -47 -109 -115l-12 -16l-4 -19l-20 -13q-28 -20 -48 -80q-88 -62 -88 -112l16 -16
l44 32h4l64 -32l44 8l52 -4l36 28h8l56 -32l80 4q31 25 36 68l-12 68l20 56l-4 20v16q10 30 76 48q29 36 44 36q20 0 40 -76q12 -22 16 -52l-16 -60l8 -36l-20 -72l4 -64q-30 -64 -96 -100q-93 -40 -136 -48l-60 24l-44 -20l-36 12l-60 -16q-14 0 -76 32l-120 -32
q-85 24 -116 24l-84 -32h-16q-39 11 -40 96q-19 51 -20 84l40 108q19 16 32 16v-4q27 0 84 72q47 23 64 56q45 64 68 76l4 -4h4q40 22 40 68q9 15 76 52q27 39 112 116q18 77 60 96q8 0 8 12q0 24 -72 24q-20 -21 -48 -36l-60 28h-36q-32 0 -108 -48q-35 0 -68 -72l-12 -68
q0 -37 -56 -60q-29 -36 -56 -36h-16q-25 0 -64 160l12 52v4l-8 44v16q29 30 52 132q30 32 104 68z" />
    <glyph glyph-name="braceleft" unicode="{" 
d="M535 1595h12q63 -6 63 -66q0 -7 -1 -13l-60 -79l-8 -19q0 -6 -20 -45l-44 -19q-40 0 -68 -76q-64 -21 -64 -79l-57 -53v-59l-3 -24q-51 -30 -56 -56l28 -109q0 -13 -52 -42l-12 -34q19 -37 32 -124q2 0 2 -7q0 -13 -8 -50l29 -57l-13 -77l41 -52l5 -74l59 -51v-14
q0 -71 48 -105l36 -38v-38q0 -37 37 -61q13 -86 60 -109q22 -30 32 -83l11 -26v-3q0 -41 -93 -41q-55 38 -92 38l-4 19l8 37q0 10 -83 73l-24 83q-30 32 -62 66q-31 42 -47 148q-31 60 -40 101q-28 18 -28 46l4 15q-28 43 -40 87l4 67l-28 244l32 99q0 86 40 113q9 0 20 106
q100 86 100 94v27q15 76 52 105l24 42q31 15 48 52q8 14 80 57q60 64 100 64z" />
    <glyph glyph-name="bar" unicode="|" horiz-adv-x="419" 
d="M81 1413l11 5q6 2 12 2q32 0 75 -58h2q10 0 44 -26q3 -4 3 -11q0 -20 -32 -66q1 -21 37 -81l-35 -76l-3 -53q13 -28 13 -46q0 -6 -2 -11l-13 -26l13 -11l10 -14v-1q0 -16 -23 -42q10 -13 10 -39q0 -16 -4 -37l6 -15l12 -9q1 -2 1 -6q0 -14 -20 -50l-18 -86l34 -27
l-26 -58q4 -5 4 -14q0 -19 -19 -58l22 -18l6 -8l-46 -105l1 -13l41 -24q1 -1 1 -3q0 -12 -30 -57q0 -57 27 -106q-16 -32 -16 -79q0 -35 9 -78q-14 -28 -70 -84l-14 -5q-57 14 -76 40q-20 27 -20 68q0 11 2 24l-4 5l-17 17v2q0 12 25 70l5 61l-2 9l-5 1l-12 16q16 38 16 79
q0 38 -14 79q26 46 26 90q0 23 -7 45q-5 7 -5 118q-8 24 -8 44q0 28 15 51q-4 66 -19 119q15 21 15 54q0 28 -11 64q-3 4 -3 13q0 19 13 60l-8 78q-4 16 -4 39q0 15 2 33q-13 17 -13 38q0 19 12 43q-5 12 -5 27q0 33 29 76q27 11 50 31z" />
    <glyph glyph-name="braceright" unicode="}" 
d="M100 1592h16q37 0 96 -52q37 -17 68 -78q16 -15 48 -26q16 -19 24 -53q25 -22 76 -96q13 0 24 -64q55 -47 84 -134l-8 -37q0 -46 56 -112l-20 -45q8 0 24 -41l-4 -11l12 -41l-16 -44q16 -32 44 -60v-15q-32 -30 -32 -41l8 -78l-12 -34l4 -26q-2 -16 -36 -26l-12 -15
l12 -44v-4l-27 -53l-33 -25q-17 0 -40 -120l-36 -37l4 -22q0 -14 -48 -19l-8 -11l4 -37q-6 0 -24 -34l8 -15q0 -7 -44 -41q0 -40 -48 -74l-16 -45q-15 -14 -56 -22q-26 -45 -48 -45h-65l-27 30q-12 22 -12 44q0 41 44 82q24 78 44 115q55 8 104 105q0 34 44 67
q80 107 80 127q22 127 40 127q24 32 24 56v3l-12 45v7l16 53v3l-8 60l16 45v52l-20 82l4 67v11q0 15 -48 67q-40 86 -40 123q-68 48 -68 101q0 52 -84 59q-31 25 -56 93q0 20 -48 45q-24 18 -24 37v5q0 66 52 66z" />
    <glyph glyph-name="asciitilde" unicode="~" horiz-adv-x="1101" 
d="M481 635l-31 22h-5l-36 4q-17 9 -35 9q-21 0 -42 -12l-13 -8l-47 -14l-33 -31l-37 -26q-25 -10 -57 -13h-4q-29 0 -45 21q-11 13 -11 35q0 17 7 40l9 22q17 24 43 78q56 25 71 56l12 12l50 18q23 25 89 43q7 1 15 1q44 0 87 -7q36 -26 53 -33l65 -23l46 -40q38 -8 62 -8
q17 0 27 4l25 25l40 6l32 40q51 19 108 25q49 -8 49 -46v-2l-13 -41q-19 -67 -51 -101q-28 -12 -58 -31l-28 -34l-8 -8l-52 -22q-40 -30 -84 -30q-2 0 -26 0.5t-74 17.5l-31 26l-50 12z" />
    <glyph glyph-name="exclamdown" unicode="&#xa1;" horiz-adv-x="636" 
d="M133 1249q12 29 30 60q42 37 141 56h10q34 -2 115 -64l11 -16q14 -24 26 -72v-8q0 -14 -16 -80q-21 -58 -67 -83q-31 -23 -63 -23h-3q-72 0 -143 45q-24 25 -34 56q-13 36 -20 56q9 65 13 73zM289 933q19 0 41 -23q19 -16 39 -61v-12l13 -52v-4l21 -60v-7l-1 -64v-17
l15 -36l-2 -58q9 -32 16 -63q-2 -16 -2 -33q0 -65 20 -105l-10 -96l22 -67l-6 -37l-4 -20l12 -40v-6q-15 -70 -74 -106l-23 -8l-41 -8q-38 -5 -61 -5q-66 26 -97 96q0 16 -20 78v11l18 44l-11 65q0 20 32 92v76l11 57l-5 76q13 35 19 70l8 55l-4 37v70q22 93 31 125t18 36
h25z" />
    <glyph glyph-name="cent" unicode="&#xa2;" horiz-adv-x="1208" 
d="M588 1042l7 -11q22 -34 55 -34l16 4q96 -44 172 -104q36 0 72 -92q32 -23 32 -60l-4 -112q-20 -64 -64 -64q-35 -29 -68 -36l-32 -8q-38 0 -54 56l-24 5q-39 37 -42 47v15q0 62 21 99q-13 30 -58 90l-23 -1q-12 -6 -12 -19q0 -6 4 -15v-8l-20 -48l8 -40l-4 -48l8 -28v-4
l-20 -60v-4q0 -25 36 -100v-8q-20 -26 -32 -112l16 -48l-4 -60q0 -42 23 -49q42 3 65 40q51 0 104 60q22 7 88 60h48q44 -16 48 -64l-2 -79q-9 -47 -46 -85q-79 -36 -112 -100q-17 0 -79 -9q-64 -5 -89 -31l-20 -9l-10 -24q0 -42 -9 -58l-46 -29q-21 -10 -42 -10
q-15 0 -41.5 8.5t-47.5 61.5l-6 66l-25 11q-32 21 -53 27h-4l-74 28q-20 4 -40 84q-86 70 -86 132l-64 140q12 26 12 56v4l-16 60l16 48l-4 60q72 113 72 180q68 52 136 128l129 62q6 10 8 25l-7 42q10 38 45 53q38 21 74 21q23 0 44 -8l33 -57zM409 817q-4 5 -10 5
q-22 0 -76 -47q-36 -45 -36 -68v-68l-23 -68l13 -50v-5l-18 -63q18 -31 18 -55l-9 -41q59 -109 99 -120q17 -13 39 -18q12 5 19 40l-28 68l28 63v5q-37 43 -37 59q0 18 37 64v9l-9 50l18 68q0 11 -41 77v4l27 55z" />
    <glyph glyph-name="sterling" unicode="&#xa3;" horiz-adv-x="1395" 
d="M591 1327q26 -10 47 -10q9 0 23 3l31 -9h93q19 0 94 -22q56 0 102 -65q5 -3 57 -10q74 -50 74 -143q35 -78 35 -105q-27 -57 -40 -122q0 -41 -56 -53q-42 1 -50 1q-57 11 -66 11h-5q-31 0 -92 96q-6 30 -6 110q0 39 -26 76q-8 18 -46 29q-14 30 -62 30q-34 7 -47 7
l-45 -14q-16 0 -48 14l-42 -22q-9 0 -33 3q-15 0 -60 -64l-18 -55q-39 -44 -39 -46q0 -6 2 -51q-5 -42 -5 -52q0 -7 27 -53q24 -91 37 -91l21 -5q39 -26 50 -26h1l15 13q16 18 25 18q11 0 40 -30h2q7 0 49 30h12q75 -50 75 -97v-5q0 -64 -80 -94h-21q-13 0 -37 3
q-29 -3 -40 -19l-3 -6l2 -19q4 -16 9 -20q9 -6 9 -15q0 -5 -3 -12l1 -44q0 -25 23 -76q15 -16 32 -38q4 -29 12 -31l45 -18q10 -25 24 -38q12 -24 49 -40q36 -10 46 -10h2q14 0 36 -30h2q15 0 60 -28h9q14 -3 24 -3q27 0 27 32q0 7 -2 23l58 50l5 44q15 30 63 55
q42 106 93 106h12q29 -52 29 -106q3 0 8 -44q-15 -55 -15 -64q2 -14 2 -22q0 -38 -16 -83q-41 -41 -61 -63t-39 -57l-25 -12l-39 -21l-42 -22l-29 -1q-33 -3 -46 -3q-11 0 -95 40q-87 21 -101 37q-13 15 -56 15h-6q-31 0 -76 55q-10 7 -17 8q-24 0 -52 -74q-51 -65 -78 -65
q-45 19 -46 19q-11 0 -60 -37h-12q-33 12 -38 12q-1 0 -38 -24h-13q-11 0 -44 49q-20 0 -58 73q-40 57 -40 88v13q11 35 11 75q0 21 -3 48q21 50 61 86q23 30 24 52l16 13q48 5 92 8l56 18q29 2 29 32l-9 44q-8 22 -18 35q-10 15 -58 28q-116 43 -116 86v15q7 46 48 55h38
q6 3 6 11q0 25 -31 98q-9 0 -13 96v5q0 126 52 220q34 45 90 78q50 62 78 62q45 35 70 42q23 -3 32 -3t57 22h8zM255 123v-6q0 -15 14 -19l8 -2l15 -2q6 -1 9 -1q39 3 56 57v1q2 9 2 17q0 15 -5 26q-6 2 -18 2q-59 0 -81 -73z" />
    <glyph glyph-name="currency" unicode="&#xa4;" horiz-adv-x="1398" 
d="M464 407l-6 -8l12 -23l14 -70q6 -31 60 -65q5 -5 17 -25.5t39 -48.5l69 -14l63 -38l42 3q34 6 53 24l4 1l64 -3q53 14 85 31l49 -10l46 14q61 -1 80 -6q46 -31 54 -58q3 -13 3 -24q0 -12 -3 -19l-19 -27l-37 -38l-11 -4l-48 -7l-49 -27l-20 -3q-34 0 -82 -19l-45 -23h-14
q-78 9 -84 9l-23 -3l-74 -11q-25 6 -56 33l-91 5l-52 48l-67 40q-18 38 -43 66q-46 65 -62 72l-3 7l-19 68l-48 110q-1 14 -3 40l-9 5l-49 2l-34 6q-94 43 -94 85q10 17 20 27q12 48 22 48q18 0 58 2l44 5l7 8q-7 25 -11 32l15 45l4 26l-4 13l-45 12q-40 7 -74 28
q-26 21 -26 47v38q8 49 27 53h55l37 7q27 8 66 19l8 9l-3 32q5 31 5 65q25 34 44 58l6 53l3 3q18 18 55 43q28 32 53 64q26 0 89 72q43 0 134 52h74l35 -3l69 15l76 -25l16 -12l52 10h5l38 -27l58 1l38 -20q39 -23 62 -52q20 -26 20 -61q0 -3 -1 -23.5t-10 -27t-54 -11.5
l-40 -7l-37 11h-20l-44 4l-16 3l-50 30l-24 13l-34 -15q-25 8 -48 13q-19 -7 -52 -19l-8 1l-66 10q-63 -25 -76 -25q-30 0 -74 -52q-56 -37 -74 -74q-9 -36 -13 -47l-27 -54l7 -7l40 -2q42 -15 87 -18q47 18 61 18h6l68 -26l29 8q62 18 78 18q105 -26 124 -56v-6
q-26 -141 -38 -141h-14q-58 16 -73 22q-36 -7 -88 -37h-7q-14 0 -83 32q-38 -2 -82 -24h-16l-68 22q-23 0 -53 -17l-4 -9l5 -38v-14q-16 -8 -21 -36l-1 -24l11 -4q35 6 60 22q17 0 63 -17l25 -7l13 2q57 25 70 25l81 -32h19l84 13h11l51 -20q45 -12 45 -47v-2l-21 -81
q-13 -22 -70 -37q-111 0 -143 9l-141 -11z" />
    <glyph glyph-name="yen" unicode="&#xa5;" horiz-adv-x="1603" 
d="M686 557q-16 7 -30 7l-53 -25h-2q-27 28 -34 28h-5q-10 -11 -24 -11h-27q-20 -17 -29 -17q-10 0 -22 56q-8 8 -15 30q0 29 69 64l24 6l87 -6q7 4 26 6v2q-10 58 -79 119l-4 11l4 41q-35 61 -117 127q0 40 -48 101q0 15 -176 29q-44 41 -44 64q31 134 68 134
q35 -22 56 -22l68 15l44 -4l40 11l49 -19l52 12l56 -23l40 26h8v-3q21 0 48 -101q-16 -56 -88 -56q-33 -31 -40 -63q51 -78 72 -97q28 0 36 -41l-4 -4v-4q0 -18 36 -71q0 -20 80 -37q25 19 25 52q32 41 32 56l-8 37q0 14 56 19q16 71 40 71q28 17 28 37q0 30 -112 75l-16 22
v8q11 35 92 93l20 4h16l68 -15l4 3l12 -3q34 0 117 26q126 0 148 -38q68 -20 68 -67q-7 -70 -48 -70h-20l-4 3l-4 -3h-4l-44 7q-55 -22 -104 -26q-15 -13 -29 -78q-28 -32 -28 -68q-52 -36 -52 -96q-24 -14 -40 -86q-22 -27 -48 -86q-14 -7 -28 -20q47 6 120 10
q55 -24 63 -37l15 -67v-2q0 -28 -55 -39l-23 -22h-5l-38 20h-5l-43 -6h-12l-35 -25q-7 0 -28 28l-12 3l-18 -59v-4l20 -52l-2 -7q19 10 35 26h10q30 -25 45 -25h35q25 20 36 20h12q6 0 30 -31q53 -14 53 -52h-3l3 -3v-19q-6 -54 -25 -54h-3l-25 9h-2l-71 -20
q-15 -19 -27 -19h-3l-42 16l-43 6l-21 -17q32 -135 32 -158l16 -11l68 7l48 -15h36q56 -9 56 -18l4 3h4q85 -63 85 -93q-20 -37 -56 -37q-76 -52 -93 -52h-4l-44 29l-76 -7v4l-84 -19q-48 22 -81 22h-32q-16 0 -68 -22q-45 26 -64 26q-116 -12 -116 -30l-24 -7l-61 63
q-28 0 -28 41q13 90 76 90h13l48 -4q0 7 56 26l44 -19q27 0 36 38l10 57q8 1 13 86l-25 -3l-46 23l-38 3h-2q-33 -26 -44 -26q-80 25 -95 54v5q20 111 31 111h8q15 -17 28 -22q55 9 94 36h6q9 0 40 -28h3q21 0 38 5h2l-7 31l12 44v15l-13 32h-1z" />
    <glyph glyph-name="brokenbar" unicode="&#xa6;" horiz-adv-x="1799" 
d="M507 924q7 7 15 13l55 -74l-15 -2l-91 24q16 24 36 39zM644 750l-26 -29l14 -48l-67 -56q0 -24 -66 -76l8 -32v-12l-119 -100l-9 -16l22 -48q0 -11 -71 -56q-40 -66 -49 -136q-69 -53 -120 -180q-34 -27 -129 -64h-18q-44 44 -44 84q0 52 49 116v8l-5 28q0 8 76 72l49 68
l4 12l-4 4v24q82 71 115 184q88 61 116 148q0 11 80 140q5 18 12 34l112 -5zM860 1007q16 -6 35 -6q49 0 122 37q12 12 71 12q12 0 27 -1l102 33q33 14 93 23q31 29 78 29q14 0 30 -3q27 17 65 17q33 0 74 -13q19 -24 50 -44l8 -9q6 -8 6 -19q0 -33 -64 -93q1 -1 1 -3
q0 -13 -26 -43q-8 -7 -27 -7q-28 0 -82 5q-27 -8 -84 -41l-26 -6l-96 -2l-70 -14q-45 -28 -71 -28h-2l-36 6l-14 -17l-16 -15q-6 -2 -13 -2h-65q-24 -4 -47 -12l-18 -10l-45 -20q-6 -6 -22 -6q-20 0 -55 8l-80 -4l5 51l110 162q43 16 82 35zM720 1029l17 -5l-39 -79l-10 -4
v70q11 17 32 18zM622 933l-8 1l-42 116q13 3 25 4q7 4 14 9l25 -49z" />
    <glyph glyph-name="section" unicode="&#xa7;" horiz-adv-x="1065" 
d="M428 1416h84q136 -16 136 -40q111 -91 128 -168q-7 -124 -40 -124q-55 -15 -100 -44l-20 -4q-20 0 -76 48q-60 18 -60 56l4 44q-12 48 -44 48l-12 12h-8l-3 -3h-8q-5 0 -9 3h-12q0 -14 -40 -24l-24 -32v-12q16 -21 16 -44l-32 -48l44 -48q0 -37 40 -44l4 4h4
q33 -11 48 -64l24 -20l28 4q19 0 40 -60l24 -12l48 20l20 -28l-8 -24v-24q8 0 32 -32q30 -34 76 -36l56 -76q36 -17 56 -104q16 -14 24 -52l-8 -40q8 -20 8 -72q-15 -45 -24 -124l-92 -76q-27 -11 -32 -24v-12q44 -33 44 -68h-4l20 -76v-36q0 -119 -68 -156l-4 -12h-4l4 -4
v-4l-8 -12l4 -4q-31 0 -44 -80q-21 -20 -36 -20l-60 32q-41 -20 -132 -40q-16 0 -92 48q-46 0 -100 48q-52 22 -52 40q0 28 8 44l-16 84q0 37 128 96h4q37 0 72 -60q44 -13 52 -32v-4l-16 -48q32 -80 64 -80q112 23 112 100q0 19 32 72v12q-69 104 -112 104q-16 11 -32 48
l-16 8h-28q-52 0 -52 64l-12 8h-16q-15 -12 -28 -12h-8l-12 12q2 40 8 40q0 27 -96 72q-57 50 -120 84q-9 12 -20 72q-28 25 -28 48q2 44 8 44l-24 68q15 168 44 168q40 17 40 76l20 -4l24 20v4l-8 56l8 32q-12 74 -52 108q-7 0 -8 20q23 28 48 112q20 19 20 76
q61 63 160 92zM276 776q-15 -65 -56 -108v-12l16 -52l-8 -32q0 -25 76 -88q48 -17 48 -80h4l20 -12l44 20l20 -24v-24q0 -58 116 -104h8q47 40 60 40q56 3 56 48q28 28 28 56v4q-12 15 -12 36l8 52l-44 80q-24 24 -56 24q-37 60 -44 60h-8l-32 -8q-15 0 -28 28l4 24
q-13 36 -32 36l-56 -24l-16 20v8l12 44q-13 22 -40 36q-25 0 -48 -48h-40z" />
    <glyph glyph-name="dieresis" unicode="&#xa8;" horiz-adv-x="1027" 
d="M-4 1137v8l17 38l-4 38q0 16 81 90l91 15q30 0 100 -49q0 -25 54 -123v-6q0 -13 -50 -52q-17 -41 -41 -41h-3l-30 3l-57 -29q-13 0 -57 26q-51 10 -51 24q0 32 -40 46zM496 1150q44 142 61 142l53 48l17 3l57 -3l34 6q35 0 87 -92q11 0 14 -47l-3 -3v-3l3 -13l-3 -3
q8 0 13 -38l-98 -98q-37 -19 -47 -19q-57 13 -107 16l-14 19l4 3v3q0 20 -47 38q-24 21 -24 41z" />
    <glyph glyph-name="copyright" unicode="&#xa9;" horiz-adv-x="1215" 
d="M916 644q32 31 44 65v33q0 12 29 42q0 10 -15 31v8l18 36v4q0 10 -18 32v8l15 37v6q-15 32 -45 59q-4 62 -51 92l-11 9l-33 54l-42 22q-47 55 -108 66l-4 2l-84 -4l-8 1l-28 10h-8q-28 -2 -54 -14q-27 0 -42 6q-13 0 -53 -43q-69 -18 -80 -52l-51 -93l-2 -2l-5 -12l7 -26
l-22 -25q-36 -34 -36 -70l10 -25v-10l-19 -38l29 -39l-1 -24q0 -62 32 -76q3 -32 22 -77l13 -17l22 -12l38 -20l20 -34l41 -20q47 -45 111 -45q10 0 60 21q13 0 67 -17h10q24 0 44 21q89 0 144 52l5 6q28 36 39 72zM541 362h-26q-56 36 -94 36q-31 0 -69 35q-79 22 -79 48
l-72 79q-23 0 -34 75q-46 64 -54 93l4 16v18q-26 20 -26 117l22 32v13l-12 30v18l20 16l-4 39v4q46 38 52 101l21 34q72 40 106 101l68 28l19 29l84 8q47 22 61 22l56 -14h47q14 0 61 22h8q45 -36 57 -36l34 4q11 0 53 -39l20 -4l37 -5q15 -12 31 -41l83 -67l27 -36
q9 -47 45 -99l4 -14l-4 -17q30 -46 30 -58q-18 -20 -18 -36q8 0 22 -33l-26 -44q0 -8 26 -39l-26 -50l7 -30l-49 -57q-16 -28 -27 -75q-49 -42 -57 -70q-26 -13 -45 -55q-18 -12 -68 -24l-38 -33l-65 -6q-44 -29 -68 -34q-30 4 -81 13q-2 1 -4 1q-1 0 -3 -1zM666 1173l6 -1
q32 -19 38 -21l28 -4q20 -17 46 -47q34 -27 48 -51q16 -17 18 -47q1 -7 1 -15q0 -21 -5 -39v-5q-14 -44 -64 -56l-22 -5q-28 0 -56.5 28.5t-32.5 39.5v6q-3 10 -3 21q0 23 15 47q-8 28 -55 28h-12l-18 -15l-33 -6l-24 -27l-27 -11q-17 -19 -17 -40q0 -4 1 -9v-1l-14 -29
l6 -35l-3 -37l5 -20q9 -38 41 -46q9 -34 31 -50l26 -4h4q16 -11 31 -15q37 0 53 26q29 0 57 31q13 5 47 28q24 10 47 12h1q23 0 23 -66q0 -67 -35 -86q-38 -17 -57 -54q-11 -2 -24 -2h-12q-5 1 -9 1q-22 0 -38 -10l-16 -10h-11l-45 8l-7 -1l-12 -3l-51 -5q-13 0 -39 24
l-35 4q-11 22 -25 57l-55 38l-5 43l-36 78q7 17 7 31v1l-9 35l9 27l10 77q20 22 27 58q41 31 79 73l55 34q26 0 42 6q12 4 26 10q16 -1 40 -6h3q22 0 36 7z" />
    <glyph glyph-name="ordfeminine" unicode="&#xaa;" horiz-adv-x="3053" 
d="M1234 45v-10h4q0 2 12 19h-6q-5 0 -10 -9zM940 73v-4h9v4h-9zM1273 82v-7h4q5 0 5 7h-9zM493 75h-7q-5 -1 -5 -6h49q5 0 5 6l-3 7q-21 -7 -39 -7zM1186 106v-4h9q6 6 10 6v3h-5q-10 -5 -14 -5zM579 139h-3v-11q3 0 9 -2q15 10 23 10q0 5 -5 5q-14 -2 -24 -2zM1407 149v-8
h9v5q-4 0 -9 3zM1370 163q0 -12 -5 -17l-5 3q-7 0 -11 -10v-6h2v8h3q9 0 9 -13h2q14 23 22 23v12h-17zM1456 170v-7h5v7h-5zM1305 170v-5h5q5 0 5 5h-10zM630 139v-3q42 5 47 10h8q0 -13 5 -13h8v6q-8 17 -8 21v10h-5q-50 -31 -55 -31zM1344 175v-2h5v2h-5zM1339 198
q94 -42 105 -52h5v10q-19 24 -19 29l-10 -7q-11 17 -26 25q-2 0 -2 -3q-10 3 -12 3l-12 -3q-13 3 -24 3q-5 -1 -5 -5zM1282 203v-3q4 -11 13 -17q6 0 12 2q5 -2 8 -2v2q0 4 -28 18h-5zM1284 222l3 -5q3 0 3 2l15 -2h68v5q-9 16 -46 24h-5zM1167 424v-2h8v2h-8zM1181 427h5
q4 0 9 10v3h-4q-4 0 -10 -13zM1202 460v-3h8q4 0 14 17v2h-3q-19 -11 -19 -16zM546 491q0 -15 -3 -15q3 -4 3 -10h5v25h-5zM1247 499q0 -5 -7 -13v-17h4q0 6 9 17v13h-6zM585 504v-8q4 0 10 11v2h-5q-5 -1 -5 -5zM526 521v-22h4q0 3 10 34h-3q-3 0 -11 -12zM849 533
q0 -6 36 -15q0 -5 9 -9h48q6 0 27 14v10q-14 0 -23 -2q-31 2 -31 5l-13 -3h-25q-4 0 -4 3q-1 -3 -24 -3zM469 545v-7h6v7h-6zM488 566v-5h5v5h-5zM521 569v-33q14 9 14 22q-1 7 -14 11zM459 572v-14h3q0 7 5 14v3q-5 -3 -8 -3zM469 593v-8q5 0 14 -13v-3h5q-13 20 -13 24h-6
zM1215 604v-11h3v11h-3zM464 615v-8h3v8h-3zM399 639h5v5q-5 -2 -5 -5zM590 661v-6q24 -23 32 -62h2l3 27q-11 21 -16 35l-18 6h-3zM1210 665q0 -3 8 -8v8h-8zM464 669v-7h3v7h-3zM581 695l7 -2l2 5v2h-2q-7 -1 -7 -5zM392 717v-12h7q0 13 17 17v13h-2q-14 0 -22 -18z
M478 745q5 -7 5 -10h8q-4 10 -8 10h-5zM590 750q0 -15 -14 -26q-12 0 -30 -12h-3q-6 0 -6 10l-13 -8q-13 0 -28 17h-3q0 -10 -5 -17v-9q0 -3 17 -10q1 5 5 5h6l8 -5h8q13 10 49 19l14 23v13h-5zM457 764v-7q2 0 15 -12h3v7q-12 0 -13 12h-5zM617 771v-7h2v7h-2zM617 821v-14
q15 -16 15 -50q-14 -36 -37 -52v-5h5q16 19 22 19q18 28 23 60q-14 42 -23 42h-5zM598 828v-10h2v10h-2zM772 872v-3h8v3h-8zM530 872q4 -11 7 -11v11h-7zM1088 877v-8q5 -13 17 -13h7v3q-14 0 -19 18h-5zM551 877q0 -3 9 -8h3v3q0 5 -6 5h-6zM505 877q2 -5 2 -11h5l-2 14z
M1033 869h8q0 5 20 14l3 5h-5q-11 -3 -26 -19zM524 890q0 -5 6 -5h2v5h-8zM1126 895v-2h6v2h-6zM1074 895q0 -5 -8 -5v-2h8q5 5 29 5v2h-29zM551 895v-2h6v2h-6zM502 899v-9h3v9h-3zM475 913v-23q8 -7 8 -13l5 3q-7 19 -7 24v9h-6zM444 904v-9q0 -4 13 -10h5v28h-3
q-9 -9 -15 -9zM614 927v-9h8v2q0 7 -5 7h-3zM680 947v-5h5v5h-5zM464 950v-8h3v8h-3zM464 961v-5h3v5h-3zM537 981q2 -6 6 -6v6h-6zM767 994v-5h15q0 5 -6 5h-9zM814 996l-5 -7h11q5 0 5 5q-6 0 -11 2zM444 996q0 -10 -10 -10v-2h14v12h-4zM540 999v-5h3v5h-3zM411 999v-5h5
v5h-5zM724 1007v-6h8q0 6 -5 6h-3zM436 1013q2 -6 5 -6v6h-5zM857 1020v-5h2v5h-2zM368 1043v-33l3 -26h7v17l-5 9v8q0 2 3 2q-5 14 -5 23h-3zM897 1046v-5h5v5h-5zM546 1046v-5h3v5h-3zM782 1051v-8l5 -2v2q-2 5 -2 8h-3zM524 1053h6v5q-6 -1 -6 -5zM776 1067v-14h6l-2 14
h-4zM705 1067v-2q4 -33 24 -33q9 -5 15 -5v2q-29 38 -39 38zM910 1070v-12h2q0 9 14 22l-5 2q-8 -12 -11 -12zM871 1098q0 -14 -24 -26v-7h10q10 9 20 30zM1012 1108v-3h5v3h-5zM1019 1110h9v5h-4q-5 -1 -5 -5zM595 1115v-7q3 -8 52 -36q0 -7 5 -7h5q0 11 -25 45l-15 -2
q-14 7 -22 7zM1260 1122v-7h8v7h-8zM579 1122v-9h2v9h-2zM386 1129v-19q0 -9 -3 -24l9 -14v-19h7q-7 34 -7 42l7 10q-7 24 -13 24zM560 1139l-3 -5v-12h3q5 0 5 5v7q0 5 -5 5zM718 1179v-14l6 -3l-4 17h-2zM532 1179q0 -4 -6 -12v-5q11 -23 17 -23v26l-6 8q6 0 6 6h-11z
M622 1184v-3h8v3h-8zM713 1191v-12h2v12h-2zM942 1194v-3q13 5 14 12h-5q-3 0 -9 -9zM713 1206v-10q5 3 7 3q0 7 -5 7h-2zM985 1137q-5 2 -7 2l-17 -2v-13l3 -14h9q12 7 12 12v5l-2 5h5q0 -8 5 -8h8q47 24 47 52l23 33v2h-2q-23 -7 -23 -27q0 -33 -61 -47zM1124 1209l5 -3v8
q-5 -1 -5 -5zM640 1216q0 -2 -4 -7h9v7h-5zM464 1224v-5h11v5h-11zM921 1230v-6h5v6h-5zM703 1233l2 -14q5 0 5 5v9h-7zM942 1219h4q27 13 27 16h-9q-22 -10 -22 -16zM680 1238v-5h5q0 5 -5 5zM488 1238v-5h3v5h-3zM598 1241v-6h2v6h-2zM1189 1243v-10q19 0 19 -14h7
q0 6 17 16l-11 8h-32zM519 1243v-5h5v5h-5zM496 1253v-5h2v5h-2zM1014 1262v-5h5v5h-5zM392 1189v-8h4q6 6 33 8q2 -4 2 -10h10q8 0 12 -3q17 15 22 15v12h-3q-9 -7 -13 -7q-1 5 -15 13q13 13 15 34q8 0 8 5v14q-35 -42 -75 -73zM762 1273q-7 -11 -20 -49v-43q0 -2 -3 -2
q4 -19 18 -55v-14h15v5q-6 8 -12 45v5q0 5 2 11q0 3 -2 3q0 8 20 87h-4q-6 0 -14 7zM502 1273v-11h3v11h-3zM469 1273q0 -3 -2 -7h8v7h-6zM1126 1281v-8q6 0 6 5zM1006 1281v-5h2v5h-2zM1189 1311v-3h6v3h-6zM579 1311v-9h2v9h-2zM1181 1319q0 -5 5 -5v5h-5zM915 1241v-6h3
q19 11 62 24q0 19 37 62v4l-5 8l-21 -3q-9 3 -11 3q-32 -25 -65 -92zM785 1335l-3 -5v-9h15v4q-5 0 -12 10zM1031 1339v-11q5 0 5 5v6h-5zM1126 1342v-9h20q7 -5 29 -12h6v4q-11 0 -11 8h-17q-6 6 -27 9zM985 1353v-6h16q0 4 -10 6h-6zM1043 1359v-6h3v6h-3zM718 1362v-5h2
v5h-2zM1019 1370v-5h9v5h-9zM682 1377q-10 -39 -10 -63v-48q8 -9 8 -18h5q5 0 5 5q-5 0 -5 6q0 17 -3 49q3 26 3 49q5 0 5 5v10q0 5 -5 5h-3zM1141 1386l-7 3q-34 -8 -34 -12q12 0 12 -5v-2q0 -3 -9 -8h-15q-9 0 -33 13h-12v-3q27 -14 45 -15q1 -10 7 -10h8q0 11 18 12h17
q48 -14 70 -40q12 -11 36 -57q3 0 3 -3l-7 -8q5 0 13 -23h5v15l-14 42l-63 87v3q3 10 3 11q-3 7 -3 9h-28q-9 -9 -12 -9zM718 1400v-5h2v5h-2zM802 1408v-5h4v5h-4zM636 1408v-5h6q0 5 -6 5zM521 1367v-5q11 -11 11 -18h5v5l-5 8v8q0 4 8 7q14 -11 14 -28h3q2 14 54 49h11
v-9h8v5q-8 0 -11 16l-31 3h-9q-29 -10 -58 -41zM1126 1410l-2 -5v-2h19v5q-2 0 -17 2zM854 1413q3 -5 3 -10h6v2q-4 5 -4 8h-5zM790 1427v-12h2v12h-2zM1055 1429v-2q14 -7 14 -12h19l10 -12v16h-10q-10 0 -33 10zM619 1432q0 -4 11 -8q0 5 22 5v3h-33zM595 1427v-5
q7 0 19 7v3h-3q-11 -5 -16 -5zM828 1434v-5h6v5h-6zM657 1429h9q8 5 14 5v3h-14q-4 0 -9 -8zM828 1447v-10q6 0 6 6zM690 1452q0 -5 13 -13q0 4 7 10q3 0 3 -2q21 2 21 8q-9 0 -14 2q-5 -5 -30 -5zM739 1455h8v5h-3q-5 -2 -5 -5zM985 1465v-16l6 -10v-24q1 0 12 -2v2l-6 19
v9q0 5 11 12h4q5 -2 5 -6v-2l-5 -10v-5q9 -19 21 -24l3 5l-3 6q3 5 3 8q-15 34 -28 38h-23zM852 1462q0 -6 25 -19l2 -6l-11 -13v-2h3q7 9 71 27h7q15 -7 15 -20h11q0 8 8 18q-10 0 -14 13h-13q-30 8 -41 19h-3zM800 1465v-5h9l35 21q3 0 8 -2l16 2q0 5 -5 5q-25 0 -61 -21
h-2zM877 1491v-5h5q6 0 6 5v3h-3q-6 -3 -8 -3zM710 56l3 -5l5 3h39q5 0 28 -7q8 0 133 17v2q-24 0 -24 3l-28 -3h-60q-11 0 -30 3q-6 -3 -9 -3q-10 3 -20 3q-3 0 -8 -3q-79 9 -109 28l6 3l79 -10l5 2q7 -2 9 -2q3 0 8 2l16 -2l7 2q11 -5 35 -5h16q6 0 12 3l5 -3q24 3 29 5
q11 -2 58 -5q21 5 39 5h39q98 0 204 34q27 18 61 28h19q0 4 13 17l-30 21q-26 0 -97 82q-1 10 -12 21q-43 73 -43 96q0 7 -5 26v31h-5l-10 -18q0 -13 -52 -65q-10 -26 -35 -40q-29 -24 -61 -24h-30q-57 7 -120 28q-71 33 -118 72v11q2 5 5 5q29 -29 88 -52q2 -3 49 -19
q10 -7 68 -21q4 4 12 4q9 -7 16 -7h8q50 8 75 27q97 96 153 199l35 73q24 75 32 146v33q0 5 2 10q-2 3 -2 11q19 44 40 109v57l2 15q-2 5 -2 8q0 6 2 6l-2 28v20q-21 87 -45 130q-41 8 -41 12l-55 -14q-13 -12 -38 -57q-7 0 -31 -29q-35 -26 -55 -28h-37l-9 5
q-37 -73 -57 -81q-35 -24 -76 -29q-3 -3 -19 -3q-47 9 -70 22q-34 -18 -35 -26v-7q1 -6 5 -6h3q11 11 41 11q3 0 3 -3l23 5q109 -17 145 -50v-3q0 -6 -8 -6q-12 0 -86 33q-5 -3 -9 -3q-17 4 -17 8l-5 -3l-29 3l-27 -5q-6 2 -9 2l-25 -5q0 3 -3 3q0 -8 -27 -22q0 -13 -20 -13
q0 -6 -29 -12l-32 9l-9 -11v-3q36 -18 36 -34q16 0 49 -44l5 -26q0 -29 -18 -57q0 -8 -25 -26q0 -10 -47 -18v-6q4 0 9 -3q20 3 27 5q54 -10 54 -58v-14q0 -48 -52 -76q-10 -1 -10 -19q4 0 8 -7l-11 -16q2 -14 27 -34q0 -6 5 -12v-21l33 -93q10 -42 25 -66q0 -18 15 -49
q13 -43 15 -83q-2 -34 -10 -34q-12 12 -18 12q-7 -7 -12 -7q-112 13 -112 19q-6 0 -6 5l3 5q-14 5 -14 11q9 6 60 17l79 29v4q-11 44 -45 116q-13 45 -26 83v24q0 5 -35 15l-30 18h-9l1 -3l-48 18l-2 9q-16 26 -16 40q-3 0 -54 42q-10 39 -26 56l-19 71v5q-5 16 -5 22
q7 52 45 52v3q0 43 -40 69q-8 40 -22 51q-12 10 -12 35v5l20 47q-8 9 -13 43q9 124 29 174q0 2 -2 15l35 34q39 37 39 57q39 66 87 110q55 52 120 52q8 5 53 22h10q10 0 27 7q13 -7 18 -7h7q16 13 37 15q19 17 70 25q31 -4 33 -8l47 -5q125 -31 231 -103l10 -21
q72 -85 79 -126q0 -3 -2 -3l2 -13v-16q0 -11 -2 -30q0 -9 38 -32q24 -30 29 -64q0 -43 -22 -73v-13q4 -7 12 -49q-3 -38 -7 -38l4 -5v-2q0 -24 -39 -44q-21 -41 -54 -41l-6 -37l2 -20q-5 -26 -5 -31t5 -21q-13 -22 -13 -29v-2q14 0 23 -54q3 0 3 -2v-12q-8 -29 -13 -35v-5
q33 -33 37 -71q0 -56 -56 -90q-13 0 -34 -19q-10 -2 -11 -2q-14 2 -27 2q0 -7 -11 -7v-22l43 -79q70 -75 75 -75h5q45 37 62 38q0 4 8 7q26 -5 29 -5h9q0 -14 10 -14v6q-3 2 -4 5l-1 1l26 16q18 -12 18 -14q9 3 18 3t17 -3q17 -6 17 -12v-5q-1 -4 -34 -5q0 -3 -3 -3
q-5 3 -11 3l-9 -10q23 -4 23 -22q7 0 21 -30h5v7q0 8 -12 32l-4 6l-3 4q7 3 9 3q5 -2 13 -12q10 -13 24 -43q2 -15 29 -21q5 2 7 2q0 18 -53 76v3l8 2q25 -7 54 -57l5 -19l-5 -7q0 -8 33 -10q38 -14 58 -26q34 -19 49 -34q28 -15 56 -54q35 -32 75 -65q12 -14 12 -21
q0 -9 -15 -9l-46 16q-11 5 -19 27q-10 0 -83 81q-93 74 -136 74l-22 13q0 -8 -14 -8v-20q0 -4 -10 -7q27 -54 27 -150q2 0 2 -10q-7 -19 -12 -19h-17q-2 0 -5 51v95q-6 36 -21 55h-3l-5 -17v-19q-11 -19 -30 -83q-5 -1 -15 -39v-4l-33 -29q-8 -4 -14 -4q-7 0 -13 6v7
q75 119 77 156v37l-44 -66l-14 6q-51 -122 -62 -131h-7q-5 0 -9 16q18 25 66 120q0 6 15 42h-5q-10 -4 -57 -65q-29 -31 -47 -57h-8q-5 0 -8 14q-44 -27 -57 -54q-11 0 -33 -18h-10q-5 0 -12 13v5q22 39 77 68q46 37 61 45q15 7 18 7l59 49q0 8 9 8v5h-5q-12 -10 -21 -10
q0 3 -3 3q0 -9 -78 -42q-34 -19 -76 -31q-58 -30 -107 -48q0 -9 -34 -11q-48 -15 -141 -34q-55 -14 -57 -14q-3 0 -3 2q-46 -10 -67 -11h-29q-88 0 -88 14v2q0 8 30 12q3 0 9 -3q104 5 131 13l5 -3l135 24q51 9 96 33l5 -2q28 5 96 35h7v7h-9q-7 -7 -11 -7q-45 0 -179 -24
l-5 3l-71 -19q-73 -5 -86 -5q-9 -5 -46 -12q-97 -5 -104 -5q-16 5 -16 12q9 5 16 5q68 2 75 2v3q-4 0 -18 7q-13 -2 -21 -2q-6 0 -6 2l-67 -7h-8q-53 0 -53 7l-20 -2h-2q-40 1 -40 14q0 2 2 5q3 5 3 7h-31v-5l-116 -44l122 1q3 0 3 -2l6 2l73 5q23 -5 23 -11q0 -4 -6 -9
l-14 3q0 -4 -85 -15q0 6 -6 6q-205 -6 -205 -20q0 -3 3 -4q14 -9 14 -15q0 -7 -13 -10q-41 3 -58 3h-7q-4 0 -23 12l27 25l222 76l10 2h-1l51 18q6 5 57 13q5 -3 9 -3q0 3 2 3l-13 21v3q0 5 5 5h6q24 -23 24 -53q-3 -5 -3 -12q3 0 3 -2l6 2h3q6 0 10 -2l6 2q10 -5 21 -5h36
q11 0 21 -2q13 2 23 2h18l5 -2zM787 564q12 -11 27 -11q16 0 74 8h19l39 -8q13 8 20 8h19l21 -10h2q6 0 11 2q12 -3 12 -8v-7q-38 -26 -38 -36q0 -28 -70 -31l-24 -2q-11 7 -36 10q-23 25 -71 49l-10 13q0 4 5 23zM921 657q25 0 38 -18v-10q0 -6 -5 -6h-5q-7 0 -31 9l-6 -3
q-21 3 -21 8v2q8 13 30 18zM767 927l15 -4l15 4q4 -12 9 -12q23 3 36 3v-8h-8v-6l13 4q5 -1 5 -6q-3 -7 -3 -9q0 -4 19 -21v-6q0 -4 -16 -13h-24q-4 0 -8 8l8 11v5h-14q0 -18 -34 -24h-10q-14 0 -17 8v5l7 9v13h-7q-6 0 -6 -5q4 -6 4 -8l-9 -6q-13 5 -13 19q-23 0 -31 -11
l2 -5v-3q0 -5 -10 -5q-22 10 -27 13v3q0 4 17 10q-3 5 -3 9q0 14 83 24q5 4 7 4zM1161 950h25q34 0 54 -23q0 -5 -11 -12q-15 14 -32 14h-2l-17 -2q-3 0 -3 2q-50 -6 -75 -14v-2h38q3 0 25 -9l9 6q0 -1 6 -8l-3 -14q3 0 3 -3q13 5 22 5l2 -5v-5q0 -8 -13 -8l13 -19
q0 -6 -41 -15q-2 0 -8 10l3 13v5h-5q0 -25 -43 -30q0 -3 -3 -3h-2q-23 13 -34 36q-14 0 -14 -5l4 -13l-8 -3h-18l-14 -3q0 -13 -5 -43q8 -81 19 -126q-2 -5 -2 -7l2 -14q0 -23 -50 -42q-5 0 -5 5v9q24 14 39 34q-14 34 -26 130q0 84 85 132q39 27 85 27zM2389 1243
q14 0 16 -19q-3 -8 -12 -13h-4q-17 0 -17 16q0 12 17 16zM1639 927v10q3 5 9 5h13v15q0 32 41 32h5q18 0 24 -11v-8q0 -4 -12 -6q-12 2 -15 2q-8 -3 -8 -6v-18h8q15 -2 15 -6v-10q0 -3 -7 -7h-16v-73q-4 -25 -17 -25q-14 0 -18 18v80h-6l-11 1q-5 2 -5 7zM1591 1239h4
q17 0 17 -17v-26h16q5 0 10 -9v-5q0 -3 -10 -9h-16v-55q0 -17 10 -18l14 3h5q3 0 6 -8v-7q0 -9 -33 -13q-35 0 -35 49v49q-17 0 -17 7v7q0 7 17 9v13q0 26 12 30zM2452 1239h10q4 0 11 -12v-31h18q9 -4 9 -16l-9 -7h-18v-60q0 -10 10 -13l14 3h5q3 0 8 -8v-7q0 -8 -33 -13
q-37 0 -37 41v57q-16 0 -16 7v10q2 6 16 6v24q0 12 12 19zM2043 985h5q12 -7 12 -19v-24h10q13 -2 13 -6v-10q-2 -7 -13 -7h-10v-66q0 -3 6 -7q13 3 22 3q7 -8 7 -12q-5 -16 -35 -16q-33 0 -33 38v60q-19 0 -19 12q2 11 19 11v26q0 17 16 17zM2606 985h12q13 -4 13 -30v-13
h8q15 -2 15 -6v-10q-3 -7 -15 -7h-8v-66q0 -3 6 -7q13 3 21 3l6 -8v-9q-10 -11 -31 -11q-37 2 -37 28v70q-18 0 -18 9v5q0 8 18 9v26q0 12 10 17zM1659 1198h10q10 0 38 -87h2q25 81 36 87h11q6 -1 10 -11q-53 -150 -68 -150q-9 -4 -20 -4h-17q-12 0 -16 9v8q0 4 8 8h23
q7 0 14 24q-23 52 -43 103q3 9 12 13zM1797 1198h10q11 -5 11 -18q18 18 36 18h7q40 0 49 -51v-18q-10 -54 -54 -54q-19 1 -38 18v-43q0 -12 -11 -17h-12q-8 0 -10 29v113q0 18 12 23zM1984 1198h14q46 0 52 -53q0 -16 -31 -16h-56q3 -31 27 -31h4q14 0 39 20h8q3 0 7 -7v-2
q0 -26 -54 -34q-64 9 -64 54v11q6 58 54 58zM2074 1198h12q7 0 31 -80h2q19 80 31 80h14q11 0 31 -82h2q22 82 31 82h4q17 0 17 -13q-35 -110 -50 -110h-4q-19 0 -39 81h-2q-16 -81 -35 -81h-2q-19 0 -36 65q-4 0 -17 47q4 10 10 11zM2277 1198h13q8 -4 8 -16q14 16 25 16h8
q15 0 25 -13v-3q0 -13 -10 -13q-25 2 -29 2q-13 0 -16 -36v-40q0 -13 -17 -20q-14 0 -16 18v85q0 17 9 20zM2389 1198h4q12 -5 12 -18v-85q0 -13 -16 -20q-15 0 -17 18v89q0 16 17 16zM2569 1198h13q46 0 53 -53q0 -16 -31 -16h-57q4 -31 29 -31h2q15 0 40 20h7q3 0 8 -7v-2
q0 -26 -55 -34q-64 9 -64 54v11q7 58 55 58zM1782 944h17q47 0 55 -58v-5q-8 -60 -62 -60q-63 10 -63 54v11q7 58 53 58zM1887 944h12q9 -3 9 -18h2q11 18 34 18h11q30 0 36 -38v-67q-3 -18 -16 -18q-18 7 -18 20v57q0 21 -16 21h-7q-18 0 -24 -24v-54q0 -13 -16 -20
q-15 0 -17 18v89q0 12 10 16zM2148 944h11q43 -6 43 -29q-4 -11 -17 -11q-24 20 -33 20h-4q-14 0 -17 -9v-4q5 -8 64 -25q14 -15 14 -24q0 -36 -57 -41q-55 8 -55 34q3 9 12 13q10 0 29 -22l14 -2h7q16 0 16 15q0 8 -58 24q-17 12 -17 25q0 36 48 36zM2315 944h12
q10 -3 10 -18q17 18 35 18h10q37 -4 37 -36v-76q-2 -6 -16 -11q-13 0 -17 25v56q0 17 -16 17h-8q-23 0 -23 -36v-44q-2 -18 -16 -18q-17 7 -17 20v83q0 17 9 20zM2505 944h9q44 0 52 -51q0 -18 -26 -18h-61v-5q5 -26 28 -26h5q13 0 35 20h10q3 0 6 -7v-2q0 -25 -53 -34
q-66 7 -66 62q0 41 39 59q13 2 22 2zM1821 1149v-23q0 -21 31 -26q25 7 25 33v10q0 32 -31 32q-25 -7 -25 -26zM1963 1149h54v5q-4 21 -21 21h-10q-18 0 -23 -26zM2547 1149h55v5q-3 21 -22 21h-9q-19 0 -24 -26zM1762 889v-12q3 -31 28 -31h2q25 0 29 31v12q0 32 -31 32
q-25 0 -28 -32zM2479 895h54q0 19 -17 26h-14q-20 0 -23 -26zM2253 857q20 -2 20 -18q0 -13 -16 -18q-20 2 -20 18v7q7 11 16 11zM2664 1202h9q10 0 10 -16l19 16h14q15 0 23 -13v-10q-1 -5 -11 -9q-8 4 -19 4h-3q-20 0 -20 -49v-28q-3 -18 -17 -18q-16 4 -16 20v80
q0 17 11 23zM2282 1505q216 -37 308 -87q87 -43 139 -85q157 -125 165 -293v-9q0 -61 -24 -120q-91 -217 -429 -318q-149 -39 -296 -39q-95 0 -188 16l-9 1q-82 14 -182 42q-127 -53 -224 -57q-14 -1 -28 -1q-66 0 -135 12l-11 3l-5 7q159 106 184 165q-149 125 -154 295
q3 64 25 119l1 1q84 203 389 305q165 51 335 51q36 0 72 -2q8 -1 67 -6zM1431 1143q-22 -58 -22 -107q0 -40 15 -74q10 -68 87 -164q54 -51 56 -58q-32 -60 -181 -161l1 -2q45 -5 94 -5q65 0 138 9q46 11 147 48q88 -24 191 -42h2q100 -17 198 -17q202 0 390 74
q236 103 303 264l3 8q24 58 24 116q0 130 -124 256q-166 149 -398 189l-13 3q-8 1 -15 4q-90 15 -181 15q-171 0 -344 -54q-286 -103 -371 -302z" />
    <glyph glyph-name="guillemotleft" unicode="&#xab;" horiz-adv-x="2003" 
d="M56 1128q0 -98 193 -166q127 -36 231 -36q6 0 53 -34q95 -61 168 -61h3v1q-50 24 -83 97q113 17 173 38q179 68 179 161q0 103 -204 170q-124 35 -256 35q-237 0 -390 -97q-67 -52 -67 -108zM499 1339h33q193 0 350 -80q97 -61 97 -128v-5q0 -105 -211 -175
q-72 -19 -138 -27q28 -58 81 -90v-7q0 -1 -4 -4q-99 0 -224 95q-124 0 -269 49q-164 68 -164 158v11q0 70 120 136q152 67 329 67zM977 904h11q72 0 138 -136q21 -36 31 -42q136 -102 178 -143q65 -7 77 -20l97 -41q36 -19 47 -54q6 -8 11 -24q-6 -3 -17 -6v-2q14 -3 70 -34
q191 -46 222 -80q11 -13 11 -20v-2q0 -3 -3 -3q-10 0 -42 11q0 -5 -2 -8q-6 0 -130 35q-31 8 -94 19q114 -84 140 -99l101 -55l5 -6v-5h-2q-14 3 -15 3v-7q0 -4 -3 -4l-28 8q-2 0 -10 -1q-1 0 -17 9q0 -14 -9 -14q-10 0 -27 11q-1 -8 -5 -8h-3q-9 0 -39 19q0 -2 -5 -5
l-43 24q0 -3 -4 -3h-3q-42 20 -50 20q-14 -3 -20 -3h-3q-8 0 -132 29l-15 2q-28 0 -41 -22l-3 -1q-45 21 -56 21q-10 -1 -10 -4l5 -3q0 -5 -6 -5l14 -13q-6 -2 -6 -4q1 0 1 -2l-8 -1q5 -24 5 -44l-3 -2q0 2 -2 2q0 -13 -28 -53q-23 -64 -23 -69t-2 -11q2 -10 2 -20v-8
q0 -3 11 -11q6 0 15 3q27 -10 27 -30q1 -6 1 -11l-3 -1q-11 28 -22 28h-9q-4 -10 -8 -11q-7 0 -28 11q-7 -14 -23 -31q0 -7 -8 -11h-3l-11 1q-10 -14 -10 -28h-3v16q0 9 25 51l-14 -11h-8q-2 0 -6 7q-3 0 -19 -16v3q0 20 30 25q43 28 45 44q18 53 25 102v1q0 11 -6 52l2 9
q0 4 -2 13q3 11 3 17q-19 17 -28 17v-2l6 -20l-9 -8l-2 -1h-4q6 -10 6 -14v-2q0 -8 -6 -11h-2l-17 16l-3 -2q-3 2 -5 2q0 -2 -1 -2q4 -8 4 -14l-3 -1h-8l-7 11h-2v-4q2 -33 2 -39q0 -31 -52 -76q-19 -20 -19 -27v-3q2 -5 10 -5l39 11q20 -5 20 -25q0 -3 -3 -3q-7 17 -14 17
q-10 0 -13 -17q-5 -3 -9 -3h-2q-17 0 -42 3q-12 -8 -17 -8h-11q-4 0 -16 6l-7 -1h-4q-6 0 -12 1q-6 -1 -13 -1q-4 0 -4 8q-11 -10 -11 -14h-3v3q0 10 9 22v1q0 3 -8 5q-9 -2 -17 -9h-2q0 12 19 17q3 0 30 -11h22q23 0 23 11q17 7 60 56q0 2 1 5q-15 106 -33 156
q-39 96 -79 136q-1 13 -54 63q-15 26 -17 51l2 26q-6 22 -6 32l-5 -3q-3 0 -3 3q1 3 1 7q-4 0 -6 9h-3v2q0 6 5 34l-2 3q5 17 6 56v4h-1q0 -9 -7 -11h-1v42q0 56 -50 56q-83 5 -83 11q0 12 34 35q59 25 104 26q38 25 65 25zM378 1272q11 -1 11 -5v-2q0 -2 -2 -3h-9
q-1 0 -2 -3v-6q9 -1 9 -4v-4q-1 -2 -8 -2h-1v-28q0 -12 -8 -12q-5 0 -5 6v34h-3q-5 0 -6 3v3q0 4 9 4v6q0 12 15 13zM564 1272q5 0 6 -7v-19q7 8 17 8q17 0 20 -25q-3 -26 -20 -26h-2q-7 0 -15 7q0 -5 -5 -7h-1q-6 0 -6 6v58q2 4 6 5zM511 1270q7 0 7 -13v-4q8 0 9 -4v-3
q-1 -3 -9 -3v-28q0 -2 1 -2h2l6 1q2 0 4 -5q-2 -6 -11 -6h-3q-12 1 -12 12v28q-7 0 -8 3q0 7 8 7v13q2 4 6 4zM414 1254q23 -5 23 -23v-6q-4 -22 -22 -22h-4q-22 4 -22 22v6q0 19 24 23h1zM453 1254q6 -2 6 -8q7 8 15 8q17 0 17 -20v-22q0 -7 -5 -9h-4q-4 2 -4 7v21
q0 12 -7 12h-1q-11 -1 -11 -10v-18q0 -12 -7 -12q-5 0 -5 6v38q0 7 6 7zM619 1254q5 0 16 -36q11 36 16 36h1q3 0 6 -6q-21 -62 -28 -62q-4 -2 -9 -2q-8 0 -10 5v3q0 2 4 4q4 -1 7 -1q2 0 6 9l-17 44q2 6 8 6zM401 1231v-5q0 -11 11 -13h2q10 2 10 13v5q-1 12 -10 12h-2
q-9 0 -11 -12zM571 1231v-7q2 -11 10 -11h2q10 0 10 12v6q0 9 -7 12h-5q-9 0 -10 -12zM191 1161q6 0 7 -7v-49h27q5 0 7 -4v-3q-2 -5 -7 -5h-33q-8 1 -8 9v51q1 8 7 8zM302 1161q5 0 6 -7v-29q19 18 22 18q2 0 5 -6q0 -3 -12 -12q16 -24 16 -27q-1 -4 -5 -6h-4q-3 2 -15 23
h-1l-6 -6v-9q0 -5 -4 -8h-4q-5 3 -5 8v51q0 9 7 10zM483 1161q8 0 8 -12v-18q29 30 32 30q6 -1 6 -4v-2q0 -4 -18 -21v-1q22 -30 22 -36q-1 -5 -6 -5h-1q-7 0 -19 23q-5 9 -6 9q-5 -2 -10 -10v-12q0 -10 -8 -10h-1q-6 3 -6 13v44q0 12 7 12zM646 1161q5 0 6 -7v-29
q18 18 22 18q5 -1 5 -6q0 -3 -11 -12v-1q14 -23 14 -26q0 -6 -6 -6q-5 0 -17 23h-1q-1 0 -6 -6v-12q0 -1 -5 -5h-1q-7 0 -7 12v45q0 12 7 12zM247 1143q5 -2 5 -10v-22q0 -9 8 -9q11 0 11 15v19q0 7 7 7q5 0 5 -9v-34q0 -8 -7 -8q-4 0 -4 9q-8 -9 -19 -9t-14 15v31q3 5 8 5z
M369 1143q21 0 21 -16v-13q0 -6 3 -18l-4 -4h-3q-2 0 -7 7q-9 -7 -18 -7h-1q-15 3 -15 13v1q0 15 33 19q0 9 -9 9h-1q-7 0 -14 -9h-3q-2 0 -4 4q0 12 22 14zM420 1143q18 0 20 -12v-1q0 -1 -4 -4h-3q-8 9 -13 9q-8 -1 -8 -4v-3q1 -2 23 -8q7 -5 8 -11q0 -15 -21 -17h-4
q-18 3 -18 14q1 4 3 5h4q7 -10 16 -10q4 0 7 4q0 8 -21 11q-8 6 -8 11v2q0 12 19 14zM551 1143q4 0 4 -6q6 6 12 6q10 -3 10 -6v-3q-2 -4 -4 -4l-9 2q-8 0 -8 -20v-12q0 -5 -4 -8h-4q-5 2 -5 10v32q0 9 8 9zM607 1143q20 0 20 -21v-13q0 -4 2 -12q-1 -5 -6 -5h-1q-2 0 -7 7
q-9 -7 -18 -7q-16 2 -16 15t33 18q0 9 -7 9h-4q-6 0 -12 -9h-4q-2 0 -3 2v3q3 13 22 13h1zM715 1143q23 -4 23 -22v-7q-5 -22 -22 -22h-5q-22 5 -22 22v7q0 19 25 22h1zM754 1143q5 0 5 -6q6 6 12 6q10 -3 10 -6v-3q-2 -4 -5 -4l-9 2q-7 0 -7 -20v-12q0 -5 -5 -8h-3
q-5 2 -5 10v32q0 9 7 9zM810 1143q21 0 21 -21v-13q0 -4 2 -12q-2 -5 -7 -5h-1q-1 0 -6 7q-9 -7 -19 -7q-15 2 -15 15t33 18q0 9 -8 9h-3q-6 0 -12 -9h-5q-1 0 -3 2v3q3 13 23 13zM702 1120v-5q0 -11 10 -13h3q10 2 10 13v5q-2 13 -10 13h-3q-9 0 -10 -13zM358 1109v-1
q1 -7 7 -7q13 0 13 16q-20 -4 -20 -8zM594 1108q0 -7 8 -7q11 0 12 13v2h-1q-19 -2 -19 -8zM798 1108q0 -7 8 -7q11 0 12 13v2h-1q-19 -2 -19 -8zM425 1050q23 -3 23 -19q0 -13 -26 -33l-3 -3v-1h24q6 0 6 -7q-2 -4 -7 -4h-30q-10 0 -10 7t31 32l2 7v3q-2 8 -9 8h-2
q-7 0 -12 -13l-2 -2h-4q-4 2 -4 6q0 16 23 19zM480 1050q19 0 23 -28v-8q0 -26 -18 -31l-5 -1q-20 0 -23 27l-1 6q0 35 24 35zM535 1050q19 0 22 -28q1 -5 1 -7q0 -33 -26 -33q-16 0 -21 27v8q0 33 24 33zM588 1050q16 0 22 -17q1 -6 2 -16q0 -26 -18 -34l-8 -1
q-15 0 -19 14q1 5 3 5h5q7 -10 11 -10h2q11 2 11 20q-7 -5 -13 -5h-3q-16 0 -19 21v2q0 18 24 21zM470 1022v-13q0 -17 9 -17h3q8 2 8 24q0 21 -8 24h-3q-9 0 -9 -18zM524 1016q0 -22 7 -24h4q9 0 9 17v13q0 18 -9 18h-4q-7 -2 -7 -24zM577 1031v-7q2 -9 9 -9h2q9 0 10 11v2
q0 10 -10 12h-2q-9 -2 -9 -9z" />
    <glyph glyph-name="registered" unicode="&#xae;" horiz-adv-x="1246" 
d="M559 1025h-10q-23 6 -29 6l-35 -5h-5q-41 -12 -47 -21q0 -4 13 -18v-1l-6 -24v-5l14 -21l-6 -18v-6l5 -12l7 -11l10 -1q29 8 38 8q0 -1 24 -8l27 3h11l19 -3q8 7 22 7q9 0 23 -7q56 8 69 23l4 4v12l21 17q2 5 2 8q0 9 -12 15v2q0 3 12 16q-4 8 -29 16l-4 7v11l-9 5
l-25 -3h-8q-27 5 -68 10h-3zM908 668q16 15 28 46v32q0 9 29 39q0 11 -17 27v7l20 36v2q0 11 -20 31v7l17 36v5q-32 26 -32 50q-9 36 -19 36l3 12v8q0 7 -46 35l-18 16l4 19v2q0 31 -113 80q-3 16 -131 36l-3 2l-23 -14l-28 9h-9q-25 -2 -51 -13q-27 0 -42 5q-13 0 -51 -39
q-82 -20 -82 -53v-2l9 -11q14 -5 19 -5q41 3 67 11h6q17 -13 26 -13l23 5l16 -3h9l25 9l34 -8l21 2l26 -5q19 16 25 16l31 -13l21 2q9 0 30 -17q4 -4 30 -6q31 -23 55 -45q14 -10 31 -51l15 -16l-5 -17v-20q-16 -28 -31 -43l-3 -18q0 -8 -30 -13q-21 -18 -21 -26v-1
q12 -18 12 -25q0 -11 10 -31q0 -46 15 -46q19 -12 19 -27l8 -3h26q23 -19 48 -19q8 0 17 -20zM200 974q-33 -36 -33 -72l11 -27v-10l-19 -38q30 -39 30 -55l-4 -10q0 -65 53 -95q8 -8 11 -28l21 6l5 -2q13 4 30 18q34 0 34 32v4l-8 53l10 26l-17 18v2q7 35 15 51l-2 36v4
l-8 19q0 8 12 36v2q-24 28 -24 42l8 15l2 2v4q-3 10 -22 16q-18 6 -43 6q-6 0 -26 -1t-36 -54zM295 574l3 -13l60 -21q16 0 27 -19q52 -41 122 -41q11 0 69 26q13 0 69 -22h10q27 0 48 20q96 0 147 61l-2 11q-14 8 -62 10l-24 12h-26q-12 2 -26 40l-32 14v4q17 2 17 11h-2
q-25 6 -25 15v2q0 6 14 24v6q-10 6 -10 11v6l6 12v2l-17 21q0 15 -16 15q-21 0 -31 12q-2 12 -11 12l-37 -10q-4 4 -29 12l-19 -2l-23 4q-19 0 -39 -22l-1 -6q6 -11 12 -24q-4 -4 -19 -14q6 -8 14 -22q0 -4 -9 -22v-4q0 -2 9 -16q14 -21 43 -21q11 0 38 -6q14 6 27 7
q12 0 25 -55q-9 -14 -38 -14l-14 -5q-23 -11 -35 -11l-40 10h-4l-56 -8l-9 -2l-29 4h-16l-36 2q-10 0 -23 -6zM661 1348h25q36 -36 75 -36q31 0 69 -35q81 -22 108 -76l36 -30q39 -44 45 -96q46 -64 54 -93l-4 -16v-18q27 -20 27 -117l-11 -30l3 -31v-18l-23 -30l4 -39v-4
q-46 -38 -46 -74l-31 -43q-69 -58 -104 -119l-69 -28q-10 -21 -104 -37q-35 -28 -49 -28l-83 22l-24 -2h-12q-13 0 -62 -22h-7q-47 36 -58 36l-35 -4q-11 0 -54 39l-19 4l-27 -4q-21 0 -42 50l-85 67q-14 12 -16 32l-9 27q-14 25 -48 76l-4 14l4 17q-31 46 -31 58
q19 20 19 36q-11 16 -23 33l2 12l15 32q0 8 -14 40l1 13l17 29l3 11l-5 30l5 16l39 41q16 28 33 71q50 42 58 70q27 13 46 55q18 12 70 24q31 39 104 39q38 34 69 34q41 -9 53 -9l31 6l23 -2h15z" />
    <glyph glyph-name="macron" unicode="&#xaf;" horiz-adv-x="1242" 
d="M777 1244h4l48 -22l20 4h20l44 -6h12q31 14 44 14h4q26 -14 72 -72v-8q0 -128 -64 -128q-43 -7 -92 -26h-8l-76 24q-63 -8 -128 -28l-72 28h-52q-15 0 -68 -30h-4l-68 18l-100 6q-21 -18 -48 -18l-68 4l-32 -2q-51 16 -100 22l-48 28l-12 24l36 102l108 50h8
q61 -24 120 -24q17 0 84 26h16q56 -26 68 -26h24q39 0 96 30h4l64 -24q91 0 124 32z" />
    <glyph glyph-name="degree" unicode="&#xb0;" horiz-adv-x="806" 
d="M419 1454q38 0 168 -84q89 -163 89 -227l-79 -163q0 -50 -94 -98l-24 -24l-54 -13l-17 -9l-40 9l-38 3q-27 4 -89 29l-44 2l-20 27q0 34 -64 55q-38 65 -74 98l-5 25l25 64v10q-20 30 -20 59q0 27 118 168q28 49 65 49l29 -5zM315 1280l-58 -15q-10 -32 -21 -39l-12 -10
l-12 -28q-2 -9 -2 -18q0 -43 31 -81q50 -26 96 -50l58 8l39 22l17 46l42 43l5 50q-43 50 -79 66l-33 4q-13 6 -32 6q-17 0 -39 -4z" />
    <glyph glyph-name="plusminus" unicode="&#xb1;" horiz-adv-x="1235" 
d="M454 1283h21q118 0 139 -74l10 -33l-13 -52v-59q-10 -14 -18 -114q0 -66 82 -74l25 -4h21q14 0 79 26h15q46 -15 117 -22q68 -53 68 -85v-7q0 -28 -82 -92h-11l-60 7q-68 -4 -115 -15h-61l-47 15q-31 -16 -31 -37l10 -66l-7 -56l4 -48l-4 -62l7 -41q0 -52 -75 -74
q0 -7 -43 -22q-29 11 -39 30l-28 92v18q14 50 17 122l4 4l-25 114l-18 11h-3q-10 -9 -44 -11l-96 11q-35 -18 -118 -18h-7q-95 0 -132 99v4q0 38 82 114l21 4l54 -11l32 7h4l53 -11l25 8h25q45 -30 69 -30q40 0 57 48v4q-33 159 -33 203v15l4 3l-4 4v4l4 18l-4 11
q0 98 69 122zM682 190h16q48 -32 72 -32h56q40 25 56 25h20q9 0 48 -39q84 -18 84 -68h-4l4 -4v-25q-9 -68 -40 -68h-4l-40 11h-4l-112 -25q-24 -25 -44 -25h-4l-68 21l-68 8l-80 -25h-8q-49 17 -100 21q-55 -21 -72 -21h-8l-72 28l-60 4h-4q-51 -32 -68 -32
q-124 31 -148 67v8q31 142 48 142h12q23 -21 44 -28q86 11 148 46h8q15 0 64 -35h4q75 0 108 28h16l60 -28h4q84 0 136 46z" />
    <glyph glyph-name="acute" unicode="&#xb4;" horiz-adv-x="505" 
d="M374 1779h7q42 0 120 -100l4 -36v-89l3 -16q0 -17 -56 -35q0 -32 -39 -69q-28 -28 -47 -59q-17 -28 -61 -28q-22 -49 -47 -49q-4 0 -8 1h-1q-24 0 -50 -50q-28 -11 -78 -11q-17 0 -36 1l-32 -5q-12 0 -29 -5q-18 0 -28 44l4 20l6 33l9 4q0 24 59 95q0 19 34 70l30 68
q7 0 52 84q20 0 35 68q52 40 149 64z" />
    <glyph glyph-name="periodcentered" unicode="&#xb7;" horiz-adv-x="658" 
d="M392 380q9 0 44 -20h5l18 3q28 0 55 -88q18 -48 44 -73v-2l-12 -41v-3l12 -44q0 -8 -47 -49q-29 -40 -29 -58q0 -27 -14 -32h-3q-8 0 -29 14l-15 3l-29 -3l-32 3l-53 -32q-7 0 -46 38l-12 3l-12 -3q-18 3 -37 55q-33 15 -33 44l3 9q-20 35 -20 49q0 12 47 99q16 67 52 67
l67 46q42 0 76 15z" />
    <glyph glyph-name="periodcentered" unicode="&#x2219;" horiz-adv-x="658" 
d="M392 380q9 0 44 -20h5l18 3q28 0 55 -88q18 -48 44 -73v-2l-12 -41v-3l12 -44q0 -8 -47 -49q-29 -40 -29 -58q0 -27 -14 -32h-3q-8 0 -29 14l-15 3l-29 -3l-32 3l-53 -32q-7 0 -46 38l-12 3l-12 -3q-18 3 -37 55q-33 15 -33 44l3 9q-20 35 -20 49q0 12 47 99q16 67 52 67
l67 46q42 0 76 15z" />
    <glyph glyph-name="cedilla" unicode="&#xb8;" horiz-adv-x="616" 
d="M424 -2q-18 -12 -28 -28l-14 -11q17 -24 57 -74l13 -45v-22l-27 -81v-9l5 -18q0 -40 -104 -89q0 -9 -109 -23l-13 -4h-5q-72 13 -82 31l-17 9q-82 30 -95 118l20 52l53 -11q7 -27 75 -51q23 -1 41 -1h16l16 1h5q31 0 54 49q-23 21 -23 49q-14 17 -86 40q-18 0 -34 98
q-11 7 -27 20h309z" />
    <glyph glyph-name="uni00B9" unicode="&#xb9;" horiz-adv-x="2302" 
d="M322 866h5q55 0 77 -59l2 -21q0 -51 -67 -74h-19q-53 0 -75 60q-2 11 -2 16q12 78 79 78zM470 866h4q3 0 11 -10v-115h65q15 0 15 -14q-4 -10 -9 -11h-86q-17 0 -17 21v108q0 21 17 21zM724 866h9q10 -5 10 -16v-66q41 41 43 41h11q9 -4 9 -12q0 -1 -26 -31l34 -53
q-2 -17 -15 -17q-12 6 -43 53q-13 -13 -13 -14v-22q0 -13 -15 -17q-15 0 -15 21v112q0 16 11 21zM1152 866q17 0 17 -23v-43q3 0 65 62l6 4h5q11 0 15 -8v-10q-37 -39 -43 -39q0 -6 49 -74q2 -4 2 -8v-5q-6 -10 -17 -10q-14 0 -56 72h-2q-3 0 -24 -23v-20q0 -29 -17 -29
t-17 29v102q0 23 17 23zM1533 866q13 0 13 -14v-68q40 41 50 41h4q3 0 8 -8q0 -10 -25 -33v-2q34 -48 34 -58q-5 -12 -15 -12q-11 3 -41 51q-15 -9 -15 -12v-22q-2 -17 -15 -17q-12 0 -15 23v108q0 23 17 23zM260 788q12 -59 58 -59h13q46 0 58 59q-9 62 -65 62
q-64 -9 -64 -62zM324 833q26 0 37 -24l-6 -5h-13q0 10 -18 13q-19 0 -19 -23v-14q0 -11 13 -19h6q11 0 22 17q15 -5 15 -8q-11 -25 -37 -25q-38 6 -38 35q-2 0 -2 10q5 43 40 43zM591 825h10q11 -5 11 -21v-51q0 -11 11 -16h11q21 0 21 33v41q0 14 15 14h5q10 -5 10 -16v-76
q0 -16 -8 -19h-11q-8 0 -9 17q-17 -17 -34 -17h-7q-34 4 -34 33v64q0 11 9 14zM875 825h23q37 -4 37 -33v-33q0 -15 6 -35q-4 -9 -8 -10h-11q-2 0 -15 15q-18 -17 -41 -17q-37 6 -37 33v2q0 27 63 35q4 0 15 4q0 13 -11 18h-23q-4 0 -22 -20h-2q-12 0 -15 10q0 24 41 31z
M1002 825h10q39 -6 39 -27q-3 -10 -15 -10q-22 19 -30 19h-4q-12 0 -15 -9v-4q4 -7 58 -22q13 -14 13 -23q0 -33 -52 -37q-50 7 -50 31q3 8 11 12q9 0 26 -20l13 -2h6q15 0 15 14q0 7 -53 23q-15 10 -15 22q0 33 43 33zM1303 825h9q8 0 8 -14l17 14h13q13 0 22 -12v-9
q-1 -4 -11 -8q-8 4 -17 4h-2q-20 0 -20 -45v-26q-2 -17 -15 -17q-15 4 -15 19v73q0 16 11 21zM1432 825h17q39 0 39 -47v-33q0 -2 4 -23q0 -3 -8 -8h-11l-15 15q-18 -17 -39 -17q-39 6 -39 35q0 27 65 35q13 2 13 6q0 16 -15 16h-13q-10 0 -28 -20h-7q-3 0 -8 8v10
q12 23 45 23zM1682 825h15q42 0 49 -53v-4q-7 -56 -56 -56q-58 9 -58 49v11q7 53 50 53zM1778 825h9q9 0 9 -14l17 14h13q13 0 21 -12v-9q-1 -4 -10 -8q-8 4 -18 4h-2q-19 0 -19 -45v-26q-2 -17 -15 -17q-15 4 -15 19v73q0 16 10 21zM1908 825h17q39 0 39 -47v-33
q4 -20 4 -23t-9 -8h-11q-1 0 -15 15q-18 -17 -38 -17q-39 6 -39 35q0 27 64 35q13 2 13 6q0 16 -15 16h-13q-10 0 -28 -20h-6q-3 0 -9 8v10q12 23 46 23zM1662 774v-11q3 -28 26 -28h2q22 0 26 28v11q0 30 -28 30q-22 0 -26 -30zM860 745q0 -7 10 -12h11q26 0 26 35h-2
q-45 -7 -45 -23zM1410 745q3 -8 11 -12h11q26 0 26 32v3q-48 -7 -48 -23zM1886 745q3 -8 11 -12h11q25 0 25 32v3q-47 -7 -47 -23zM851 620q13 0 15 -17q-3 -8 -11 -12h-4q-15 0 -15 14q0 11 15 15zM1180 563v9q2 5 8 5h12v14q0 29 37 29h4q17 0 22 -10v-7q0 -4 -11 -6
q-11 2 -13 2q-8 -3 -8 -6v-16h8q13 -2 13 -6v-9q0 -3 -6 -6h-15v-67q-3 -23 -15 -23q-13 0 -16 16v74h-6l-10 1q-4 2 -4 6zM126 616h4q15 0 15 -15v-24h15q4 0 9 -8v-5q0 -3 -9 -8h-15v-51q0 -15 9 -16l13 2h4q3 0 6 -7v-6q0 -9 -30 -12q-32 0 -32 45v45q-15 0 -15 6v7
q0 6 15 8v12q0 24 11 27zM909 616h9q3 0 10 -11v-28h16q8 -4 8 -15l-8 -6h-16v-55q0 -10 9 -12l13 2h4q3 0 7 -7v-6q0 -8 -30 -12q-33 0 -33 37v53q-15 0 -15 6v9q2 6 15 6v22q0 11 11 17zM1547 616h4q11 -6 11 -17v-22h9q12 -2 12 -6v-9q-2 -6 -12 -6h-9v-61q0 -3 6 -6
q12 2 20 2q6 -7 6 -11q-4 -14 -32 -14q-30 0 -30 35v55q-17 0 -17 11q2 10 17 10v24q0 15 15 15zM2059 616h11q11 -3 11 -27v-12h8q13 -2 13 -6v-9q-2 -6 -13 -6h-8v-61q0 -3 6 -6q12 2 19 2l5 -7v-8q-9 -10 -28 -10q-33 2 -33 25v65q-17 0 -17 8v5q0 7 17 8v24q0 11 9 15z
M188 579h9q9 0 34 -80h2q23 74 33 80h10q5 -1 9 -10q-48 -138 -62 -138q-8 -4 -18 -4h-15q-11 0 -15 8v8q0 3 7 7h21q7 0 13 22q-21 48 -39 95q3 8 11 12zM313 579h9q10 -5 10 -17q17 17 33 17h6q37 0 45 -47v-17q-9 -49 -49 -49q-17 1 -35 16v-39q0 -11 -10 -16h-11
q-7 0 -9 27v104q0 16 11 21zM483 579h13q42 0 47 -49q0 -15 -28 -15h-51q3 -28 25 -28h3q13 0 36 18h7q3 0 6 -6v-2q0 -24 -49 -31q-58 8 -58 49v10q6 54 49 54zM565 579h11q6 0 28 -74h2q17 74 28 74h13q10 0 28 -76h2q20 76 28 76h4q15 0 15 -12q-32 -101 -45 -101h-4
q-17 0 -35 74h-2q-15 -74 -32 -74h-2q-17 0 -33 59q-3 0 -15 44q4 9 9 10zM750 579h11q8 -4 8 -15q12 15 22 15h8q13 0 22 -12v-3q0 -12 -9 -12q-22 2 -26 2q-12 0 -15 -33v-37q0 -12 -15 -18q-13 0 -15 16v78q0 16 9 19zM851 579h4q11 -5 11 -17v-78q0 -12 -15 -18
q-13 0 -15 16v82q0 15 15 15zM1015 579h12q42 0 48 -49q0 -15 -28 -15h-52q4 -28 26 -28h2q14 0 37 18h6q3 0 7 -6v-2q0 -24 -50 -31q-58 8 -58 49v10q6 54 50 54zM1310 579h15q43 0 50 -54v-4q-7 -55 -56 -55q-58 9 -58 49v10q7 54 49 54zM1405 579h11q8 -3 8 -17h2
q10 17 31 17h10q27 0 33 -35v-62q-3 -16 -15 -16q-16 6 -16 18v52q0 20 -15 20h-6q-17 0 -22 -22v-50q0 -12 -15 -18q-13 0 -15 16v82q0 11 9 15zM1642 579h10q39 -6 39 -27q-3 -10 -15 -10q-22 18 -30 18h-4q-12 0 -15 -8v-4q4 -7 58 -23q13 -13 13 -22q0 -33 -52 -37
q-50 7 -50 31q3 8 11 12q9 0 26 -20l13 -2h6q15 0 15 14q0 7 -53 22q-15 11 -15 23q0 33 43 33zM1794 579h11q9 -3 9 -17q16 17 32 17h9q34 -4 34 -33v-70q-2 -6 -15 -10q-12 0 -15 23v51q0 16 -15 16h-7q-21 0 -21 -33v-41q-2 -16 -15 -16q-15 6 -15 18v76q0 16 8 19z
M1967 579h8q40 0 47 -47q0 -17 -23 -17h-56v-4q5 -24 26 -24h4q12 0 32 18h9q3 0 6 -6v-2q0 -23 -49 -31q-60 6 -60 57q0 37 36 54q12 2 20 2zM335 534v-21q0 -20 28 -24q23 6 23 30v9q0 30 -28 30q-23 -7 -23 -24zM464 534h49v4q-3 20 -19 20h-9q-16 0 -21 -24zM995 534h50
v4q-3 20 -20 20h-8q-17 0 -22 -24zM1291 528v-11q3 -28 26 -28h2q22 0 26 28v11q0 30 -28 30q-23 0 -26 -30zM1943 534h49q0 17 -15 24h-13q-18 0 -21 -24zM1738 499q18 -2 18 -17q0 -12 -15 -16q-18 2 -18 16v7q7 10 15 10zM1101 582h9q9 0 9 -14l17 14h13q13 0 21 -12v-9
q-1 -4 -10 -8q-8 4 -18 4h-2q-19 0 -19 -45v-26q-2 -17 -15 -17q-15 4 -15 19v73q0 16 10 21z" />
    <glyph glyph-name="guillemotright" unicode="&#xbb;" horiz-adv-x="2832" 
d="M1174 1406h47q146 0 273 -115q20 -9 33 -9l93 31q59 18 139 18h13q280 -7 362 -166q15 -28 73 -28q214 0 318 -181q26 -58 26 -124q0 -42 -24 -126v-11q0 -20 60 -94q33 -68 33 -140q0 -167 -157 -244q-61 -26 -79 -82q-39 -113 -122 -157q-87 -44 -192 -44
q-21 0 -151 13q-38 -21 -81 -75q-107 -99 -209 -99h-42q-101 0 -216 104q-18 4 -22 4q-22 0 -95 -55q-106 -60 -232 -60q-182 0 -263 157q-21 24 -50 24h-60q-199 0 -289 139q-35 57 -35 144q0 10 4 75q0 28 -62 99q-66 105 -66 214q0 160 168 225q26 21 26 44q0 19 -2 71
q0 132 137 210q76 35 170 35h6q22 0 104 -7h7q34 0 73 80q58 82 196 119q45 11 88 11zM872 1121q-117 31 -170 31q-145 0 -225 -115q-27 -44 -27 -90q0 -33 25 -106v-7q0 -27 -75 -42q-142 -58 -142 -178q0 -131 133 -254q6 -22 6 -27q-15 -67 -15 -103v-5q0 -155 188 -214
q36 -11 83 -11q40 0 109 16h4q30 0 53 -75q76 -122 210 -122q141 0 267 117q23 32 53 53q18 0 70 -70q97 -93 181 -93h13q112 0 212 130q30 62 53 62h7l123 -27q48 -4 62 -4q158 0 239 124q24 43 24 105l6 11q31 10 75 31q148 71 148 208q0 104 -108 185q-11 15 -11 22v9
q0 9 40 86q11 35 11 62v7q0 118 -144 209q-72 38 -134 38h-2q-37 0 -100 -20q-16 10 -28 48q-19 64 -82 106q-117 62 -236 62q-161 0 -241 -92q-7 -5 -13 -5h-4q-17 2 -62 66q-109 106 -252 106q-152 0 -258 -117q-24 -36 -40 -103q-8 -14 -26 -14zM755 958h7q4 -1 4 -4v-80
q0 -6 20 -9l2 -4v-31q0 -6 -20 -11q-2 -4 -2 -9v-101q0 -18 24 -18q2 -5 5 -20q-3 -31 -11 -31h-40q-31 0 -31 51v126l-20 11v33q0 6 20 9v50q0 38 42 38zM1739 958h7q24 0 24 -29v-6q0 -29 -26 -29q-29 0 -29 31v2q0 31 24 31zM1874 958q3 0 6 -7v-79q0 -4 20 -7v-37
l-20 -11v-111q0 -15 25 -15l2 -4v-31q0 -16 -16 -16h-37q-22 0 -27 33v144q0 4 -19 9v37q0 5 4 5h13l2 11v53q5 26 47 26zM828 874h33q20 0 20 -46q11 -90 11 -97q5 0 17 138l5 5h44l7 -4q-42 -254 -65 -269q-7 -8 -31 -8h-6q-35 6 -35 36q2 18 9 18l15 -2q3 1 4 6l-32 220z
M1000 874h26q16 0 16 -11h2q15 11 29 11h11q46 0 50 -106v-11q0 -117 -50 -117h-14q-12 0 -24 9h-2v-53q-2 -7 -13 -7h-22q-12 0 -14 7v274q1 4 5 4zM1234 874h9q61 0 61 -95v-28q0 -16 -11 -16q-12 0 -72 -2v-11q0 -31 22 -31h4q16 0 51 13l4 -6v-16q0 -44 -62 -44
q-72 0 -72 119q0 88 44 113q17 4 22 4zM1340 874h39q11 -11 23 -126q2 -20 4 -31h2q9 20 9 61v8q0 20 -7 84l7 4h35q12 -2 19 -84q2 -21 3 -68q7 0 22 132q0 18 9 20h40l7 -4q-32 -230 -40 -230h-53q-11 0 -18 51h-2q-8 -51 -18 -51h-50q-13 0 -22 113q-5 37 -16 117z
M1589 874h38q5 0 6 -17h3q11 14 37 17h2q9 -3 9 -20v-24q0 -16 -34 -29q-15 -12 -15 -24v-119q0 -16 -6 -18h-40q-7 2 -7 18v210q0 3 7 6zM1724 874h37q9 -3 9 -15v-206q0 -15 -15 -15h-22q-12 0 -16 9v221q0 3 7 6zM2002 874q64 0 64 -86v-40q0 -13 -9 -13l-75 -2v-5
q0 -37 24 -37h2q16 0 51 13l5 -6v-18q0 -42 -58 -42q-43 0 -64 40q-11 20 -11 55v42q0 71 44 95q16 4 27 4zM2112 874h38q6 0 6 -18q20 18 42 18l7 -9v-39q0 -14 -35 -27q-14 -14 -14 -24v-122q0 -11 -6 -13h-38q-3 0 -6 7v221q0 3 6 6zM1223 804v-25q0 -3 6 -6h25q4 0 4 4
v29q0 12 -13 20h-5q-17 0 -17 -22zM1984 801v-22q0 -3 7 -6h24q3 0 7 6v11q0 36 -20 36q-18 0 -18 -25zM1044 797v-69q1 -35 18 -35q22 0 22 64q0 66 -22 66q-18 -3 -18 -26zM1341 501l3 -4v-80q0 -5 20 -8l2 -5v-31q0 -5 -20 -9l-2 -4v-108q0 -14 24 -18q3 -5 5 -20
q0 -31 -18 -31h-35q-29 0 -29 51v130q-20 3 -20 7v33q0 6 20 9v51q0 37 42 37h8zM2055 503q6 -8 6 -15v-73q0 -4 20 -6v-36q0 -6 -20 -9v-121q0 -4 25 -9l2 -11v-18q0 -17 -11 -22h-38q-31 0 -31 34q0 35 -2 147q-20 0 -20 16v17q0 16 20 16v15q0 64 13 64q19 9 36 11z
M865 501h22q16 0 16 -26q0 -22 -22 -22q-5 -8 -5 -18v-13l3 -11h6q13 -2 13 -7v-31q0 -3 -8 -9h-11v-174q0 -3 -7 -7h-40q-3 0 -6 7v31q0 47 -3 143q-20 0 -20 7v33q0 6 20 9v24q0 64 42 64zM984 417h22q58 0 58 -101v-29q0 -104 -55 -104h-20q-64 0 -64 106v31q0 97 59 97z
M1112 417h36q6 -1 6 -15q23 15 38 15h18q26 -5 26 -26q2 -92 2 -141v-60q0 -3 -6 -7h-36q-6 3 -6 14v128q0 35 -7 42q-29 0 -29 -73v-106q0 -5 -4 -5h-38q-3 0 -6 7v221q0 3 6 6zM1466 417h6q38 0 46 -15v-18q0 -16 -6 -17l-38 4q-17 -3 -17 -18q0 -3 57 -59q11 -26 11 -42
q-8 -69 -66 -69h-9q-39 0 -48 18v35q0 4 6 7h5q31 -11 37 -11h4q18 0 18 20v2q0 20 -55 68q-11 21 -11 31v7q0 37 33 53q15 4 27 4zM1662 417h35q7 -1 7 -15h2q19 15 35 15h18q27 0 27 -48q2 -31 2 -91v-88q0 -3 -7 -7h-35q-7 3 -7 14v121q0 42 -6 49q-29 0 -29 -73v-106
q0 -5 -5 -5h-37q-3 0 -7 7v221q0 3 7 6zM1887 417h13q60 0 60 -97v-26q0 -12 -9 -16h-71q-4 0 -4 -4v-9q0 -31 24 -31q17 0 51 13q3 0 7 -6v-16q0 -44 -60 -44q-75 0 -75 119q0 100 53 115q4 2 11 2zM973 296q0 -64 22 -64h7q16 0 16 71q0 68 -20 68h-3q-22 0 -22 -75z
M1878 351v-29q0 -3 7 -6h17l12 2v27q0 24 -18 24t-18 -18zM1587 247q26 0 26 -35q0 -29 -19 -29h-9q-27 0 -27 31q3 33 29 33z" />
    <glyph glyph-name="onequarter" unicode="&#xbc;" horiz-adv-x="1325" 
d="M913 1275h10q32 0 32 -86q8 -1 19 -42q0 -20 -61 -60q-9 -20 -16 -89l-63 -58l-29 -48q-8 -42 -22 -57l-23 -19l4 -16v-16q-8 -16 -39 -32q0 -26 -35 -73l-3 -16l3 -13q0 -12 -41 -45l-58 -73l10 -38l-48 -45q0 -19 -48 -61l7 -25v-10l-86 -79l-7 -13l16 -38
q0 -9 -51 -45q-28 -53 -35 -108q-49 -43 -86 -144q-25 -22 -92 -51h-13q-32 35 -32 67q0 41 35 92v7l-3 22q0 7 54 58l35 54l3 9l-3 4v19q59 56 83 146q63 49 83 118q0 9 57 112q16 60 54 86q32 63 48 118q40 25 64 109q0 15 45 63l35 77q9 26 35 67q0 40 41 76q9 45 70 86
q24 0 51 10zM236 1435q16 0 30 -41q7 -1 30 -57q6 0 16 -25q-14 -13 -14 -54l-11 -38l9 -41l-6 -36l6 -40l-9 -28l14 -43l-5 -38l2 -25l-5 -49l8 -44l-5 -38l8 -24l-17 -49q17 -32 17 -47v-35l8 -41l-16 -35v-6l13 -38l-11 -35v-25q0 -33 -43 -46l-36 -22h-16q-18 0 -46 93
l2 30l-5 43l11 38v17l-8 32l8 112l-8 44q7 28 13 106q0 7 -24 46v14l19 98v8q-16 44 -22 44l-14 3l-84 -28h-3q-46 45 -46 87q0 50 80 86q22 48 55 48q35 52 49 52l16 2l18 5zM889 741q32 0 41 -48q10 -20 10 -37l-5 -48l10 -30l-3 -17l8 -48l-10 -45l10 -35l-5 -40l10 -38
l-10 -33l10 -40l-5 -27l7 -38l-5 -30q10 -50 23 -50l2 -3v-2l15 5l30 -3q12 0 28 18h15q12 -18 27 -18l28 3q15 -15 15 -20l-8 -35l5 -28q-5 -11 -10 -12h-27l-35 -23l-18 3l-35 -8h-7l-8 5h-10l3 -2v-3q-8 0 -25 -47q20 -32 20 -41l-10 -32l7 -33l-7 -27l2 -28v-10
q0 -34 -50 -37q-22 -18 -33 -18q-47 62 -47 85l5 25l-5 33l2 40l-2 50q17 20 17 30q-12 28 -60 28h-5l-50 -18q-24 20 -85 20l-33 -20h-7l-38 10l-12 -2h-5q-39 0 -73 40v7l3 3v2l-3 3q8 32 33 88q4 0 17 35q53 32 53 62q7 0 15 45q35 32 35 53q46 54 52 100q33 32 33 53
l-2 10l22 30q0 41 53 58l5 10v10q0 30 30 72q46 38 52 38zM799 430v-2l3 -14q0 -6 -23 -32q-38 -88 -46 -93q-39 -34 -51 -58l12 -30l-28 -22q-10 -17 -12 -46h5q6 -14 16 -14q1 6 23 17l28 -22l27 8h17l18 -5h11l12 9l37 -2l14 21l-7 34l4 29v2q-15 23 -15 39l11 38l-5 33
l3 10l-8 43l12 36v5q0 7 -21 33v7q0 7 9 19v9l-6 8q-25 0 -40 -60z" />
    <glyph glyph-name="onehalf" unicode="&#xbd;" horiz-adv-x="1536" 
d="M920 1264h10q32 0 32 -86q8 -1 19 -42q0 -20 -61 -60q-9 -20 -16 -89l-63 -58l-29 -48q-8 -42 -22 -57l-23 -19l4 -16v-16q-8 -16 -39 -32q0 -26 -35 -73l-3 -16l3 -13q0 -12 -41 -45l-58 -73l10 -38l-48 -45q0 -19 -48 -61l7 -25v-10l-86 -79l-7 -13l16 -38
q0 -9 -51 -45q-28 -53 -35 -108q-49 -43 -86 -144q-25 -22 -92 -51h-13q-32 35 -32 67q0 41 35 92v7l-3 22q0 7 54 58l35 54l3 9l-3 4v19q59 56 83 146q63 49 83 118q0 9 57 112q16 60 54 86q32 63 48 118q40 25 64 109q0 15 45 63l35 77q9 26 35 67q0 40 41 76q9 45 70 86
q24 0 51 10zM243 1424q16 0 30 -41q7 -1 30 -57q6 0 16 -25q-14 -13 -14 -54l-11 -38l9 -41l-6 -36l6 -40l-9 -28l14 -43l-5 -38l2 -25l-5 -49l8 -44l-5 -38l8 -24l-17 -49q17 -32 17 -47v-35l8 -41l-16 -35v-6l13 -38l-11 -35v-25q0 -33 -43 -46l-36 -22h-16q-18 0 -46 93
l2 30l-5 43l11 38v17l-8 32l8 112l-8 44q7 28 13 106q0 7 -24 46v14l19 98v8q-16 44 -22 44l-14 3l-84 -28h-3q-46 45 -46 87q0 50 80 86q22 48 55 48q35 52 49 52l16 2l18 5zM1037 724q27 -16 84 -16q18 -16 67 -30q25 -27 67 -46q22 -19 30 -67l38 -62q16 -11 18 -92l3 -8
l-13 -37l10 -36q0 -7 -26 -35q-36 -49 -36 -62q0 -24 -13 -32h-13l-9 8q-20 -7 -21 -13v-16q0 -36 -49 -36q-27 -41 -35 -43l-27 8h-8q-5 0 -13 -29q-12 -11 -22 -11l-32 8q-13 -11 -22 -30q-18 -16 -43 -16l-2 3h-3q-16 -5 -16 -14l5 -24l-13 -11l-35 11l-16 -48
q-14 -11 -14 -22h-3q0 -16 35 -29q22 3 22 13h8l5 -5l-2 -3q27 -16 35 -16l35 21l38 -8l24 33h11l29 -22l19 5q29 -5 35 -10h11l35 10l35 -8l21 8h14q51 -54 65 -97q6 0 13 -27q0 -8 -40 -24q-14 -32 -33 -32l-21 11h-54l-11 2l-46 -24h-2l-35 19l-14 -3l-100 14l-48 -19h-3
l-43 27l-11 2h-5l-11 -2l-11 2h-5l-35 -29l-65 24h-24q-24 0 -43 111q12 102 30 110q0 16 54 76q0 30 45 40q23 37 35 46q28 0 41 21l-3 14v13l16 16l38 -5q36 32 48 32q25 0 62 33q21 0 52 38q35 10 35 18q4 19 24 49l3 11l-6 16v8l27 30v8q-2 7 -43 35l-3 8l3 24
q-9 46 -46 46q-13 0 -51 21h-5v3l2 3v3h-46q-31 -30 -40 -30v-3l-13 3h-14l-27 -32l-11 -6h-8l-27 11l-8 -14l3 -24l-35 -43v-11l-3 -4l-5 -1q-7 -11 -12 -26l-3 -15l-4 -10q-9 -27 -24 -27q-16 0 -38 59q-13 15 -19 57q0 88 35 110q54 47 54 86l19 14l30 -6l24 9h19l2 -3
q7 0 46 30l43 -3q25 15 38 16z" />
    <glyph glyph-name="threequarters" unicode="&#xbe;" horiz-adv-x="1487" 
d="M1067 1260h10q32 0 32 -86q8 -1 19 -42q0 -20 -61 -60q-9 -20 -16 -89l-63 -58l-29 -48q-8 -42 -22 -57l-23 -19l4 -16v-16q-8 -16 -39 -32q0 -26 -35 -73l-3 -16l3 -13q0 -12 -41 -45l-58 -73l10 -38l-48 -45q0 -19 -48 -61l7 -25v-10l-86 -79l-7 -13l16 -38
q0 -9 -51 -45q-28 -53 -35 -108q-49 -43 -86 -144q-25 -22 -92 -51h-13q-32 35 -32 67q0 41 35 92v7l-3 22q0 7 54 58l35 54l3 9l-3 4v19q59 56 83 146q63 49 83 118q0 9 57 112q16 60 54 86q32 63 48 118q40 25 64 109q0 15 45 63l35 77q9 26 35 67q0 40 41 76q9 45 70 86
q24 0 51 10zM1048 730q32 0 41 -48q10 -20 10 -37l-5 -48l10 -30l-3 -17l8 -48l-10 -45l10 -35l-5 -40l10 -38l-10 -33l10 -40l-5 -27l7 -38l-5 -30q10 -50 23 -50l2 -3v-2l15 5l30 -3q12 0 28 18h15q12 -18 27 -18l28 3q15 -15 15 -20l-8 -35l5 -28q-5 -11 -10 -12h-27
l-35 -23l-18 3l-35 -8h-7l-8 5h-10l3 -2v-3q-8 0 -25 -47q20 -32 20 -41l-10 -32l7 -33l-7 -27l2 -28v-10q0 -34 -50 -37q-22 -18 -33 -18q-47 62 -47 85l5 25l-5 33l2 40l-2 50q17 20 17 30q-12 28 -60 28h-5l-50 -18q-24 20 -85 20l-33 -20h-7l-38 10l-12 -2h-5
q-39 0 -73 40v7l3 3v2l-3 3q8 32 33 88q4 0 17 35q53 32 53 62q7 0 15 45q35 32 35 53q46 54 52 100q33 32 33 53l-2 10l22 30q0 41 53 58l5 10v10q0 30 30 72q46 38 52 38zM958 419v-2l3 -14q0 -6 -23 -32q-38 -88 -46 -93q-39 -34 -51 -58l12 -30l-28 -22q-10 -17 -12 -46
h5q6 -14 16 -14q1 6 23 17l28 -22l27 8h17l18 -5h11l12 9l37 -2l14 21l-7 34l4 29v2q-15 23 -15 39l11 38l-5 33l3 10l-8 43l12 36v5q0 7 -21 33v7q0 7 9 19v9l-6 8q-25 0 -40 -60zM221 1430h7q8 0 35 -17l30 5q22 -10 90 -23q0 -4 44 -15q71 -54 92 -122q10 0 13 -64
l-3 -20l3 -23q0 -10 -35 -74q-27 -29 -30 -57q-10 -4 -10 -18q17 -16 42 -57q35 -17 35 -42q22 -21 25 -33l-2 -40q27 -62 27 -74v-5l-25 -134q-11 -47 -52 -83q-11 -27 -70 -52q-45 -13 -74 -42h-5l-48 2q-6 -12 -19 -12h-10l-18 5l-42 -5l-30 2l-20 -2q-27 4 -27 7l-43 -5
q-21 17 -87 35q-17 19 -17 45q11 55 40 55h12l30 -5l20 2l27 -7l30 7h13q13 -10 22 -10l30 8h5l27 -3l42 18q0 -5 33 -13q48 0 69 33l20 17q-3 17 -14 26l-1 6l13 1h2q8 0 18 4l7 3l3 -3l10 15l-5 23l25 87l-13 37l-10 37q-20 48 -62 48q-41 44 -55 44q-54 17 -73 38l-1 13
l2 9q0 4 32 32l55 38q17 28 52 47l15 22l-2 3v2l5 48q0 54 -57 74q-22 28 -43 28q-43 0 -77 15h-12l-50 -25q-32 0 -67 -33h-3q-25 15 -67 23q-17 18 -17 27v18q0 28 45 44q64 53 109 53l8 -3q0 4 32 15z" />
    <glyph glyph-name="questiondown" unicode="&#xbf;" horiz-adv-x="1104" 
d="M436 1102q-54 39 -71 102l-2 64q14 54 44 75q18 21 96 35q125 0 170 -86q5 -26 22 -52v-11q-11 -71 -72 -129q-12 -13 -43 -22q-37 -4 -63 -4q-21 0 -38.5 4t-42.5 24zM560 988q35 -24 63 -68l13 -18v-8l-8 -49q20 -46 20 -63l-24 -60l9 -58l-25 -103l-53 -82l-84 -36
l-39 -31l-49 -22q-62 -28 -105 -77l-9 -49l2 -14q14 -50 60 -83q58 -41 112 -51q22 -4 47 -4q34 0 67 7q12 -3 29 -3q42 0 85 28q58 37 77 79l2 30q-54 39 -54 81q0 61 47 109q28 28 74 35q140 -15 167 -90l20 -42q-6 -52 -6 -67q0 -25 6 -25l4 -12q-29 -103 -60 -116
q-29 -59 -78 -79l-82 -53q-77 -7 -109 -37l-14 -3l-63 5l-43 -11l-37 7l-32 -6l-9 -2l-16 3l-36 12q-119 30 -134 43q-22 30 -119 69l-68 88q-36 88 -36 128q20 50 24 111q52 41 90 103l41 13l45 24q58 6 93 49q39 16 48 44v36q22 25 22 71v8l-4 28l10 31l1 16l-5 39l5 23
q2 59 24 85q13 21 38 22q7 1 13 1q23 0 43 -6z" />
    <glyph glyph-name="Agrave" unicode="&#xc0;" horiz-adv-x="1276" 
d="M360 1792q80 0 80 -20l28 -48q112 -120 112 -128q78 -46 84 -80q52 -57 52 -76v-4l-4 -4l16 -80l-8 -40q0 -29 20 -48q4 -69 24 -132l-8 -48q0 -14 36 -80l40 -68l-4 -24q0 -17 24 -68l-12 -44q0 -23 28 -56q0 -42 52 -92v-48l16 -48v-36q0 -20 32 -72q0 -87 44 -172
q12 -73 36 -104q16 -40 76 -40q91 -68 92 -108v-4l-20 -52q-16 -34 -56 -52q-40 0 -136 -32h-36q-33 20 -56 20h-44l-48 -12h-20q-20 0 -60 36q-68 23 -68 68v4l12 76v16l24 28q19 0 40 -12q27 0 40 36q52 18 52 40q0 28 -40 48q-59 48 -72 48l-4 -4h-32q-37 0 -88 -32
l-56 52h-64l-20 4l-8 -8l-52 -80v-8q36 -84 64 -84l32 4q48 -25 48 -128q0 -32 -48 -56q-38 0 -44 -8q-45 -40 -56 -40q-68 28 -84 28q-39 0 -124 -20q-25 0 -60 12l-28 -16q-11 -15 -32 -16l-4 4l4 20v8q-48 55 -48 72q10 37 40 84q12 68 48 68h4l40 -16q28 10 28 40
q76 62 76 156q28 96 28 120q56 80 56 128l-4 4l4 44q28 69 28 116l40 64l-8 44q52 107 52 140l-4 28q0 20 28 84v4l-4 44l28 56v16q-1 20 -8 20q0 88 -60 124q-99 95 -132 96q-63 75 -84 80q-40 51 -56 140l4 16q72 120 148 120l4 -4v4q40 -4 40 -12zM672 868q-22 49 -44 52
l-20 -4q0 -16 -8 -16l4 -32l-4 -20l-32 -28q-14 -51 -40 -88v-12l12 -56v-8q-36 -41 -36 -60l20 -36l-4 -20q24 -64 72 -64h4q132 23 132 60l-8 36v36l-28 40v16l24 52q-36 50 -36 72l24 36v4q-13 28 -32 40z" />
    <glyph glyph-name="Aacute" unicode="&#xc1;" horiz-adv-x="1276" 
d="M920 1804v-4l4 4q76 0 148 -120l4 -16q-16 -89 -56 -140q-21 -5 -84 -80q-33 -1 -132 -96q-60 -36 -60 -124q-7 0 -8 -20v-16l28 -56l-4 -44v-4q28 -64 28 -84l-4 -28q0 -33 52 -140l-8 -44l40 -64q0 -47 28 -116l4 -44l-4 -4q0 -48 56 -128q0 -24 28 -120q0 -94 76 -156
q0 -30 28 -40l40 16h4q36 0 48 -68q30 -47 40 -84q0 -17 -48 -72v-8l4 -20l-4 -4q-21 1 -32 16l-28 16q-35 -12 -60 -12q-85 20 -124 20q-16 0 -84 -28q-11 0 -56 40q-6 8 -44 8q-48 24 -48 56q0 103 48 128l32 -4q28 0 64 84v8l-52 80l-8 8l-20 -4h-64l-56 -52
q-51 32 -88 32h-32l-4 4q-13 0 -72 -48q-40 -20 -40 -48q0 -22 52 -40q13 -36 40 -36q21 12 40 12l24 -28v-16l12 -76v-4q0 -45 -68 -68q-40 -36 -60 -36h-20l-48 12h-44q-23 0 -56 -20h-36q-96 32 -136 32q-40 18 -56 52l-20 52v4q1 40 92 108q60 0 76 40q24 31 36 104
q44 85 44 172q32 52 32 72v36l16 48v48q52 50 52 92q28 33 28 56l-12 44q24 51 24 68l-4 24l40 68q36 66 36 80l-8 48q20 63 24 132q20 19 20 48l-8 40l16 80l-4 4v4q0 19 52 76q6 34 84 80q0 8 112 128l28 48q0 20 80 20q0 8 40 12zM536 828v-4l24 -36q0 -22 -36 -72
l24 -52v-16l-28 -40v-36l-8 -36q0 -37 132 -60h4q48 0 72 64l-4 20l20 36q0 19 -36 60v8l12 56v12q-26 37 -40 88l-32 28l-4 20l4 32q-8 0 -8 16l-20 4q-22 -3 -44 -52q-19 -12 -32 -40z" />
    <glyph glyph-name="Acircumflex" unicode="&#xc2;" horiz-adv-x="1270" 
d="M573 1317h12l48 -24q60 -20 84 -64q0 -21 32 -64v-16q-12 -14 -12 -40l48 -52l4 -12l-16 -60q28 -43 28 -56v-40q0 -30 64 -124v-44q0 -14 32 -76v-8l-8 -56q28 -47 36 -128q60 -72 60 -164q10 0 16 -92q41 -68 72 -68q111 -55 120 -68q12 0 17 -63l-93 -85
q-36 -20 -112 -20q-13 -10 -48 -16l-52 20l-36 -4l-68 20h-4q-34 -24 -48 -24q-40 44 -88 44q-15 0 -28 28l18 56q-1 3 -1 6q0 27 56 59l57 42q38 39 38 85q-3 60 -8 60q-11 0 -20 20l-56 20q-14 -2 -48 -40h-12q-11 0 -78 20h-8q-58 -3 -82 -24l-24 -8l-36 8
q-20 -22 -36 -88q0 -48 76 -48q62 -76 100 -92q12 -4 12 -24q0 -25 -76 -68q0 -29 -108 -48q0 -10 -36 -16l-44 16h-36l-16 -4l-60 12q-7 0 -41 -19l-4 -4h-4q-8 0 -39 31h-12l-44 -8q-28 18 -35 29t-20 40l-1 28l44 35q11 21 40 41l62 46q48 37 74 133l-4 36l44 64l-20 56
q0 8 52 44q24 57 24 144q28 45 28 60v40q0 17 36 60v4q-12 12 -12 28v16l-4 12q56 77 56 120l-4 24q3 27 48 64q12 15 12 28l-16 44q42 59 55 121l13 35q4 60 40 60zM557 845l8 -32l-20 -56v-4l16 -48v-4l-36 -32l-32 -108q0 -37 32 -60q16 8 44 8h8q36 -24 52 -24
q104 0 104 52l4 4v4l-12 40l4 28v24q-32 108 -60 108q-20 6 -20 28l36 40v4q-48 47 -48 56l16 44l-8 20h-20q-68 -65 -68 -92zM907 1326q-22 -6 -44 -6q-51 0 -106 28l-64 60q-22 47 -45 47q-21 48 -59 48q-5 0 -10 -1q-17 -14 -61 -50l-57 -88l-84 -44h-28q-112 20 -112 64
v8l12 32q62 53 68 68l80 76q32 17 89 50q36 24 68 50q50 35 95 56q17 -6 36 -32q24 -56 52 -76q96 -83 96 -96q21 -52 64 -60q0 -14 57 -88z" />
    <glyph glyph-name="Atilde" unicode="&#xc3;" horiz-adv-x="1280" 
d="M569 1455l-31 22h-5l-36 4q-17 9 -35 9q-21 0 -42 -12l-13 -8l-47 -14l-33 -31l-37 -26q-25 -10 -57 -13h-4q-29 0 -45 21q-11 13 -11 35q0 17 7 40l9 22q17 24 43 78q56 25 71 56l12 12l50 18q23 25 89 43q7 1 15 1q44 0 87 -7q36 -26 53 -33l65 -23l46 -40q38 -8 62 -8
q17 0 27 4l25 25l40 6l32 40q51 19 108 25q49 -8 49 -46v-2l-13 -41q-19 -67 -51 -101q-28 -12 -58 -31l-28 -34l-8 -8l-52 -22q-40 -30 -84 -30q-2 0 -26 0.5t-74 17.5l-31 26l-50 12zM592 1317h12l48 -24q60 -20 84 -64q0 -21 32 -64v-16q-12 -14 -12 -40l48 -52l4 -12
l-16 -60q28 -43 28 -56v-40q0 -30 64 -124v-44q0 -14 32 -76v-8l-8 -56q28 -47 36 -128q60 -72 60 -164q10 0 16 -92q41 -68 72 -68q111 -55 120 -68q12 0 17 -63l-93 -85q-36 -20 -112 -20q-13 -10 -48 -16l-52 20l-36 -4l-68 20h-4q-34 -24 -48 -24q-40 44 -88 44
q-15 0 -28 28l18 56q-1 3 -1 6q0 27 56 59l57 42q38 39 38 85q-3 60 -8 60q-11 0 -20 20l-56 20q-14 -2 -48 -40h-12q-11 0 -78 20h-8q-58 -3 -82 -24l-24 -8l-36 8q-20 -22 -36 -88q0 -48 76 -48q62 -76 100 -92q12 -4 12 -24q0 -25 -76 -68q0 -29 -108 -48q0 -10 -36 -16
l-44 16h-36l-16 -4l-60 12q-7 0 -41 -19l-4 -4h-4q-8 0 -39 31h-12l-44 -8q-28 18 -35 29t-20 40l-1 28l44 35q11 21 40 41l62 46q48 37 74 133l-4 36l44 64l-20 56q0 8 52 44q24 57 24 144q28 45 28 60v40q0 17 36 60v4q-12 12 -12 28v16l-4 12q56 77 56 120l-4 24
q3 27 48 64q12 15 12 28l-16 44q42 59 55 121l13 35q4 60 40 60zM576 845l8 -32l-20 -56v-4l16 -48v-4l-36 -32l-32 -108q0 -37 32 -60q16 8 44 8h8q36 -24 52 -24q104 0 104 52l4 4v4l-12 40l4 28v24q-32 108 -60 108q-20 6 -20 28l36 40v4q-48 47 -48 56l16 44l-8 20h-20
q-68 -65 -68 -92z" />
    <glyph glyph-name="Adieresis" unicode="&#xc4;" horiz-adv-x="1289" 
d="M205 1464v8l17 38l-4 38q0 16 81 90l91 15q30 0 100 -49q0 -25 54 -123v-6q0 -13 -50 -52q-17 -41 -41 -41h-3l-30 3l-57 -29q-13 0 -57 26q-51 10 -51 24q0 32 -40 46zM705 1477q44 142 61 142l53 48l17 3l57 -3l34 6q35 0 87 -92q11 0 14 -47l-3 -3v-3l3 -13l-3 -3
q8 0 13 -38l-98 -98q-37 -19 -47 -19q-57 13 -107 16l-14 19l4 3v3q0 20 -47 38q-24 21 -24 41zM592 1317h12l48 -24q60 -20 84 -64q0 -21 32 -64v-16q-12 -14 -12 -40l48 -52l4 -12l-16 -60q28 -43 28 -56v-40q0 -30 64 -124v-44q0 -14 32 -76v-8l-8 -56q28 -47 36 -128
q60 -72 60 -164q10 0 16 -92q41 -68 72 -68q111 -55 120 -68q12 0 17 -63l-93 -85q-36 -20 -112 -20q-13 -10 -48 -16l-52 20l-36 -4l-68 20h-4q-34 -24 -48 -24q-40 44 -88 44q-15 0 -28 28l18 56q-1 3 -1 6q0 27 56 59l57 42q38 39 38 85q-3 60 -8 60q-11 0 -20 20l-56 20
q-14 -2 -48 -40h-12q-11 0 -78 20h-8q-58 -3 -82 -24l-24 -8l-36 8q-20 -22 -36 -88q0 -48 76 -48q62 -76 100 -92q12 -4 12 -24q0 -25 -76 -68q0 -29 -108 -48q0 -10 -36 -16l-44 16h-36l-16 -4l-60 12q-7 0 -41 -19l-4 -4h-4q-8 0 -39 31h-12l-44 -8q-28 18 -35 29t-20 40
l-1 28l44 35q11 21 40 41l62 46q48 37 74 133l-4 36l44 64l-20 56q0 8 52 44q24 57 24 144q28 45 28 60v40q0 17 36 60v4q-12 12 -12 28v16l-4 12q56 77 56 120l-4 24q3 27 48 64q12 15 12 28l-16 44q42 59 55 121l13 35q4 60 40 60zM576 845l8 -32l-20 -56v-4l16 -48v-4
l-36 -32l-32 -108q0 -37 32 -60q16 8 44 8h8q36 -24 52 -24q104 0 104 52l4 4v4l-12 40l4 28v24q-32 108 -60 108q-20 6 -20 28l36 40v4q-48 47 -48 56l16 44l-8 20h-20q-68 -65 -68 -92z" />
    <glyph glyph-name="Aring" unicode="&#xc5;" horiz-adv-x="1261" 
d="M557 872l8 -32l-20 -56v-4l16 -48v-4l-36 -32l-32 -108q0 -37 32 -60q16 8 44 8h8q36 -24 52 -24q104 0 104 52l4 4v4l-12 40l4 28v24q-32 108 -60 108q-20 6 -20 28l36 40v4q-48 47 -48 56l16 44l-8 20h-20q-68 -65 -68 -92zM654 1573q-16 2 -27 2q-14 0 -23 -4l-23 -2
q-25 -12 -56 -47l4 -34l14 -45l27 -18l27 -16l41 -5q32 17 67 35q22 27 22 57q0 6 -1 12l-9 20q-13 14 -23 34zM721 1244q9 -20 28 -52v-16q-12 -14 -12 -40l48 -52l4 -12l-16 -60q28 -43 28 -56v-40q0 -30 64 -124v-44q0 -14 32 -76v-8l-8 -56q28 -47 36 -128
q60 -72 60 -164q10 0 16 -92q41 -68 72 -68q111 -55 120 -68q12 0 17 -63l-93 -85q-36 -20 -112 -20q-13 -10 -48 -16l-52 20l-36 -4l-68 20h-4q-34 -24 -48 -24q-40 44 -88 44q-15 0 -28 28l18 56q-1 3 -1 6q0 27 56 59l57 42q38 39 38 85q-3 60 -8 60q-11 0 -20 20l-56 20
q-14 -2 -48 -40h-12q-11 0 -78 20h-8q-58 -3 -82 -24l-24 -8l-36 8q-20 -22 -36 -88q0 -48 76 -48q62 -76 100 -92q12 -4 12 -24q0 -25 -76 -68q0 -29 -108 -48q0 -10 -36 -16l-44 16h-36l-16 -4l-60 12q-7 0 -41 -19l-4 -4h-4q-8 0 -39 31h-12l-44 -8q-28 18 -35 29t-20 40
l-1 28l44 35q11 21 40 41l62 46q48 37 74 133l-4 36l44 64l-20 56q0 8 52 44q24 57 24 144q28 45 28 60v40q0 17 36 60v4q-12 12 -12 28v16l-4 12q56 77 56 120l-4 24q3 27 48 64q12 15 12 28l-16 44q42 59 55 111l-2 14l-19 19q-76 39 -110 130l-30 82q0 52 72 184
q105 68 136 68l136 -20l24 4q42 -17 70 -68q67 -46 67 -68q0 -24 -5 -88v-8l20 -52l-4 -20q-29 -27 -60 -80q-52 -17 -56 -58l-12 -8l-23 -10z" />
    <glyph glyph-name="AE" unicode="&#xc6;" horiz-adv-x="1746" 
d="M548 872l8 -32l-20 -56v-4l16 -48v-4l-36 -32l-32 -108q0 -37 32 -60q16 8 44 8h8q36 -24 52 -24q104 0 104 52l4 4v4l-12 40l4 28v24q-32 108 -60 108q-20 6 -20 28l36 40v4q-48 47 -48 56l16 44l-8 20h-20q-68 -65 -68 -92zM989 652v-4q0 -18 -17 -18q-5 0 -12 2v-18
q-7 -11 -20 -35l-3 -23q9 -32 76 -32h12q47 44 72 44q38 -40 68 -40l12 4l48 -12q18 3 40 36l16 12h4l60 -32h40l36 -4q28 12 28 36v28q-15 88 -72 88l-60 52h-4l-24 -4q-13 0 -68 52q-67 0 -116 -48q-61 0 -92 -60q-14 -3 -24 -24zM724 325h-26l-38 -29h-12q-11 0 -52 28
h-8q-84 -11 -108 -32l-24 -8l-36 8q-20 -22 -36 -88q0 -92 53 -92h8q77 -32 115 -48q12 -4 12 -24q0 -25 -76 -68q0 -29 -108 -48q0 -10 -36 -16l-44 16h-36l-16 -4l-60 12q-7 0 -32 -36l-4 -4h-4q-8 0 -48 48h-12l-44 -8q-28 18 -28 40l16 52q11 41 52 72q35 20 65 20
t59 148l-4 36l44 84l-20 56q0 8 52 44q24 57 24 144q28 45 28 60v40q0 17 36 60v4l-12 44l-4 4v8q56 77 56 120l-4 24q3 27 48 64q12 15 12 28l-16 44q42 59 72 152l-4 4q4 60 40 60h12l48 -24q60 -20 84 -64q0 -21 32 -64v-16q-12 -14 -12 -40l48 -52l4 -12l-16 -60
q28 -43 28 -56v-40q0 -29 30 -73q22 -33 35 -33q4 0 7 3q13 14 49 31q26 18 44 56q0 15 188 48q0 7 28 8q24 0 72 -16h28q50 0 148 -56q44 -43 100 -72q80 -94 80 -116q0 -16 32 -68v-68l16 -48v-16q-37 -140 -72 -140q-32 20 -56 20q-15 0 -24 -52q-15 -12 -28 -12
q-25 40 -36 40h-8q-4 -12 -24 -12h-16l-52 12l-44 -32q-43 28 -56 28q-20 -12 -40 -12l-92 28h-4l-68 -3q-7 1 -14 1q-34 0 -52 -18q-8 -30 -8 -56q0 -52 32 -84q46 -48 77 -48q71 -35 100 -53q11 -3 21 -3h24l80 28h20q15 -12 28 -12h12q24 20 24 48q13 16 48 16
q27 12 27 21v2q-1 0 -1 1q0 8 14 8q12 1 23 1q60 0 93 -23q20 -21 20 -36v-4q-16 -35 -16 -56q0 -16 -24 -20l-24 4q-21 0 -28 -64l-24 -24h-48q-16 -5 -48 -56l-12 -8h-4l-52 24q-11 -8 -84 -12q-25 -24 -56 -24q-44 36 -112 36q-11 3 -21 5q-18 17 -57 17q-11 16 -30 24
l-48 51l-40 11v30q-26 14 -31 18l-35 46l-2 31l-15 11l-17 22l-4 51l-20 17z" />
    <glyph glyph-name="Ccedilla" unicode="&#xc7;" horiz-adv-x="1313" 
d="M525 -42h-4l-56 -4l-60 64h-36q-16 0 -44 72q-69 81 -84 88l-16 44l4 4v4l-64 168q0 28 -20 92l4 72q-20 37 -20 60l8 60l-8 36l20 72l-8 32v8l36 72q36 90 36 136q21 24 32 68l-4 4v4q2 22 60 64q4 28 44 60q29 0 92 72q45 0 112 52h36l16 -4l52 24l56 -20l52 8
q100 -56 144 -56q22 24 144 40h8q64 -25 64 -68l-4 -96v-40l-24 -64l8 -48l-4 -52q24 -72 56 -128q-36 -116 -92 -116q-41 0 -116 96q-20 10 -20 32l8 40l-28 88l4 44q0 60 -92 68q-41 52 -88 52q-36 40 -64 44q-23 -7 -40 -24l-52 -24q-58 0 -100 -52q-72 -45 -72 -96
q0 -66 -44 -88l-20 -24v-4q20 -29 20 -44v-4q-40 -47 -40 -64l44 -44v-8q-1 -8 -40 -32l-4 -20l8 -52h-16v-24q0 -42 52 -96v-4l-16 -52l44 -56l-4 -32q24 -96 84 -96q21 -13 48 -68q16 -1 16 -8l4 4h24q31 0 40 -36l24 -12l40 8l24 -8q39 8 56 24h24l32 -16q28 0 44 72
q64 25 64 64q108 125 108 152q0 52 40 52l72 -56q40 -12 40 -40q0 -21 -16 -60l28 -52v-12q-58 -54 -76 -96q-20 -10 -20 -36l4 -44q-16 -18 -64 -28q-35 -72 -96 -72q-24 -39 -112 -60l-27 -19q13 -17 30 -38l13 -45v-22l-27 -81v-9l5 -18q0 -40 -104 -89q0 -9 -109 -23
l-13 -4h-5q-72 13 -82 31l-17 9q-82 30 -95 118l20 52l53 -11q7 -27 75 -51q23 -1 41 -1h16l16 1h5q31 0 54 49q-23 21 -23 49q-14 17 -86 40q-16 0 -32 82z" />
    <glyph glyph-name="Egrave" unicode="&#xc8;" horiz-adv-x="1476" 
d="M907 1292h1l10 -8q0 5 7 8q9 5 33 8l32 -12l44 12q11 0 60 -28q108 -26 108 -52q56 -57 56 -76v-4l-8 -44v-8l20 -72l-4 -40q24 -47 24 -68l-4 -60l4 -40q-10 -60 -48 -60q-72 0 -96 56q-36 31 -36 56l12 44l-28 64l12 32v32q0 54 -80 72q-37 24 -72 24l-40 -4v4l-76 -24
q-14 0 -72 40h-32q-18 0 -92 -36h-8l-56 4q-28 -21 -28 -92h-4l32 -68l-24 -72q8 0 20 -40l-24 -56q24 -52 24 -96l4 -4h8q13 0 56 24h12l68 -28q38 0 80 52l-12 36l4 4l-4 20l32 128l16 12h16q8 0 44 -48q66 -14 68 -32v-4l-20 -40l-4 -20q24 -39 24 -52l-28 -48l36 -60
l-28 -64l24 -44v-24l-32 -44l32 -64v-8q0 -28 -88 -68q-4 -16 -40 -16q-40 14 -40 52l-8 100l4 12q-2 28 -20 28l-20 -12h-20q-10 2 -36 44l-16 8l-56 -4h-16q-10 0 -60 -76v-20q20 -31 20 -44v-8l-12 -40l28 -68l-12 -64q3 -39 28 -80h12l20 4q38 -52 56 -52l56 12l44 -16
l44 40q37 -36 56 -36q27 20 52 20l44 -8l56 52q30 0 56 76l-4 4v60l16 52v52q8 52 72 52l48 36h12q12 0 28 -64q28 -30 28 -72l-12 -68l12 -48l-16 -64l12 -56q-28 -74 -28 -92l4 -4v-4q0 -41 -72 -68q-33 -48 -60 -48q-17 0 -44 16q-29 -13 -52 -40h-12q-35 40 -44 40
l-48 -12l-60 20l-4 -4h-4l-64 12h-8q-48 -32 -72 -32q-13 0 -48 24h-32q-29 -28 -112 -28l-64 24l-36 -8l-4 4q-23 0 -88 -24h-8q-73 36 -128 36q-74 0 -96 60l-8 44v28q12 25 72 44q15 18 60 36l72 -36h28q43 0 64 72v8l-16 56v12q12 16 12 44l-8 60l24 76l-8 120l16 60
l-20 40v36l12 52q-24 50 -24 80q12 31 12 56l-4 16l12 52v4l-20 64l12 60v16q0 27 -48 52q-69 0 -112 -40l-16 -4q-25 0 -68 52q-41 20 -44 32v16q62 100 108 100h8l52 -12q40 0 40 8l20 -4h16l68 12l44 -16q127 0 151 24h4l7 6v16l-24 32q-66 28 -112 76q-50 0 -76 60
q-70 66 -84 148v16l4 16q49 132 148 132l4 -4l36 12h20l28 -8q47 -67 76 -72q8 -24 16 -24l-4 -12l68 -76l80 -60q8 -39 44 -76q0 -52 52 -120l-4 -52q0 -6 3 -10zM746 744h4l12 -12v-8l-8 -8h-4l-12 12v8z" />
    <glyph glyph-name="Eacute" unicode="&#xc9;" horiz-adv-x="1476" 
d="M982 1804h20l36 -12l4 4q99 0 148 -132l4 -16v-16q-14 -82 -84 -148q-26 -60 -76 -60q-46 -48 -112 -76l-24 -32v-16l20 -16q0 11 40 16l32 -12l44 12q11 0 60 -28q108 -26 108 -52q56 -57 56 -76v-4l-8 -44v-8l20 -72l-4 -40q24 -47 24 -68l-4 -60l4 -40
q-10 -60 -48 -60q-72 0 -96 56q-36 31 -36 56l12 44l-28 64l12 32v32q0 54 -80 72q-37 24 -72 24l-40 -4v4l-76 -24q-14 0 -72 40h-32q-18 0 -92 -36h-8l-56 4q-28 -21 -28 -92h-4l32 -68l-24 -72q8 0 20 -40l-24 -56q24 -52 24 -96l4 -4h8q13 0 56 24h12l68 -28q38 0 80 52
l-12 36l4 4l-4 20l32 128l16 12h16q8 0 44 -48q66 -14 68 -32v-4l-20 -40l-4 -20q24 -39 24 -52l-28 -48l36 -60l-28 -64l24 -44v-24l-32 -44l32 -64v-8q0 -28 -88 -68q-4 -16 -40 -16q-40 14 -40 52l-8 100l4 12q-2 28 -20 28l-20 -12h-20q-10 2 -36 44l-16 8l-56 -4h-16
q-10 0 -60 -76v-20q20 -31 20 -44v-8l-12 -40l28 -68l-12 -64q3 -39 28 -80h12l20 4q38 -52 56 -52l56 12l44 -16l44 40q37 -36 56 -36q27 20 52 20l44 -8l56 52q30 0 56 76l-4 4v60l16 52v52q8 52 72 52l48 36h12q12 0 28 -64q28 -30 28 -72l-12 -68l12 -48l-16 -64l12 -56
q-28 -74 -28 -92l4 -4v-4q0 -41 -72 -68q-33 -48 -60 -48q-17 0 -44 16q-29 -13 -52 -40h-12q-35 40 -44 40l-48 -12l-60 20l-4 -4h-4l-64 12h-8q-48 -32 -72 -32q-13 0 -48 24h-32q-29 -28 -112 -28l-64 24l-36 -8l-4 4q-23 0 -88 -24h-8q-73 36 -128 36q-74 0 -96 60
l-8 44v28q12 25 72 44q15 18 60 36l72 -36h28q43 0 64 72v8l-16 56v12q12 16 12 44l-8 60l24 76l-8 120l16 60l-20 40v36l12 52q-24 50 -24 80q12 31 12 56l-4 16l12 52v4l-20 64l12 60v16q0 27 -48 52q-69 0 -112 -40l-16 -4q-25 0 -68 52q-41 20 -44 32v16q62 100 108 100
h8l52 -12q40 0 40 8l20 -4h16l68 12l44 -16q156 0 156 36l-4 52q52 68 52 120q36 37 44 76l80 60l68 76l-4 12q8 0 16 24q29 5 76 72zM746 744h4l12 -12v-8l-8 -8h-4l-12 12v8z" />
    <glyph glyph-name="Ecircumflex" unicode="&#xca;" horiz-adv-x="1438" 
d="M1029 1406q-22 -6 -44 -6q-51 0 -106 28l-64 60q-22 47 -45 47q-38 28 -48 59q-6 6 -11 6q-7 0 -10 -18q-17 -14 -61 -50l-57 -88l-84 -44h-28q-112 20 -112 64v8l12 32q62 53 68 68l80 76q32 17 89 50q34 47 68 50q50 35 95 56q17 -6 36 -32q24 -56 52 -76
q96 -83 96 -96q21 -52 64 -60q0 -14 57 -88zM864 1322l64 -24l32 8q21 0 48 -20l60 24q41 -24 96 -40l24 -32v-8l-8 -32q40 -99 40 -132l24 -140l-12 -68l8 -28q0 -9 -48 -68q-15 -32 -40 -32q-15 0 -28 28l8 44q-23 85 -84 132v4q28 31 28 48v12q-28 31 -28 48t32 56v4
q0 22 -52 52q-17 23 -36 32l-4 -4h-4l-4 4h-4q-42 0 -104 -48h-12q-14 0 -60 32q-92 0 -120 -28l-24 -12q-10 0 -56 32h-12q-45 0 -64 -40v-28q0 -29 12 -68l-4 -60q0 -56 32 -96v-20q-20 -29 -20 -44q5 -20 44 -44l4 -20l-12 -28h4l20 -12h12l56 32l36 -4q26 13 44 76v12
q-16 26 -16 44q0 38 76 48l48 36q32 0 32 -60q28 -53 28 -76l-8 -40l20 -72l-4 -44l4 -88v-32l4 -28h-4l4 -4v-4q-14 -184 -56 -184h-12q-54 0 -128 56v12l16 76l-24 68l4 12q-18 8 -20 16l-32 -4l-52 4l-48 -52q-24 -13 -36 -44l4 -40v-32l-4 -24q0 -34 40 -76v-4l-36 -36
v-8l56 -40l4 -4v-4l-12 -40l4 -20h12l52 20l40 -4q36 52 56 52h8q10 0 32 -48l12 -8l64 24l72 -32l52 -4q44 31 44 72q0 32 -8 32l12 64l-8 56q0 9 48 52l52 84l-4 20v12l12 12q18 0 40 -56q48 -23 72 -104l-12 -72l12 -52v-4l-24 -68l-4 -72l4 -24l-8 -52l8 -44
q0 -19 -64 -60h-4l-60 12l-40 -8l-32 8l-64 -28l-108 24l-112 -28h-12q-76 24 -100 24h-12l-76 -24l-52 32h-56l-68 -24h-4l-52 20l-36 -4l-44 8h-8l-36 -4q-11 0 -64 32q-52 0 -60 20v8q13 120 80 120h4l64 -4l64 40l64 -28l24 20l-4 68v48l12 64l-16 80l4 72l-4 44l16 64
l-12 44l16 64l-4 44l12 64l-20 76q16 37 16 68l-8 32q0 17 20 64q-3 16 -20 32l-8 28h4q17 10 24 28q0 34 -76 40q-53 -32 -64 -32l-60 36l-48 -4q-18 7 -32 28v20q63 88 148 88l64 -24l4 4h4l4 -4l100 32l140 -28q14 0 72 28h8q46 -36 112 -36l68 40z" />
    <glyph glyph-name="Edieresis" unicode="&#xcb;" horiz-adv-x="1438" 
d="M270 1486v8l17 38l-4 38q0 16 81 90l91 15q30 0 100 -49q0 -25 54 -123v-6q0 -13 -50 -52q-17 -41 -41 -41h-3l-30 3l-57 -29q-13 0 -57 26q-51 10 -51 24q0 32 -40 46zM770 1499q44 142 61 142l53 48l17 3l57 -3l34 6q35 0 87 -92q11 0 14 -47l-3 -3v-3l3 -13l-3 -3
q8 0 13 -38l-98 -98q-37 -19 -47 -19q-57 13 -107 16l-14 19l4 3v3q0 20 -47 38q-24 21 -24 41zM864 1322l64 -24l32 8q21 0 48 -20l60 24q41 -24 96 -40l24 -32v-8l-8 -32q40 -99 40 -132l24 -140l-12 -68l8 -28q0 -9 -48 -68q-15 -32 -40 -32q-15 0 -28 28l8 44
q-23 85 -84 132v4q28 31 28 48v12q-28 31 -28 48t32 56v4q0 22 -52 52q-17 23 -36 32l-4 -4h-4l-4 4h-4q-42 0 -104 -48h-12q-14 0 -60 32q-92 0 -120 -28l-24 -12q-10 0 -56 32h-12q-45 0 -64 -40v-28q0 -29 12 -68l-4 -60q0 -56 32 -96v-20q-20 -29 -20 -44q5 -20 44 -44
l4 -20l-12 -28h4l20 -12h12l56 32l36 -4q26 13 44 76v12q-16 26 -16 44q0 38 76 48l48 36q32 0 32 -60q28 -53 28 -76l-8 -40l20 -72l-4 -44l4 -88v-32l4 -28h-4l4 -4v-4q-14 -184 -56 -184h-12q-54 0 -128 56v12l16 76l-24 68l4 12q-18 8 -20 16l-32 -4l-52 4l-48 -52
q-24 -13 -36 -44l4 -40v-32l-4 -24q0 -34 40 -76v-4l-36 -36v-8l56 -40l4 -4v-4l-12 -40l4 -20h12l52 20l40 -4q36 52 56 52h8q10 0 32 -48l12 -8l64 24l72 -32l52 -4q44 31 44 72q0 32 -8 32l12 64l-8 56q0 9 48 52l52 84l-4 20v12l12 12q18 0 40 -56q48 -23 72 -104
l-12 -72l12 -52v-4l-24 -68l-4 -72l4 -24l-8 -52l8 -44q0 -19 -64 -60h-4l-60 12l-40 -8l-32 8l-64 -28l-108 24l-112 -28h-12q-76 24 -100 24h-12l-76 -24l-52 32h-56l-68 -24h-4l-52 20l-36 -4l-44 8h-8l-36 -4q-11 0 -64 32q-52 0 -60 20v8q13 120 80 120h4l64 -4l64 40
l64 -28l24 20l-4 68v48l12 64l-16 80l4 72l-4 44l16 64l-12 44l16 64l-4 44l12 64l-20 76q16 37 16 68l-8 32q0 17 20 64q-3 16 -20 32l-8 28h4q17 10 24 28q0 34 -76 40q-53 -32 -64 -32l-60 36l-48 -4q-18 7 -32 28v20q63 88 148 88l64 -24l4 4h4l4 -4l100 32l140 -28
q14 0 72 28h8q46 -36 112 -36l68 40z" />
    <glyph glyph-name="Igrave" unicode="&#xcc;" horiz-adv-x="1134" 
d="M396 1798q100 -8 100 -36q18 -45 80 -100q87 -112 108 -112q80 -103 80 -148l-4 -16q-28 -60 -28 -76v-4q9 -17 20 -20l32 4l60 -8l52 28l60 -24l16 4h24q38 -20 48 -52q0 -28 -28 -80q-5 -48 -32 -48l-36 20l-12 -4l-4 -4q-95 0 -140 -24h-4q-61 32 -76 32h-16
q-9 0 -12 -20l8 -40l-4 -12q-36 -28 -36 -48v-4l32 -40v-12q-32 -39 -32 -52v-12l32 -48l-24 -60l24 -48v-4q-36 -58 -36 -68l16 -60l-8 -44v-8q32 -40 32 -56q0 -14 -32 -52v-4l24 -56l-24 -60q0 -12 32 -60q0 -16 -40 -60v-8l32 -52l-16 -40v-4l4 -4v-4l-4 -4
q20 -3 20 -12q30 0 80 32q72 -20 144 -28l56 36h4q42 0 56 -40l-8 -92l4 -28q-10 -32 -44 -32h-4l-48 12l-48 -44l-56 32l-44 -4l-56 4l-44 -24h-12l-56 28h-52l-20 4l-52 -32h-20l-64 24h-64l-68 -28q-20 0 -68 32q-92 25 -92 64q4 32 12 32l52 84h4l32 -32h20q15 12 44 12
l40 -4l48 28h4q12 0 60 -28q72 0 84 24l-28 48q28 71 28 120l-4 60l16 48q-12 86 -32 112v8q36 75 36 100v4l-20 60v4l8 28l-4 48l8 40l-20 48v8q20 47 20 64l-24 56q0 15 24 48l-12 20q-33 27 -36 40l8 32l-16 28h-16q-39 -28 -64 -28l-56 24l-20 -4q-16 -20 -32 -20
l-20 12h-16l-48 -16q-60 0 -92 100q51 104 96 104l96 -16l84 16h4l140 -32q26 13 28 32q-13 31 -32 48q-57 11 -80 40q0 38 -72 60l-24 68q-116 102 -116 124q0 26 36 120q0 7 100 48q40 -6 40 -12z" />
    <glyph glyph-name="Iacute" unicode="&#xcd;" horiz-adv-x="1134" 
d="M784 1810q100 -41 100 -48q36 -94 36 -120q0 -22 -116 -124l-24 -68q-72 -22 -72 -60q-23 -29 -80 -40q-19 -17 -32 -48q2 -19 28 -32l140 32h4l84 -16l96 16q45 0 96 -104q-32 -100 -92 -100l-48 16h-16l-20 -12q-16 0 -32 20l-20 4l-56 -24q-25 0 -64 28h-16l-16 -28
l8 -32q-3 -13 -36 -40l-12 -20q24 -33 24 -48l-24 -56q0 -17 20 -64v-8l-20 -48l8 -40l-4 -48l8 -28v-4l-20 -60v-4q0 -25 36 -100v-8q-20 -26 -32 -112l16 -48l-4 -60q0 -49 28 -120l-28 -48q12 -24 84 -24q48 28 60 28h4l48 -28l40 4q29 0 44 -12h20l32 32h4l52 -84
q8 0 12 -32q0 -39 -92 -64q-48 -32 -68 -32l-68 28h-64l-64 -24h-20l-52 32l-20 -4h-52l-56 -28h-12l-44 24l-56 -4l-44 4l-56 -32l-48 44l-48 -12h-4q-34 0 -44 32l4 28l-8 92q14 40 56 40h4l56 -36q72 8 144 28q50 -32 80 -32q0 9 20 12l-4 4v4l4 4v4l-16 40l32 52v8
q-40 44 -40 60q32 48 32 60l-24 60l24 56v4q-32 38 -32 52q0 16 32 56v8l-8 44l16 60q0 10 -36 68v4l24 48l-24 60l32 48v12q0 13 -32 52v12l32 40v4q0 20 -36 48l-4 12l8 40q-3 20 -12 20h-16q-15 0 -76 -32h-4q-45 24 -140 24l-4 4l-12 4l-36 -20q-27 0 -32 48
q-28 52 -28 80q10 32 48 52h24l16 -4l60 24l52 -28l60 8l32 -4q11 3 20 20v4q0 16 -28 76l-4 16q0 45 80 148q21 0 108 112q62 55 80 100q0 28 100 36q0 6 40 12z" />
    <glyph glyph-name="Icircumflex" unicode="&#xce;" horiz-adv-x="1190" 
d="M906 1406q-22 -6 -44 -6q-51 0 -106 28l-64 60q-22 47 -45 47q-38 28 -48 59q-6 6 -11 6q-7 0 -10 -18q-17 -14 -61 -50l-57 -88l-84 -44h-28q-112 20 -112 64v8l12 32q62 53 68 68l80 76q32 17 89 50q34 47 68 50q50 35 95 56q17 -6 36 -32q24 -56 52 -76q96 -83 96 -96
q21 -52 64 -60q0 -14 57 -88zM232 1336q69 -32 100 -32v-4q43 0 104 28h4l68 -32h4q32 0 124 36h4q63 -20 144 -20l40 16l72 -24q77 0 108 -12l36 12q43 0 60 -148q0 -30 -120 -89q-18 -10 -48 -19q-10 0 -80 48l-16 4q-21 0 -48 -20l-84 -40q-28 -25 -28 -48l16 -60v-4
l-12 -60l8 -52l-8 -52l20 -56l-8 -44l4 -76l-8 -40l4 -100l-4 -52q6 -50 26 -82l-4 -19q-18 -20 -18 -55l-8 -40l4 -12h-4q0 -31 68 -68l67 6l33 -30l68 28h12l96 -32q56 0 60 -84v-28q0 -47 -64 -104h-8q-17 0 -52 24l-4 -4h-48q-12 0 -76 -36h-8q-27 3 -96 48h-12
q-12 0 -84 -40h-8l-84 32l-4 -4h-4l-36 4q-11 0 -60 -32h-8l-68 32h-68q-19 0 -60 -36h-12l-64 48q-64 0 -64 48l4 60v40l28 20l4 -4l4 4l36 16h12l51 37l37 -29q124 12 129 42q60 -18 83 -18h4l4 20l-12 32v16l16 52l-8 56l20 52v4q0 16 -24 48v12l16 56l-12 52v16l12 48
q-16 41 -16 64l12 48l-16 60q0 14 20 44v24q-12 15 -12 36v4l16 60l-12 44v24l8 44v12q-32 48 -84 48h-12q-10 0 -64 -36h-8l-52 28l-12 4l-20 -4h-24q-54 0 -120 84l-4 52q10 32 80 68q31 36 52 36z" />
    <glyph glyph-name="Idieresis" unicode="&#xcf;" horiz-adv-x="1190" 
d="M183 1511v8l17 38l-4 38q0 16 81 90l91 15q30 0 100 -49q0 -25 54 -123v-6q0 -13 -50 -52q-17 -41 -41 -41h-3l-30 3l-57 -29q-13 0 -57 26q-51 10 -51 24q0 32 -40 46zM683 1524q44 142 61 142l53 48l17 3l57 -3l34 6q35 0 87 -92q11 0 14 -47l-3 -3v-3l3 -13l-3 -3
q8 0 13 -38l-98 -98q-37 -19 -47 -19q-57 13 -107 16l-14 19l4 3v3q0 20 -47 38q-24 21 -24 41zM232 1336q69 -32 100 -32v-4q43 0 104 28h4l68 -32h4q32 0 124 36h4q63 -20 144 -20l40 16l72 -24q77 0 108 -12l36 12q43 0 60 -148q0 -30 -120 -89q-18 -10 -48 -19
q-10 0 -80 48l-16 4q-21 0 -48 -20l-84 -40q-28 -25 -28 -48l16 -60v-4l-12 -60l8 -52l-8 -52l20 -56l-8 -44l4 -76l-8 -40l4 -100l-4 -52q6 -50 26 -82l-4 -19q-18 -20 -18 -55l-8 -40l4 -12h-4q0 -31 68 -68l67 6l33 -30l68 28h12l96 -32q56 0 60 -84v-28q0 -47 -64 -104
h-8q-17 0 -52 24l-4 -4h-48q-12 0 -76 -36h-8q-27 3 -96 48h-12q-12 0 -84 -40h-8l-84 32l-4 -4h-4l-36 4q-11 0 -60 -32h-8l-68 32h-68q-19 0 -60 -36h-12l-64 48q-64 0 -64 48l4 60v40l28 20l4 -4l4 4l36 16h12l51 37l37 -29q124 12 129 42q60 -18 83 -18h4l4 20l-12 32
v16l16 52l-8 56l20 52v4q0 16 -24 48v12l16 56l-12 52v16l12 48q-16 41 -16 64l12 48l-16 60q0 14 20 44v24q-12 15 -12 36v4l16 60l-12 44v24l8 44v12q-32 48 -84 48h-12q-10 0 -64 -36h-8l-52 28l-12 4l-20 -4h-24q-54 0 -120 84l-4 52q10 32 80 68q31 36 52 36z" />
    <glyph glyph-name="Ntilde" unicode="&#xd1;" horiz-adv-x="1380" 
d="M433 1278q58 -64 88 -64q28 -28 28 -44v-12l-4 -24q10 -46 76 -124v-4l-4 -36q0 -14 44 -64q3 -60 24 -60h4l12 8h12q8 -2 16 -20q-28 -43 -28 -60l44 -56v-40q0 -42 72 -100q6 0 20 -28l-4 -44v-4q36 -72 60 -88q32 0 52 40l-32 32v20q28 29 28 56q-24 32 -24 52l20 48
q0 11 -32 48v12l44 40v12q0 32 -36 68v4q28 41 28 52v4q-44 45 -44 60l48 44v8q-16 0 -16 16h-24l-56 56l-4 -4h-4q-68 0 -68 48q-21 24 -72 24l-8 24q18 25 64 36q47 55 56 56h4l44 -12l120 4q0 9 36 16l52 -16h44l76 -12h24q56 0 56 -116v-12q0 -33 -44 -44h-4l-44 4
q-75 -60 -92 -60v-24q12 -14 16 -44l-8 -40l8 -64l-12 -56l-4 -96l12 -76l-16 -152l20 -84l-12 -56v-32q16 -26 16 -40l-16 -52v-20q8 -9 8 -28h4l-8 -60l8 -60q-33 -128 -104 -128q-92 0 -92 32q0 25 -48 84q-5 17 -64 60l-4 16q20 21 20 36v16q-32 32 -32 48l4 32
q-8 24 -32 24l-32 -8q-18 7 -28 24v16q28 22 28 40l-28 52q0 110 -60 144q-23 0 -36 28v4l20 44v16q-29 12 -52 76q-10 11 -52 16l-4 4v8l40 52q-56 50 -56 64l4 28q0 20 -20 24q-35 0 -48 -56l16 -48v-4l-12 -68l16 -60q-20 -33 -20 -48l20 -52l-16 -56l16 -60l-20 -68
l16 -44l-4 -72l8 -48l-20 -56q26 -72 48 -80l48 4q18 -3 60 -52q52 -31 52 -60q-15 -28 -88 -68q0 -11 -40 -16l-68 4l-16 -4l-32 4h-4l-68 -12q-92 12 -92 20l-4 -4h-4q-45 0 -80 80v20q0 30 76 76q64 0 64 64l4 92l-12 52l8 52l-8 64l8 48l-8 48l12 72l-8 52l16 60l-16 48
l4 68l-4 52l12 48q-24 54 -24 68l16 56v8q0 53 -40 60l-24 -4h-8q-26 0 -100 88v20q12 20 56 44q33 52 56 52l56 -36h64q20 0 84 40h12zM674 1449l-31 22h-5l-36 4q-17 9 -35 9q-21 0 -42 -12l-13 -8l-47 -14l-33 -31l-37 -26q-25 -10 -57 -13h-4q-29 0 -45 21
q-11 13 -11 35q0 17 7 40l9 22q17 24 43 78q56 25 71 56l12 12l50 18q23 25 89 43q7 1 15 1q44 0 87 -7q36 -26 53 -33l65 -23l46 -40q38 -8 62 -8q17 0 27 4l25 25l40 6l32 40q51 19 108 25q49 -8 49 -46v-2l-13 -41q-19 -67 -51 -101q-28 -12 -58 -31l-28 -34l-8 -8
l-52 -22q-40 -30 -84 -30q-2 0 -26 0.5t-74 17.5l-31 26l-50 12z" />
    <glyph glyph-name="Ograve" unicode="&#xd2;" horiz-adv-x="1340" 
d="M505 1750q36 -12 52 -28q62 -125 136 -160q20 -43 80 -92q26 -188 48 -188q70 -28 116 -68q51 -18 68 -36q29 -51 76 -88q0 -61 44 -124q32 -66 32 -92v-8l-4 -4q40 -57 40 -80v-4l-12 -36q0 -13 28 -64l-16 -64l16 -56l-16 -64l8 -52q-20 -56 -28 -56q-6 -71 -12 -80
q-68 -73 -68 -100l4 -60l-4 -16q-17 -27 -56 -40q-38 -20 -64 -76q0 -56 -64 -56q-45 -52 -64 -52l-48 16l-80 -8l-68 -20q-22 0 -48 12l-52 -16l-44 32l-52 -16l-20 8q-40 61 -68 68q-21 5 -80 128q-56 45 -56 68l-72 164l12 48v24l-32 56l4 56l-12 52l12 60l-8 56l20 72
l-4 20v8q0 24 52 108q19 120 40 120q28 49 76 92l8 20q0 47 40 72l88 48q88 0 88 48q-25 83 -56 96q-38 0 -52 24q-6 41 -32 64q-116 92 -116 168q0 40 40 100q16 13 112 48q24 0 68 -52zM1020 692q-13 105 -23 105q-6 42 -19 55q-31 25 -31 78q0 22 -46 90q-65 23 -73 51
q0 31 -77 31q-50 47 -69 47l-24 -4l-84 -47h-35q-38 -26 -38 -35q-93 -71 -93 -113l4 -16v-20q-38 -45 -38 -54q0 -15 15 -43q-19 -25 -39 -32q-15 -68 -26 -86v-19l7 -47l-19 -63v-11l12 -39l-4 -20l11 -86v-39q0 -68 46 -94q25 0 47 -90v-4l50 4l11 -8l-7 -31
q0 -51 111 -82q39 20 58 20h4q17 0 54 -20l15 4q36 31 50 31v8h23q16 0 35 23q0 37 19 47q52 0 62 59q38 45 38 59l-8 39v4q8 15 20 15q33 17 50 75l19 136l-8 55l8 59z" />
    <glyph glyph-name="Oacute" unicode="&#xd3;" horiz-adv-x="1340" 
d="M901 1802q96 -35 112 -48q40 -60 40 -100q0 -76 -116 -168q-26 -23 -32 -64q-14 -24 -52 -24q-31 -13 -56 -96q0 -48 88 -48l88 -48q40 -25 40 -72l8 -20q48 -43 76 -92q21 0 40 -120q52 -84 52 -108v-8l-4 -20l20 -72l-8 -56l12 -60l-12 -52l4 -56l-32 -56v-24l12 -48
l-72 -164q0 -23 -56 -68q-59 -123 -80 -128q-28 -7 -68 -68l-20 -8l-52 16l-44 -32l-52 16q-26 -12 -48 -12l-68 20l-80 8l-48 -16q-19 0 -64 52q-64 0 -64 56q-26 56 -64 76q-39 13 -56 40l-4 16l4 60q0 27 -68 100q-6 9 -12 80q-8 0 -28 56l8 52l-16 64l16 56l-16 64
q28 51 28 64l-12 36v4q0 23 40 80l-4 4v8q0 26 32 92q44 63 44 124q47 37 76 88q17 18 68 36q46 40 116 68q22 0 48 188q60 49 80 92q74 35 136 160q16 16 52 28q44 52 68 52zM310 684l8 -59l-8 -55l19 -136q17 -58 50 -75q12 0 20 -15v-4l-8 -39q0 -14 38 -59
q10 -59 62 -59q19 -10 19 -47q19 -23 35 -23h23v-8q14 0 50 -31l15 -4q37 20 54 20h4q19 0 58 -20q111 31 111 82l-7 31l11 8l50 -4v4q22 90 47 90q46 26 46 94v39l11 86l-4 20l12 39v11l-19 63l7 47v19q-11 18 -26 86q-20 7 -39 32q15 28 15 43q0 9 -38 54v20l4 16
q0 42 -93 113q0 9 -38 35h-35l-84 47l-24 4q-19 0 -69 -47q-77 0 -77 -31q-8 -28 -73 -51q-46 -68 -46 -90q0 -53 -31 -78q-13 -13 -19 -55q-10 0 -23 -105z" />
    <glyph glyph-name="Ocircumflex" unicode="&#xd4;" horiz-adv-x="1348" 
d="M999 1381q-22 -6 -44 -6q-51 0 -106 28l-64 60q-22 47 -45 47q-38 28 -48 59q-6 6 -11 6q-7 0 -10 -18q-17 -14 -61 -50l-57 -88l-84 -44h-28q-112 20 -112 64v8l12 32q62 53 68 68l80 76q32 17 89 50q34 47 68 50q50 35 95 56q17 -6 36 -32q24 -56 52 -76q96 -83 96 -96
q21 -52 64 -60q0 -14 57 -88zM769 1316h24q34 -40 76 -40q31 0 72 -52q84 -31 84 -68l76 -116q23 0 36 -108q47 -94 56 -132l-4 -24v-28q28 -28 28 -168l-24 -48l4 -12l-4 -4l16 -24v-28l-24 -44l4 -56v-4q-48 -54 -48 -108l-32 -64q-73 -81 -108 -172l-72 -40
q-10 -28 -108 -52q-36 -40 -52 -40l-48 32l-64 -4h-12q-12 0 -64 -32h-8q-48 52 -60 52l-36 -4q-11 0 -56 56l-20 4l-28 -4q-22 0 -44 72l-88 96q-14 17 -16 48h4q-12 51 -64 148l-4 20l4 24q-32 66 -32 84q20 30 20 52q-10 0 -24 48l28 64q0 12 -28 56l28 72l-8 44l52 84
q17 39 28 108q52 62 60 100q28 19 48 80q17 20 72 36q33 56 108 56q42 36 72 36q50 -14 64 -14l32 12l24 -4h16zM661 1127q-51 -13 -76 -28q-26 0 -42 8q-11 0 -49 -58q-79 -28 -79 -93l11 -30v-20l-56 -54l-4 -15l34 -31v-12q0 -11 -49 -27q-34 -49 -34 -96l11 -35v-11
l-19 -50q30 -52 30 -74l-4 -11q0 -86 53 -124q11 -13 16 -57q30 -40 30 -62l-4 -27l23 -12l34 4q13 0 22 -69q47 -58 106 -58q11 0 61 35q11 0 60 -31h8q23 0 41 27q85 0 140 96l4 12l-4 23q0 24 53 65q15 22 27 66v46q0 15 26 58q0 15 -15 39v11l19 50v4q0 15 -19 43v11
l15 50v8q-30 39 -30 73q-9 50 -19 50l4 20v11q-1 9 -46 50l-15 24l4 27v3q0 43 -110 112q-3 24 -118 42z" />
    <glyph glyph-name="Otilde" unicode="&#xd5;" horiz-adv-x="1355" 
d="M662 1500l-31 22h-5l-36 4q-17 9 -35 9q-21 0 -42 -12l-13 -8l-47 -14l-33 -31l-37 -26q-25 -10 -57 -13h-4q-29 0 -45 21q-11 13 -11 35q0 17 7 40l9 22q17 24 43 78q56 25 71 56l12 12l50 18q23 25 89 43q7 1 15 1q44 0 87 -7q36 -26 53 -33l65 -23l46 -40q38 -8 62 -8
q17 0 27 4l25 25l40 6l32 40q51 19 108 25q49 -8 49 -46v-2l-13 -41q-19 -67 -51 -101q-28 -12 -58 -31l-28 -34l-8 -8l-52 -22q-40 -30 -84 -30q-2 0 -26 0.5t-74 17.5l-31 26l-50 12zM769 1316h24q34 -40 76 -40q31 0 72 -52q84 -31 84 -68l76 -116q23 0 36 -108
q47 -94 56 -132l-4 -24v-28q28 -28 28 -168l-24 -48l4 -12l-4 -4l16 -24v-28l-24 -44l4 -56v-4q-48 -54 -48 -108l-32 -64q-73 -81 -108 -172l-72 -40q-10 -28 -108 -52q-36 -40 -52 -40l-48 32l-64 -4h-12q-12 0 -64 -32h-8q-48 52 -60 52l-36 -4q-11 0 -56 56l-20 4
l-28 -4q-22 0 -44 72l-88 96q-14 17 -16 48h4q-12 51 -64 148l-4 20l4 24q-32 66 -32 84q20 30 20 52q-10 0 -24 48l28 64q0 12 -28 56l28 72l-8 44l52 84q17 39 28 108q52 62 60 100q28 19 48 80q17 20 72 36q33 56 108 56q42 36 72 36q50 -14 64 -14l32 12l24 -4h16z
M661 1127q-51 -13 -76 -28q-26 0 -42 8q-11 0 -49 -58q-79 -28 -79 -93l11 -30v-20l-56 -54l-4 -15l34 -31v-12q0 -11 -49 -27q-34 -49 -34 -96l11 -35v-11l-19 -50q30 -52 30 -74l-4 -11q0 -86 53 -124q11 -13 16 -57q30 -40 30 -62l-4 -27l23 -12l34 4q13 0 22 -69
q47 -58 106 -58q11 0 61 35q11 0 60 -31h8q23 0 41 27q85 0 140 96l4 12l-4 23q0 24 53 65q15 22 27 66v46q0 15 26 58q0 15 -15 39v11l19 50v4q0 15 -19 43v11l15 50v8q-30 39 -30 73q-9 50 -19 50l4 20v11q-1 9 -46 50l-15 24l4 27v3q0 43 -110 112q-3 24 -118 42z" />
    <glyph glyph-name="Odieresis" unicode="&#xd6;" horiz-adv-x="1348" 
d="M257 1483v8l17 38l-4 38q0 16 81 90l91 15q30 0 100 -49q0 -25 54 -123v-6q0 -13 -50 -52q-17 -41 -41 -41h-3l-30 3l-57 -29q-13 0 -57 26q-51 10 -51 24q0 32 -40 46zM757 1496q44 142 61 142l53 48l17 3l57 -3l34 6q35 0 87 -92q11 0 14 -47l-3 -3v-3l3 -13l-3 -3
q8 0 13 -38l-98 -98q-37 -19 -47 -19q-57 13 -107 16l-14 19l4 3v3q0 20 -47 38q-24 21 -24 41zM769 1316h24q34 -40 76 -40q31 0 72 -52q84 -31 84 -68l76 -116q23 0 36 -108q47 -94 56 -132l-4 -24v-28q28 -28 28 -168l-24 -48l4 -12l-4 -4l16 -24v-28l-24 -44l4 -56v-4
q-48 -54 -48 -108l-32 -64q-73 -81 -108 -172l-72 -40q-10 -28 -108 -52q-36 -40 -52 -40l-48 32l-64 -4h-12q-12 0 -64 -32h-8q-48 52 -60 52l-36 -4q-11 0 -56 56l-20 4l-28 -4q-22 0 -44 72l-88 96q-14 17 -16 48h4q-12 51 -64 148l-4 20l4 24q-32 66 -32 84q20 30 20 52
q-10 0 -24 48l28 64q0 12 -28 56l28 72l-8 44l52 84q17 39 28 108q52 62 60 100q28 19 48 80q17 20 72 36q33 56 108 56q42 36 72 36q50 -14 64 -14l32 12l24 -4h16zM661 1127q-51 -13 -76 -28q-26 0 -42 8q-11 0 -49 -58q-79 -28 -79 -93l11 -30v-20l-56 -54l-4 -15l34 -31
v-12q0 -11 -49 -27q-34 -49 -34 -96l11 -35v-11l-19 -50q30 -52 30 -74l-4 -11q0 -86 53 -124q11 -13 16 -57q30 -40 30 -62l-4 -27l23 -12l34 4q13 0 22 -69q47 -58 106 -58q11 0 61 35q11 0 60 -31h8q23 0 41 27q85 0 140 96l4 12l-4 23q0 24 53 65q15 22 27 66v46
q0 15 26 58q0 15 -15 39v11l19 50v4q0 15 -19 43v11l15 50v8q-30 39 -30 73q-9 50 -19 50l4 20v11q-1 9 -46 50l-15 24l4 27v3q0 43 -110 112q-3 24 -118 42z" />
    <glyph glyph-name="Oslash" unicode="&#xd8;" horiz-adv-x="1398" 
d="M873 1041q-10 7 -22 14q-3 24 -124 54l-4 4l-3 -14l-5 -9l-6 -13q-8 -3 -14 -8q-18 18 -21 36h-8q-24 -4 -49 -19q-26 0 -42 8q-11 0 -49 -58q-79 -28 -79 -93l11 -30v-20l-56 -54l-4 -15l34 -31v-12q0 -11 -49 -27q-34 -49 -34 -96l11 -35v-11l-19 -50q30 -52 30 -74
l-4 -11q0 -86 53 -124q5 -6 8 -17q2 4 3 8q79 55 104 135q0 10 72 127q20 68 68 99q39 71 60 134q50 29 80 124q0 18 56 73zM982 880l-11 -8l4 -18v-18q-9 -18 -48 -37q0 -29 -44 -84l-4 -18l4 -14q0 -14 -52 -51l-72 -84l12 -44l-60 -51q0 -22 -60 -69l8 -29v-11l-108 -91
l-8 -15l20 -44q0 -7 -28 -27q3 -15 6 -37q47 -58 106 -58q11 0 61 35q11 0 60 -31h8q23 0 41 27q85 0 140 96l4 12l-4 23q0 24 53 65q15 22 27 66v46q0 15 26 58q0 15 -15 39v11l19 50v4q0 15 -19 43v11l15 50v8q-30 39 -30 73q-9 50 -19 50l4 20v11q-1 8 -36 41zM303 106
l-30 33q-14 17 -16 48h4q-12 51 -64 148l-4 20l4 24q-32 66 -32 84q20 30 20 52q-10 0 -24 48l28 64q0 12 -28 56l28 72l-8 44l52 84q17 39 28 108q52 62 60 100q28 19 48 80q17 20 72 36q33 56 108 56q42 48 72 48q50 -36 64 -36l32 12l24 -4h16l40 32h24q38 -52 80 -52
q27 0 61 -39q10 34 49 64q11 51 88 98q30 0 64 11h12q40 0 40 -98q10 -1 24 -48q0 -23 -76 -69q-12 -23 -20 -102l-29 -24l19 -29q23 0 36 -108q47 -94 56 -132l-4 -24v-28q28 -28 28 -168l-24 -48l4 -12l-4 -4l16 -24v-28l-24 -44l4 -56v-4q-48 -54 -48 -108l-32 -64
q-73 -81 -108 -172l-72 -40q-10 -28 -108 -52q-36 -40 -52 -40l-48 32l-64 -4h-12q-12 0 -64 -32h-8q-48 52 -60 52l-36 -4q-11 0 -56 56l-20 4l-24 -3q-34 -46 -62 -117q-31 -24 -116 -58h-16q-40 40 -40 77q0 47 44 105v8l-4 25q0 7 68 66z" />
    </font>
</defs>
</svg>
